<svg width="68" height="303" viewBox="0 0 68 303" fill="none" xmlns="http://www.w3.org/2000/svg">
<path d="M71.7388 252.614C56.7558 249.385 47.2363 234.661 50.4763 219.728C53.7163 204.794 68.4889 195.306 83.4719 198.536C98.4548 201.765 107.974 216.489 104.734 231.422C101.494 246.356 86.7217 255.844 71.7388 252.614Z" fill="#00A5E2"/>
<path d="M45.4371 212.091L2.28882e-05 166.803L18.6329 148.229L64.072 193.517C55.6854 197.038 48.9699 203.731 45.4371 212.091Z" fill="#00A5E2"/>
<path d="M64.072 257.641L18.6329 302.93L2.28882e-05 284.356L45.4371 239.068C48.97 247.427 55.6854 254.12 64.072 257.641Z" fill="#00A5E2"/>
<path d="M133.668 26.2515L65.2899 93.1569L133.668 160.06L107.808 186.314L12.599 93.1569L107.808 -0.000656128L133.668 26.2515Z" fill="#F2755E"/>
</svg>
