<svg width="20" height="20" viewBox="0 0 20 20" fill="none" xmlns="http://www.w3.org/2000/svg">
<path fill-rule="evenodd" clip-rule="evenodd" d="M12.5 3.125C12.5 2.95924 12.5659 2.80027 12.6831 2.68306C12.8003 2.56585 12.9593 2.5 13.125 2.5H16.875C17.0408 2.5 17.1998 2.56585 17.317 2.68306C17.4342 2.80027 17.5 2.95924 17.5 3.125V6.875C17.5 7.04076 17.4342 7.19973 17.317 7.31694C17.1998 7.43415 17.0408 7.5 16.875 7.5C16.7093 7.5 16.5503 7.43415 16.4331 7.31694C16.3159 7.19973 16.25 7.04076 16.25 6.875V4.63333L12.3167 8.56667C12.2595 8.62807 12.1905 8.67732 12.1138 8.71148C12.0371 8.74564 11.9544 8.76401 11.8705 8.76549C11.7865 8.76697 11.7032 8.75154 11.6254 8.7201C11.5475 8.68867 11.4768 8.64188 11.4175 8.58253C11.3581 8.52318 11.3114 8.45249 11.2799 8.37467C11.2485 8.29684 11.2331 8.21348 11.2345 8.12957C11.236 8.04565 11.2544 7.96288 11.2885 7.88622C11.3227 7.80955 11.372 7.74055 11.4334 7.68333L15.3667 3.75H13.125C12.9593 3.75 12.8003 3.68415 12.6831 3.56694C12.5659 3.44973 12.5 3.29076 12.5 3.125Z" fill="#FDFFFF"/>
<path fill-rule="evenodd" clip-rule="evenodd" d="M1.25 3.75C1.25 3.08696 1.51339 2.45107 1.98223 1.98223C2.45107 1.51339 3.08696 1.25 3.75 1.25H4.89333C5.61 1.25 6.235 1.73833 6.40917 2.43333L7.33 6.11917C7.40462 6.4175 7.38955 6.73122 7.28667 7.02102C7.18379 7.31082 6.99769 7.56383 6.75167 7.74833L5.67417 8.55667C5.56167 8.64083 5.5375 8.76417 5.56917 8.85C6.03948 10.129 6.78216 11.2906 7.74579 12.2542C8.70941 13.2178 9.87096 13.9605 11.15 14.4308C11.2358 14.4625 11.3583 14.4383 11.4433 14.3258L12.2517 13.2483C12.4362 13.0023 12.6892 12.8162 12.979 12.7133C13.2688 12.6105 13.5825 12.5954 13.8808 12.67L17.5667 13.5908C18.2617 13.765 18.75 14.39 18.75 15.1075V16.25C18.75 16.913 18.4866 17.5489 18.0178 18.0178C17.5489 18.4866 16.913 18.75 16.25 18.75H14.375C7.12667 18.75 1.25 12.8733 1.25 5.625V3.75Z" fill="#FDFFFF"/>
</svg>
