<svg width="28" height="28" viewBox="0 0 28 28" fill="none" xmlns="http://www.w3.org/2000/svg">
<path d="M0 14C0 6.26801 6.26801 0 14 0C21.732 0 28 6.26801 28 14C28 21.732 21.732 28 14 28C6.26801 28 0 21.732 0 14Z" fill="#457AB0"/>
<path d="M22.3333 14.0003C22.3333 9.40033 18.6 5.66699 14 5.66699C9.4 5.66699 5.66666 9.40033 5.66666 14.0003C5.66666 18.0337 8.53333 21.392 12.3333 22.167V16.5003H10.6667V14.0003H12.3333V11.917C12.3333 10.3087 13.6417 9.00033 15.25 9.00033H17.3333V11.5003H15.6667C15.2083 11.5003 14.8333 11.8753 14.8333 12.3337V14.0003H17.3333V16.5003H14.8333V22.292C19.0417 21.8753 22.3333 18.3253 22.3333 14.0003Z" fill="#FDFFFF"/>
</svg>
