<svg width="28" height="28" viewBox="0 0 28 28" fill="none" xmlns="http://www.w3.org/2000/svg">
<path d="M0 14C0 6.26801 6.26801 0 14 0C21.732 0 28 6.26801 28 14C28 21.732 21.732 28 14 28C6.26801 28 0 21.732 0 14Z" fill="#457AB0"/>
<path d="M14 11.0875C12.3875 11.0875 11.0875 12.4 11.0875 14C11.0875 15.6 12.4 16.9125 14 16.9125C15.6 16.9125 16.9125 15.6 16.9125 14C16.9125 12.4 15.6 11.0875 14 11.0875ZM22.75 14C22.75 12.7875 22.75 11.6 22.6875 10.3875C22.625 8.9875 22.3 7.7375 21.275 6.725C20.25 5.7 19.0125 5.375 17.6125 5.3125C16.4 5.25 15.2125 5.25 14 5.25C12.7875 5.25 11.6 5.25 10.3875 5.3125C8.9875 5.375 7.7375 5.7 6.725 6.725C5.7 7.75 5.375 8.9875 5.3125 10.3875C5.25 11.6 5.25 12.7875 5.25 14C5.25 15.2125 5.25 16.4 5.3125 17.6125C5.375 19.0125 5.7 20.2625 6.725 21.275C7.75 22.3 8.9875 22.625 10.3875 22.6875C11.6 22.75 12.7875 22.75 14 22.75C15.2125 22.75 16.4 22.75 17.6125 22.6875C19.0125 22.625 20.2625 22.3 21.275 21.275C22.3 20.25 22.625 19.0125 22.6875 17.6125C22.7625 16.4125 22.75 15.2125 22.75 14ZM14 18.4875C11.5125 18.4875 9.5125 16.4875 9.5125 14C9.5125 11.5125 11.5125 9.5125 14 9.5125C16.4875 9.5125 18.4875 11.5125 18.4875 14C18.4875 16.4875 16.4875 18.4875 14 18.4875ZM18.675 10.375C18.1 10.375 17.625 9.9125 17.625 9.325C17.625 8.7375 18.0875 8.275 18.675 8.275C19.2625 8.275 19.725 8.7375 19.725 9.325C19.7282 9.46192 19.7032 9.59803 19.6516 9.72489C19.6 9.85176 19.5228 9.96667 19.425 10.0625C19.3292 10.1603 19.2143 10.2375 19.0874 10.2891C18.9605 10.3407 18.8244 10.3657 18.6875 10.3625L18.675 10.375Z" fill="#FDFFFF"/>
</svg>
