<svg width="28" height="28" viewBox="0 0 28 28" fill="none" xmlns="http://www.w3.org/2000/svg">
<path d="M0 14C0 6.26801 6.26801 0 14 0C21.732 0 28 6.26801 28 14C28 21.732 21.732 28 14 28C6.26801 28 0 21.732 0 14Z" fill="#457AB0"/>
<path d="M18.4192 5.875H9.58083C8.59799 5.875 7.65539 6.26543 6.96041 6.96041C6.26543 7.65539 5.875 8.59799 5.875 9.58083V18.4192C5.875 19.402 6.26543 20.3446 6.96041 21.0396C7.65539 21.7346 8.59799 22.125 9.58083 22.125H18.4192C19.402 22.125 20.3446 21.7346 21.0396 21.0396C21.7346 20.3446 22.125 19.402 22.125 18.4192V9.58083C22.125 8.59799 21.7346 7.65539 21.0396 6.96041C20.3446 6.26543 19.402 5.875 18.4192 5.875ZM11.3692 18.9933C11.3718 19.0387 11.3651 19.0841 11.3495 19.1268C11.3339 19.1695 11.3098 19.2085 11.2786 19.2415C11.2474 19.2745 11.2097 19.3008 11.168 19.3188C11.1262 19.3367 11.0813 19.3459 11.0358 19.3458H9.5525C9.46305 19.3437 9.37802 19.3065 9.31569 19.2423C9.25336 19.1781 9.2187 19.092 9.21917 19.0025V12.8333C9.21794 12.7888 9.22566 12.7445 9.24186 12.703C9.25806 12.6614 9.28242 12.6236 9.3135 12.5917C9.34457 12.5598 9.38173 12.5344 9.42279 12.5171C9.46384 12.4997 9.50794 12.4908 9.5525 12.4908H11.0358C11.0804 12.4908 11.1245 12.4997 11.1655 12.5171C11.2066 12.5344 11.2438 12.5598 11.2748 12.5917C11.3059 12.6236 11.3303 12.6614 11.3465 12.703C11.3627 12.7445 11.3704 12.7888 11.3692 12.8333V18.9933ZM10.2667 11.1933C10.1061 11.1921 9.94728 11.1593 9.79937 11.0967C9.65146 11.0342 9.51733 10.9431 9.40462 10.8287C9.29191 10.7143 9.20284 10.5788 9.1425 10.4299C9.08215 10.2811 9.05171 10.1218 9.05292 9.96125C9.05412 9.80065 9.08694 9.64187 9.14951 9.49396C9.21208 9.34605 9.30317 9.21191 9.41758 9.0992C9.53199 8.98649 9.66748 8.89743 9.81631 8.83708C9.96514 8.77674 10.1244 8.7463 10.285 8.7475C10.6038 8.75787 10.9059 8.8924 11.1268 9.12238C11.3478 9.35237 11.4701 9.6596 11.4677 9.97852C11.4653 10.2974 11.3384 10.6028 11.114 10.8295C10.8896 11.0561 10.5856 11.1861 10.2667 11.1917M19.2808 18.9833C19.2804 19.0675 19.2474 19.1483 19.1886 19.2086C19.1299 19.2689 19.05 19.3041 18.9658 19.3067H17.4C17.3157 19.3041 17.2357 19.2688 17.1769 19.2083C17.1181 19.1478 17.0852 19.0668 17.085 18.9825V16.1292C17.085 15.7033 17.215 14.2767 15.955 14.2767C14.9725 14.2767 14.7783 15.2767 14.7408 15.7217V19.0475C14.7409 19.132 14.708 19.2132 14.6492 19.2738C14.5904 19.3345 14.5103 19.3699 14.4258 19.3725H12.9067C12.8206 19.3723 12.7382 19.3379 12.6774 19.277C12.6166 19.2161 12.5825 19.1336 12.5825 19.0475V12.8033C12.5851 12.7189 12.6205 12.6388 12.6812 12.58C12.7418 12.5212 12.823 12.4883 12.9075 12.4883H14.4258C14.5103 12.4883 14.5915 12.5212 14.6522 12.58C14.7128 12.6388 14.7482 12.7189 14.7508 12.8033V13.3408C14.9725 13.0164 15.2786 12.7586 15.6361 12.5953C15.9935 12.4319 16.3887 12.3693 16.7792 12.4142C19.3083 12.4142 19.2992 14.7767 19.2992 16.12L19.2808 18.9833Z" fill="#FDFFFF"/>
</svg>
