<svg width="20" height="20" viewBox="0 0 20 20" fill="none" xmlns="http://www.w3.org/2000/svg">
<path d="M1.25 7.22461V14.3746C1.25 15.0377 1.51339 15.6735 1.98223 16.1424C2.45107 16.6112 3.08696 16.8746 3.75 16.8746H16.25C16.913 16.8746 17.5489 16.6112 18.0178 16.1424C18.4866 15.6735 18.75 15.0377 18.75 14.3746V7.22461L11.31 11.8021C10.916 12.0445 10.4626 12.1728 10 12.1728C9.53745 12.1728 9.08396 12.0445 8.69 11.8021L1.25 7.22461Z" fill="#FDFFFF"/>
<path d="M18.75 5.75667V5.625C18.75 4.96196 18.4866 4.32607 18.0178 3.85723C17.5489 3.38839 16.913 3.125 16.25 3.125H3.75C3.08696 3.125 2.45107 3.38839 1.98223 3.85723C1.51339 4.32607 1.25 4.96196 1.25 5.625V5.75667L9.345 10.7383C9.54198 10.8595 9.76872 10.9237 10 10.9237C10.2313 10.9237 10.458 10.8595 10.655 10.7383L18.75 5.75667Z" fill="#FDFFFF"/>
</svg>
