<svg width="28" height="28" viewBox="0 0 28 28" fill="none" xmlns="http://www.w3.org/2000/svg">
<path d="M0 14C0 6.26801 6.26801 0 14 0C21.732 0 28 6.26801 28 14C28 21.732 21.732 28 14 28C6.26801 28 0 21.732 0 14Z" fill="#457AB0"/>
<path fill-rule="evenodd" clip-rule="evenodd" d="M17.3333 22.125C18.6042 22.125 19.8229 21.6202 20.7216 20.7216C21.6202 19.8229 22.125 18.6042 22.125 17.3333V10.6667C22.125 9.39584 21.6202 8.17706 20.7216 7.27845C19.8229 6.37983 18.6042 5.875 17.3333 5.875H10.6667C9.39584 5.875 8.17706 6.37983 7.27845 7.27845C6.37983 8.17706 5.875 9.39584 5.875 10.6667V17.3333C5.875 18.6042 6.37983 19.8229 7.27845 20.7216C8.17706 21.6202 9.39584 22.125 10.6667 22.125H17.3333ZM15.4258 8.8025C15.3787 8.66203 15.2831 8.54289 15.1563 8.46633C15.0294 8.38976 14.8795 8.36075 14.7333 8.38448C14.587 8.4082 14.4539 8.48312 14.3578 8.59586C14.2616 8.7086 14.2087 8.85183 14.2083 9V16.5C14.2083 16.8708 14.0984 17.2334 13.8923 17.5417C13.6863 17.85 13.3935 18.0904 13.0509 18.2323C12.7083 18.3742 12.3313 18.4113 11.9675 18.339C11.6038 18.2666 11.2697 18.088 11.0075 17.8258C10.7453 17.5636 10.5667 17.2295 10.4944 16.8658C10.422 16.5021 10.4591 16.1251 10.6011 15.7825C10.743 15.4399 10.9833 15.147 11.2916 14.941C11.6 14.735 11.9625 14.625 12.3333 14.625C12.4991 14.625 12.6581 14.5592 12.7753 14.4419C12.8925 14.3247 12.9583 14.1658 12.9583 14C12.9583 13.8342 12.8925 13.6753 12.7753 13.5581C12.6581 13.4408 12.4991 13.375 12.3333 13.375C11.7153 13.375 11.1111 13.5583 10.5972 13.9017C10.0833 14.245 9.68273 14.7331 9.44621 15.3041C9.20969 15.8751 9.1478 16.5035 9.26838 17.1097C9.38896 17.7158 9.68659 18.2727 10.1236 18.7097C10.5607 19.1467 11.1175 19.4444 11.7237 19.565C12.3299 19.6855 12.9582 19.6236 13.5292 19.3871C14.1002 19.1506 14.5883 18.7501 14.9317 18.2362C15.2751 17.7223 15.4583 17.1181 15.4583 16.5V11.0483C16.0975 11.6417 16.9975 12.125 18.1667 12.125C18.3324 12.125 18.4914 12.0592 18.6086 11.9419C18.7258 11.8247 18.7917 11.6658 18.7917 11.5C18.7917 11.3342 18.7258 11.1753 18.6086 11.0581C18.4914 10.9408 18.3324 10.875 18.1667 10.875C17.3567 10.875 16.7408 10.5417 16.2842 10.1092C15.8175 9.66583 15.5358 9.13167 15.4258 8.8025Z" fill="#FDFFFF"/>
</svg>
