<svg width="28" height="28" viewBox="0 0 28 28" fill="none" xmlns="http://www.w3.org/2000/svg">
<path d="M0 14C0 6.26801 6.26801 0 14 0C21.732 0 28 6.26801 28 14C28 21.732 21.732 28 14 28C6.26801 28 0 21.732 0 14Z" fill="#457AB0"/>
<path d="M22.1008 14.6265C22.2138 13.1915 21.942 11.7523 21.3133 10.4573C20.2728 11.446 19.0428 12.2136 17.6975 12.714C17.8057 14.0418 17.7457 15.3779 17.5192 16.6907C19.1562 16.2784 20.7074 15.5795 22.1008 14.6265ZM16.195 16.9582C16.4612 15.6857 16.5542 14.3831 16.4717 13.0857C15.6783 13.2748 14.8508 13.3748 14 13.3748C13.1492 13.3748 12.3217 13.2748 11.5283 13.0857C11.4477 14.383 11.5407 15.6854 11.805 16.9582C13.2598 17.1811 14.7402 17.1811 16.195 16.9582ZM12.1433 18.2657C13.3768 18.4116 14.6232 18.4116 15.8567 18.2657C15.4327 19.6303 14.8069 20.9238 14 22.1032C13.1931 20.9238 12.5672 19.6303 12.1433 18.2657ZM10.4808 16.6915C10.253 15.3783 10.1931 14.0415 10.3025 12.7132C8.9569 12.2129 7.72659 11.4453 6.68583 10.4565C6.05734 11.7518 5.78578 13.1913 5.89916 14.6265C7.29261 15.5795 8.84376 16.2792 10.4808 16.6915ZM21.7967 16.2932C21.3759 17.7189 20.5726 19.0022 19.4741 20.0037C18.3755 21.0052 17.0235 21.6866 15.565 21.974C16.2954 20.7459 16.8529 19.4228 17.2217 18.0423C18.8296 17.7053 20.3738 17.1152 21.7967 16.294V16.2932ZM6.20333 16.2932C7.60499 17.1023 9.14499 17.6998 10.7783 18.0423C11.1471 19.4228 11.7046 20.7459 12.435 21.974C10.9766 21.6867 9.6247 21.0054 8.52611 20.0041C7.42753 19.0027 6.6242 17.7196 6.20333 16.294V16.2932ZM15.565 6.02482C17.6298 6.43066 19.4567 7.62134 20.6617 9.34648C19.7722 10.2451 18.7104 10.9549 17.54 11.4332C17.2246 9.523 16.5548 7.68868 15.565 6.02482ZM14 5.89648C15.2162 7.67323 16.0152 9.70179 16.3375 11.8307C15.59 12.0223 14.8067 12.1248 14 12.1248C13.1933 12.1248 12.41 12.0232 11.6625 11.8307C11.9847 9.70178 12.7838 7.67322 14 5.89648ZM12.435 6.02482C11.4452 7.68867 10.7753 9.52299 10.46 11.4332C9.28954 10.9549 8.22775 10.2452 7.33833 9.34648C8.54336 7.62159 10.3703 6.43037 12.435 6.02482Z" fill="white"/>
</svg>
