<svg width="28" height="28" viewBox="0 0 28 28" fill="none" xmlns="http://www.w3.org/2000/svg">
<path d="M0 14C0 6.26801 6.26801 0 14 0C21.732 0 28 6.26801 28 14C28 21.732 21.732 28 14 28C6.26801 28 0 21.732 0 14Z" fill="#457AB0"/>
<path d="M19.8747 8.09204C19.1106 7.32046 18.2005 6.70868 17.1976 6.29234C16.1947 5.876 15.1189 5.66344 14.033 5.66704C9.48301 5.66704 5.77467 9.37537 5.77467 13.9254C5.77467 15.3837 6.15801 16.8004 6.87467 18.0504L5.70801 22.3337L10.083 21.1837C11.2913 21.842 12.6497 22.192 14.033 22.192C18.583 22.192 22.2913 18.4837 22.2913 13.9337C22.2913 11.7254 21.433 9.65037 19.8747 8.09204ZM14.033 20.792C12.7997 20.792 11.5913 20.4587 10.533 19.8337L10.283 19.6837L7.68301 20.367L8.37467 17.8337L8.20801 17.5754C7.52263 16.4813 7.15878 15.2164 7.15801 13.9254C7.15801 10.142 10.2413 7.0587 14.0247 7.0587C15.858 7.0587 17.583 7.77537 18.8747 9.07537C19.5144 9.71192 20.0213 10.4692 20.366 11.3031C20.7108 12.1371 20.8865 13.0313 20.883 13.9337C20.8997 17.717 17.8163 20.792 14.033 20.792ZM17.7997 15.6587C17.5913 15.5587 16.5747 15.0587 16.3913 14.9837C16.1997 14.917 16.0663 14.8837 15.9247 15.0837C15.783 15.292 15.3913 15.7587 15.2747 15.892C15.158 16.0337 15.033 16.0504 14.8247 15.942C14.6163 15.842 13.9497 15.617 13.1663 14.917C12.5497 14.367 12.1413 13.692 12.0163 13.4837C11.8997 13.2754 11.9997 13.167 12.108 13.0587C12.1997 12.967 12.3163 12.817 12.4163 12.7004C12.5163 12.5837 12.558 12.492 12.6247 12.3587C12.6913 12.217 12.658 12.1004 12.608 12.0004C12.558 11.9004 12.1413 10.8837 11.9747 10.467C11.808 10.067 11.633 10.117 11.508 10.1087H11.108C10.9663 10.1087 10.7497 10.1587 10.558 10.367C10.3747 10.5754 9.84134 11.0754 9.84134 12.092C9.84134 13.1087 10.583 14.092 10.683 14.2254C10.783 14.367 12.1413 16.4504 14.208 17.342C14.6997 17.5587 15.083 17.6837 15.383 17.7754C15.8747 17.9337 16.3247 17.9087 16.683 17.8587C17.083 17.8004 17.908 17.3587 18.0747 16.8754C18.2497 16.392 18.2497 15.9837 18.1913 15.892C18.133 15.8004 18.008 15.7587 17.7997 15.6587Z" fill="white"/>
</svg>
