<svg width="28" height="28" viewBox="0 0 28 28" fill="none" xmlns="http://www.w3.org/2000/svg">
<path d="M0 14C0 6.26801 6.26801 0 14 0C21.732 0 28 6.26801 28 14C28 21.732 21.732 28 14 28C6.26801 28 0 21.732 0 14Z" fill="#457AB0"/>
<path fill-rule="evenodd" clip-rule="evenodd" d="M14 7.33301C14.7125 7.33301 15.4433 7.35134 16.1517 7.38134L16.9883 7.42134L17.7892 7.46884L18.5392 7.51967L19.2242 7.57301C19.9677 7.62958 20.6673 7.9467 21.2 8.46851C21.7326 8.99032 22.064 9.68334 22.1358 10.4255L22.1692 10.7797L22.2317 11.538C22.29 12.3238 22.3333 13.1805 22.3333 13.9997C22.3333 14.8188 22.29 15.6755 22.2317 16.4613L22.1692 17.2197L22.1358 17.5738C22.064 18.3161 21.7325 19.0093 21.1997 19.5311C20.6669 20.0529 19.967 20.37 19.2233 20.4263L18.54 20.4788L17.79 20.5305L16.9883 20.578L16.1517 20.618C15.4349 20.6491 14.7175 20.6652 14 20.6663C13.2825 20.6652 12.5651 20.6491 11.8483 20.618L11.0117 20.578L10.2108 20.5305L9.46084 20.4788L8.77584 20.4263C8.03235 20.3698 7.33267 20.0526 6.80004 19.5308C6.26741 19.009 5.936 18.316 5.86417 17.5738L5.83084 17.2197L5.76834 16.4613C5.70487 15.6423 5.67095 14.8212 5.66667 13.9997C5.66667 13.1805 5.71001 12.3238 5.76834 11.538L5.83084 10.7797L5.86417 10.4255C5.93597 9.68347 6.26726 8.99055 6.79972 8.46876C7.33218 7.94697 8.03166 7.62977 8.77501 7.57301L9.45917 7.51967L10.2092 7.46884L11.0108 7.42134L11.8475 7.38134C12.5646 7.35028 13.2822 7.33417 14 7.33301ZM12.3333 11.9788V16.0205C12.3333 16.4055 12.75 16.6455 13.0833 16.4538L16.5833 14.433C16.6595 14.3892 16.7228 14.326 16.7667 14.25C16.8107 14.1739 16.8339 14.0876 16.8339 13.9997C16.8339 13.9118 16.8107 13.8255 16.7667 13.7494C16.7228 13.6733 16.6595 13.6102 16.5833 13.5663L13.0833 11.5463C13.0073 11.5024 12.9211 11.4793 12.8333 11.4794C12.7455 11.4794 12.6592 11.5025 12.5832 11.5464C12.5072 11.5903 12.4441 11.6535 12.4002 11.7296C12.3563 11.8056 12.3333 11.8919 12.3333 11.9797V11.9788Z" fill="#FDFFFF"/>
</svg>
