<svg width="707" height="311" viewBox="0 0 707 311" fill="none" xmlns="http://www.w3.org/2000/svg">
<path d="M706.229 310.233H0V0.000396729H706.229V310.233Z" fill="#223064"/>
<path d="M173.632 74.5439H29.9277V27.937H173.632V74.5439Z" fill="#FCCB32"/>
<path d="M42.5332 35.9522V51.8062L56.1232 67.6562H62.9142V51.8062L49.3272 35.9522H42.5332Z" fill="#D52038"/>
<path d="M63.875 35.9522V51.8062L77.461 67.6562H84.256V51.8062L70.669 35.9522H63.875Z" fill="#D52038"/>
<path d="M85.2148 35.9522V51.8062L98.8048 67.6562H105.596V51.8062L92.0088 35.9522H85.2148Z" fill="#D52038"/>
<path d="M120.462 43.7559V38.2889L118.203 42.3599H117.276L115.016 38.2889V43.7559H113.312V35.4969H115.141L117.733 40.1969L120.351 35.4969H122.166V43.7559H120.462Z" fill="#030404"/>
<path d="M124.611 35.5089H126.315V43.7568H124.611V35.5089Z" fill="#030404"/>
<path d="M134.551 39.6149C134.551 39.2189 134.493 38.8549 134.378 38.5219C134.263 38.1879 134.094 37.9019 133.872 37.6609C133.65 37.4209 133.376 37.2349 133.051 37.1019C132.726 36.9699 132.357 36.9049 131.946 36.9049H130.464V42.3489H131.946C132.366 42.3489 132.738 42.2789 133.063 42.1389C133.388 41.9999 133.66 41.8079 133.878 41.5639C134.096 41.3189 134.263 41.0309 134.378 40.6969C134.493 40.3639 134.551 40.0029 134.551 39.6149ZM128.76 43.7559V35.4969H131.946C132.662 35.4969 133.289 35.6059 133.829 35.8229C134.368 36.0399 134.819 36.3349 135.181 36.7069C135.543 37.0789 135.814 37.5149 135.995 38.0159C136.176 38.5159 136.267 39.0489 136.267 39.6149C136.267 40.2429 136.166 40.8109 135.965 41.3189C135.763 41.8269 135.473 42.2609 135.094 42.6219C134.716 42.9829 134.261 43.2619 133.73 43.4599C133.199 43.6569 132.605 43.7559 131.946 43.7559H128.76Z" fill="#030404"/>
<path d="M144.031 39.6149C144.031 39.2189 143.974 38.8549 143.859 38.5219C143.743 38.1879 143.574 37.9019 143.352 37.6609C143.13 37.4209 142.856 37.2349 142.531 37.1019C142.206 36.9699 141.838 36.9049 141.426 36.9049H139.945V42.3489H141.426C141.846 42.3489 142.218 42.2789 142.544 42.1389C142.869 41.9999 143.14 41.8079 143.359 41.5639C143.576 41.3189 143.743 41.0309 143.859 40.6969C143.974 40.3639 144.031 40.0029 144.031 39.6149ZM138.24 43.7559V35.4969H141.426C142.142 35.4969 142.77 35.6059 143.309 35.8229C143.848 36.0399 144.299 36.3349 144.661 36.7069C145.023 37.0789 145.295 37.5149 145.476 38.0159C145.657 38.5159 145.747 39.0489 145.747 39.6149C145.747 40.2429 145.647 40.8109 145.445 41.3189C145.243 41.8269 144.953 42.2609 144.574 42.6219C144.196 42.9829 143.741 43.2619 143.211 43.4599C142.679 43.6569 142.085 43.7559 141.426 43.7559H138.24Z" fill="#030404"/>
<path d="M147.725 43.7559V35.4969H149.429V42.3489H153.898V43.7559H147.725Z" fill="#030404"/>
<path d="M161.7 42.3489V43.7559H155.613V35.4969H161.589V36.9049H157.317V38.8939H161.009V40.1969H157.317V42.3489H161.7Z" fill="#030404"/>
<path d="M119.401 54.0383V55.4463H113.314V47.1863H119.29V48.5943H115.018V50.5833H118.71V51.8863H115.018V54.0383H119.401Z" fill="#030404"/>
<path d="M125.142 48.9193L123.883 52.2583H126.364L125.142 48.9193ZM120.994 55.4453L124.451 47.1863H125.833L129.278 55.4453H127.476L126.673 53.3863H123.599L122.796 55.4453H120.994Z" fill="#030404"/>
<path d="M136.465 49.3501C136.407 49.2961 136.302 49.2221 136.15 49.1291C135.998 49.0361 135.813 48.9451 135.594 48.8561C135.376 48.7671 135.14 48.6911 134.884 48.6291C134.629 48.5671 134.37 48.5361 134.107 48.5361C133.637 48.5361 133.288 48.6171 133.057 48.7801C132.827 48.9431 132.712 49.1721 132.712 49.4661C132.712 49.6371 132.755 49.7781 132.841 49.8911C132.927 50.0031 133.053 50.1021 133.217 50.1871C133.382 50.2731 133.59 50.3501 133.841 50.4201C134.092 50.4901 134.382 50.5641 134.712 50.6421C135.14 50.7501 135.528 50.8661 135.879 50.9901C136.228 51.1141 136.525 51.2691 136.767 51.4551C137.01 51.6421 137.197 51.8651 137.329 52.1241C137.461 52.3851 137.527 52.7041 137.527 53.0841C137.527 53.5261 137.438 53.9041 137.261 54.2181C137.084 54.5331 136.848 54.7871 136.551 54.9801C136.255 55.1741 135.909 55.3161 135.514 55.4051C135.119 55.4941 134.707 55.5381 134.279 55.5381C133.621 55.5381 132.971 55.4461 132.329 55.2591C131.687 55.0741 131.11 54.8101 130.6 54.4681L131.353 53.0841C131.427 53.1541 131.561 53.2451 131.755 53.3571C131.948 53.4701 132.176 53.5821 132.44 53.6951C132.703 53.8081 132.995 53.9021 133.317 53.9801C133.637 54.0581 133.966 54.0961 134.304 54.0961C135.242 54.0961 135.712 53.8131 135.712 53.2471C135.712 53.0611 135.658 52.9061 135.551 52.7821C135.444 52.6581 135.292 52.5491 135.094 52.4561C134.897 52.3631 134.658 52.2781 134.378 52.2001C134.098 52.1221 133.785 52.0411 133.44 51.9561C133.02 51.8471 132.656 51.7291 132.347 51.6001C132.039 51.4731 131.781 51.3241 131.575 51.1531C131.369 50.9821 131.215 50.7811 131.112 50.5481C131.009 50.3151 130.958 50.0401 130.958 49.7221C130.958 49.3041 131.04 48.9321 131.205 48.6051C131.369 48.2801 131.598 48.0091 131.89 47.7911C132.182 47.5741 132.522 47.4101 132.909 47.2971C133.296 47.1841 133.712 47.1281 134.156 47.1281C134.773 47.1281 135.341 47.2191 135.86 47.4011C136.378 47.5841 136.831 47.7991 137.218 48.0471L136.465 49.3501Z" fill="#030404"/>
<path d="M146.44 48.5933H143.649V55.4453H141.945V48.5933H139.143V47.1853H146.44V48.5933Z" fill="#030404"/>
<path d="M115.016 62.9597H116.992C117.305 62.9597 117.566 62.8387 117.776 62.5987C117.986 62.3587 118.092 62.0327 118.092 61.6217C118.092 61.4127 118.059 61.2247 117.993 61.0577C117.927 60.8907 117.84 60.7497 117.733 60.6327C117.626 60.5167 117.5 60.4297 117.356 60.3707C117.212 60.3137 117.067 60.2837 116.918 60.2837H115.016V62.9597ZM113.312 67.1357V58.8767H117.03C117.433 58.8767 117.806 58.9567 118.147 59.1147C118.489 59.2737 118.783 59.4837 119.03 59.7427C119.277 60.0027 119.469 60.2977 119.609 60.6267C119.749 60.9567 119.819 61.2887 119.819 61.6217C119.819 61.9707 119.754 62.3107 119.622 62.6397C119.491 62.9697 119.306 63.2617 119.067 63.5177C118.828 63.7737 118.54 63.9797 118.203 64.1347C117.865 64.2897 117.495 64.3667 117.092 64.3667H115.016V67.1357H113.312Z" fill="#030404"/>
<path d="M124.45 60.6097L123.19 63.9487H125.672L124.45 60.6097ZM120.301 67.1357L123.758 58.8767H125.141L128.586 67.1357H126.783L125.981 65.0767H122.907L122.104 67.1357H120.301Z" fill="#030404"/>
<path d="M130.363 58.8878H132.067V67.1357H130.363V58.8878Z" fill="#030404"/>
<path d="M136.438 61.8428V67.1348H134.734V58.8758H136.055L140.624 64.2968V58.8878H142.327V67.1348H140.945L136.438 61.8428Z" fill="#030404"/>
<path d="M151.549 60.2837H148.758V67.1357H147.055V60.2837H144.252V58.8757H151.549V60.2837Z" fill="#030404"/>
<path d="M158.636 61.0395C158.578 60.9855 158.473 60.9115 158.321 60.8185C158.169 60.7265 157.984 60.6345 157.766 60.5455C157.548 60.4565 157.311 60.3805 157.056 60.3185C156.801 60.2565 156.541 60.2255 156.278 60.2255C155.809 60.2255 155.459 60.3075 155.228 60.4695C154.998 60.6325 154.883 60.8615 154.883 61.1565C154.883 61.3265 154.926 61.4685 155.012 61.5805C155.099 61.6935 155.224 61.7915 155.389 61.8775C155.553 61.9625 155.761 62.0405 156.012 62.1095C156.263 62.1795 156.553 62.2535 156.883 62.3315C157.311 62.4395 157.699 62.5565 158.05 62.6795C158.399 62.8045 158.696 62.9595 158.939 63.1445C159.181 63.3315 159.369 63.5545 159.5 63.8135C159.632 64.0745 159.698 64.3935 159.698 64.7735C159.698 65.2165 159.609 65.5945 159.432 65.9085C159.256 66.2225 159.019 66.4765 158.723 66.6695C158.426 66.8635 158.081 67.0055 157.685 67.0945C157.29 67.1835 156.879 67.2285 156.451 67.2285C155.792 67.2285 155.142 67.1355 154.5 66.9495C153.858 66.7635 153.282 66.4995 152.771 66.1585L153.524 64.7735C153.599 64.8435 153.732 64.9355 153.926 65.0475C154.119 65.1595 154.347 65.2725 154.611 65.3845C154.874 65.4975 155.167 65.5925 155.488 65.6695C155.809 65.7475 156.137 65.7865 156.475 65.7865C157.414 65.7865 157.883 65.5025 157.883 64.9365C157.883 64.7505 157.829 64.5955 157.722 64.4715C157.615 64.3475 157.463 64.2385 157.265 64.1455C157.068 64.0525 156.829 63.9675 156.55 63.8895C156.27 63.8125 155.957 63.7305 155.611 63.6455C155.191 63.5375 154.827 63.4185 154.518 63.2905C154.21 63.1625 153.952 63.0135 153.747 62.8425C153.541 62.6725 153.386 62.4705 153.284 62.2385C153.181 62.0055 153.13 61.7305 153.13 61.4125C153.13 60.9935 153.212 60.6215 153.376 60.2955C153.541 59.9695 153.769 59.6985 154.062 59.4805C154.354 59.2645 154.693 59.0995 155.08 58.9865C155.467 58.8745 155.883 58.8185 156.327 58.8185C156.945 58.8185 157.513 58.9095 158.031 59.0915C158.55 59.2735 159.002 59.4885 159.389 59.7375L158.636 61.0395Z" fill="#030404"/>
<path d="M79.5449 85.5478C80.7959 85.5478 81.7549 85.4518 82.4209 85.2598C82.4139 84.7498 82.2859 84.3658 82.0379 84.1078C81.7889 83.8488 81.4589 83.7198 81.0479 83.7198C80.5779 83.7198 80.1329 83.8608 79.7159 84.1418C79.2989 84.4238 78.8579 84.8858 78.3939 85.5278C78.8649 85.5418 79.2489 85.5478 79.5449 85.5478ZM84.4999 86.9688C83.8679 86.9688 83.3329 86.8298 82.8959 86.5508C82.0679 86.8558 80.8899 87.0078 79.3629 87.0078C78.3339 87.0078 77.3109 86.9428 76.2949 86.8098L76.3159 85.4088C76.5309 85.4288 76.8099 85.4488 77.1529 85.4678C77.3479 85.0908 77.4459 84.5308 77.4459 83.7888V79.8838L78.7279 79.7748V82.1498C78.7279 82.7588 78.6599 83.3388 78.5249 83.8888C79.2659 82.8748 80.1809 82.3678 81.2709 82.3678C81.9629 82.3678 82.5199 82.5888 82.9409 83.0288C83.3609 83.4698 83.5709 84.0478 83.5709 84.7628C83.5709 84.9748 83.5549 85.1968 83.5209 85.4288C83.8309 85.5018 84.1939 85.5378 84.6109 85.5378H84.7619V86.9688H84.4999Z" fill="white"/>
<path d="M90.7675 86.9786C90.1555 86.9786 89.6975 86.8066 89.3945 86.4616C89.0785 86.8326 88.5435 87.0186 87.7905 87.0186C87.1575 87.0186 86.6295 86.8736 86.2055 86.5816C85.8495 86.8396 85.4055 86.9686 84.8735 86.9686H84.7625C84.6755 86.9686 84.5995 86.8996 84.5355 86.7606C84.4715 86.6216 84.4395 86.4526 84.4395 86.2536C84.4395 86.0546 84.4715 85.8856 84.5355 85.7466C84.5995 85.6076 84.6755 85.5386 84.7625 85.5386H85.0355C85.3175 85.5386 85.5315 85.4716 85.6765 85.3396C85.8205 85.2076 85.9095 84.9586 85.9435 84.5946L85.9945 83.8886L87.1345 83.7996L87.0835 84.6136C87.0775 84.8066 87.0465 85.0386 86.9935 85.3096C87.2355 85.4416 87.5175 85.5086 87.8405 85.5086C88.1365 85.5086 88.3825 85.4416 88.5775 85.3096C88.7725 85.1776 88.8705 84.9686 88.8705 84.6836V83.7396L90.0205 83.6606V84.8126C90.0205 85.2966 90.2835 85.5386 90.8075 85.5386C91.1175 85.5386 91.3995 85.4846 91.6555 85.3786C91.6425 84.8886 91.5445 84.2496 91.3625 83.4616L92.5635 83.2036C92.7045 83.7996 92.7755 84.3426 92.7755 84.8326C92.7755 85.5146 92.7045 86.0676 92.5635 86.4916C91.9785 86.8166 91.3795 86.9786 90.7675 86.9786Z" fill="white"/>
<path d="M95.9848 85.5482C96.2468 85.5482 96.5028 85.5182 96.7518 85.4592C96.7248 85.0352 96.6088 84.6472 96.4038 84.2962C96.1978 83.9452 95.9308 83.7702 95.6008 83.7702C95.3188 83.7702 95.1038 83.8692 94.9558 84.0682C94.8068 84.2662 94.7338 84.4912 94.7338 84.7432C94.7338 85.0022 94.8278 85.2002 95.0158 85.3402C95.2038 85.4792 95.5268 85.5482 95.9848 85.5482ZM94.7438 89.0752C94.3938 89.0752 94.0238 89.0262 93.6328 88.9262L93.7548 87.7442C94.0098 87.7902 94.2788 87.8142 94.5618 87.8142C95.2078 87.8142 95.7108 87.6892 96.0708 87.4412C96.4308 87.1932 96.6368 86.9192 96.6918 86.6212C96.3408 86.7602 95.9478 86.8302 95.5098 86.8302C94.2588 86.8302 93.6328 86.2042 93.6328 84.9522C93.6328 84.2502 93.8268 83.6642 94.2138 83.1932C94.6008 82.7232 95.0868 82.4882 95.6718 82.4882C96.3238 82.4882 96.8608 82.7772 97.2818 83.3572C97.7018 83.9372 97.9128 84.7072 97.9128 85.6672C97.9128 86.7472 97.6418 87.5852 97.0998 88.1812C96.5578 88.7772 95.7728 89.0752 94.7438 89.0752Z" fill="white"/>
<path d="M100.051 87.0088C99.4193 87.0088 98.8503 86.9298 98.3453 86.7708V85.4388C98.8373 85.4988 99.2373 85.5318 99.5473 85.5388V85.3598C99.5473 84.3528 99.1973 83.1178 98.4973 81.6538L99.6683 81.2168C99.9973 81.8458 100.236 82.4458 100.384 83.0148C100.532 83.5848 100.606 84.2338 100.606 84.9628C100.606 85.0688 100.599 85.2538 100.586 85.5188C101.05 85.4658 101.488 85.3398 101.898 85.1408C101.952 84.7898 101.979 84.3128 101.979 83.7108C101.979 83.1608 101.952 81.8818 101.898 79.8748L103.17 79.7658C103.223 81.9518 103.25 83.0778 103.25 83.1438C103.25 84.4558 103.112 85.4588 102.837 86.1548C102.043 86.7238 101.114 87.0088 100.051 87.0088ZM100.323 80.5008C99.5833 80.6268 98.8403 80.8318 98.0933 81.1168L97.9023 80.5308C98.1843 80.4118 98.4033 80.3258 98.5573 80.2728C98.2953 80.0938 98.1643 79.8248 98.1643 79.4678C98.1643 79.1628 98.2663 78.9208 98.4713 78.7418C98.6773 78.5638 98.9273 78.4738 99.2233 78.4738C99.5063 78.4738 99.7823 78.5398 100.051 78.6728L99.8393 79.2288C99.6513 79.1698 99.4693 79.1398 99.2943 79.1398C99.1463 79.1398 99.0253 79.1728 98.9313 79.2388C98.8373 79.3048 98.7903 79.3978 98.7903 79.5168C98.7903 79.6498 98.8373 79.7638 98.9313 79.8598C99.0253 79.9558 99.1633 80.0038 99.3443 80.0038C99.4923 80.0038 99.7793 79.9608 100.202 79.8748L100.323 80.5008Z" fill="white"/>
<path d="M105.602 86.9688H104.32V79.8748L105.602 79.7648V86.9688Z" fill="white"/>
<path d="M113.189 85.5383C113.458 85.5383 113.717 85.5083 113.966 85.4493C113.939 85.0313 113.821 84.6473 113.613 84.2963C113.404 83.9453 113.139 83.7693 112.815 83.7693C112.533 83.7693 112.317 83.8693 112.169 84.0673C112.022 84.2663 111.948 84.4913 111.948 84.7433C111.948 85.0013 112.042 85.1993 112.23 85.3343C112.418 85.4703 112.738 85.5383 113.189 85.5383ZM113.643 82.0013L112.836 81.3353L112.21 82.0313L111.362 81.3353L112.069 80.5303L112.876 81.2163L113.502 80.5003L114.35 81.2163L113.643 82.0013ZM111.373 89.1943C110.397 89.1943 109.664 88.9693 109.172 88.5183C108.681 88.0683 108.436 87.4323 108.436 86.6113C108.436 85.9623 108.577 85.2603 108.859 84.5043L109.899 84.8033C109.751 85.3323 109.677 85.8003 109.677 86.2043C109.677 86.7343 109.825 87.1313 110.121 87.3963C110.417 87.6613 110.915 87.7933 111.615 87.7933C112.274 87.7933 112.802 87.6773 113.199 87.4463C113.596 87.2143 113.828 86.9393 113.896 86.6213C113.545 86.7603 113.152 86.8303 112.715 86.8303C112.048 86.8303 111.571 86.6673 111.282 86.3433C110.992 86.0183 110.848 85.5553 110.848 84.9523C110.848 84.2493 111.041 83.6633 111.428 83.1933C111.815 82.7233 112.301 82.4883 112.886 82.4883C113.532 82.4883 114.065 82.7793 114.486 83.3623C114.906 83.9453 115.117 84.7133 115.117 85.6673C115.117 86.7803 114.793 87.6463 114.148 88.2663C113.502 88.8853 112.577 89.1943 111.373 89.1943Z" fill="white"/>
<path d="M115.569 89.0361C115.259 89.0361 114.947 89.0031 114.631 88.9361L114.741 87.7541C114.91 87.7811 115.085 87.7941 115.266 87.7941C115.905 87.7941 116.373 87.5991 116.669 87.2071C116.965 86.8171 117.113 86.3401 117.113 85.7771C117.113 85.3001 116.975 84.5781 116.699 83.6111L117.901 83.2531C117.914 83.3191 117.941 83.4321 117.981 83.5911C118.022 83.7501 118.05 83.8611 118.067 83.9241C118.084 83.9871 118.109 84.0781 118.143 84.1971C118.176 84.3161 118.205 84.4111 118.228 84.4801C118.252 84.5501 118.282 84.6281 118.319 84.7141C118.356 84.8001 118.395 84.8791 118.435 84.9521C118.631 85.3431 119.017 85.5381 119.596 85.5381H119.848V86.9691H119.485C118.926 86.9691 118.492 86.8371 118.183 86.5721C118.069 87.3201 117.791 87.9181 117.35 88.3651C116.91 88.8121 116.316 89.0361 115.569 89.0361Z" fill="white"/>
<path d="M124.288 80.3225L125.065 80.9685L124.43 81.6835L123.652 81.0575L124.288 80.3225ZM125.247 82.9155L124.45 82.2695L123.814 82.9755L122.986 82.2995L123.672 81.5045L124.47 82.1805L125.105 81.4455L125.943 82.1505L125.247 82.9155ZM125.832 87.0095C125.233 87.0095 124.783 86.8305 124.48 86.4725C124.163 86.8375 123.629 87.0195 122.875 87.0195C122.243 87.0195 121.715 86.8735 121.291 86.5815C120.934 86.8405 120.49 86.9695 119.958 86.9695H119.848C119.76 86.9695 119.684 86.9005 119.621 86.7605C119.557 86.6215 119.525 86.4525 119.525 86.2545C119.525 86.0555 119.557 85.8865 119.621 85.7475C119.684 85.6085 119.76 85.5385 119.848 85.5385H120.12C120.403 85.5385 120.616 85.4725 120.761 85.3405C120.906 85.2075 120.995 84.9595 121.028 84.5945L121.079 83.8795L122.219 83.8005L122.169 84.6145C122.162 84.8065 122.132 85.0385 122.078 85.3105C122.32 85.4425 122.599 85.5095 122.915 85.5095C123.218 85.5095 123.467 85.4415 123.663 85.3055C123.857 85.1695 123.955 84.9625 123.955 84.6845V83.7505L125.105 83.6805V84.8135C125.105 85.2975 125.368 85.5385 125.892 85.5385C126.417 85.5385 126.68 85.3165 126.68 84.8725V83.6015L127.82 83.5015V84.8535C127.82 85.0385 127.81 85.2105 127.79 85.3695C127.985 85.4825 128.355 85.5385 128.9 85.5385H129.031V86.9695H128.83C128.251 86.9695 127.729 86.8205 127.265 86.5225C126.929 86.8465 126.451 87.0095 125.832 87.0095Z" fill="white"/>
<path d="M129.032 86.9688C128.945 86.9688 128.869 86.8997 128.805 86.7607C128.741 86.6207 128.709 86.4518 128.709 86.2538C128.709 86.0548 128.741 85.8857 128.805 85.7467C128.869 85.6077 128.945 85.5378 129.032 85.5378H129.113C129.51 85.5378 129.873 85.5018 130.203 85.4288C130.229 85.0108 130.243 84.4747 130.243 83.8187C130.243 82.8717 130.233 81.5568 130.213 79.8748L131.505 79.7648C131.511 81.5078 131.514 82.7887 131.514 83.6107C131.514 84.3657 131.499 84.9537 131.469 85.3737C131.439 85.7947 131.37 86.1707 131.262 86.5017C131.027 86.6277 130.704 86.7367 130.294 86.8298C129.883 86.9228 129.483 86.9688 129.093 86.9688H129.032Z" fill="white"/>
<path d="M133.866 86.9688H132.584V79.8748L133.866 79.7648V86.9688Z" fill="white"/>
<path d="M140.554 91.1223L139.746 90.4563L139.121 91.1523L138.273 90.4563L138.979 89.6513L139.787 90.3373L140.412 89.6223L141.26 90.3373L140.554 91.1223ZM139.575 89.1353C138.646 89.1353 137.935 88.9263 137.44 88.5093C136.946 88.0913 136.699 87.5023 136.699 86.7403C136.699 85.9783 136.921 85.1613 137.365 84.2863L138.374 84.6843C138.112 85.3463 137.98 85.9063 137.98 86.3633C137.98 87.3033 138.602 87.7733 139.847 87.7733C140.957 87.7733 141.657 87.4623 141.947 86.8393C141.361 86.7403 140.786 86.5953 140.221 86.4023L140.483 85.1503C141.472 85.4093 142.428 85.5383 143.349 85.5383H143.501V86.9693H143.369C143.208 86.9693 143.087 86.9653 143.006 86.9593C142.878 87.6153 142.517 88.1413 141.921 88.5393C141.326 88.9363 140.544 89.1353 139.575 89.1353Z" fill="white"/>
<path d="M146.529 83.8297C146.771 83.8297 147 83.8067 147.215 83.7597C147.148 83.2437 147.025 82.8407 146.847 82.5527C146.668 82.2647 146.438 82.1207 146.155 82.1207C145.873 82.1207 145.659 82.2197 145.514 82.4187C145.37 82.6177 145.298 82.8397 145.298 83.0847C145.298 83.5807 145.708 83.8297 146.529 83.8297ZM146.054 78.7717L146.983 79.5577L146.216 80.4117L145.287 79.6567L146.054 78.7717ZM143.501 86.9697C143.414 86.9697 143.338 86.8997 143.274 86.7607C143.21 86.6217 143.178 86.4527 143.178 86.2537C143.178 86.0557 143.21 85.8867 143.274 85.7467C143.338 85.6077 143.414 85.5387 143.501 85.5387H143.511H143.693C145.335 85.5387 146.515 85.4387 147.235 85.2407C147.256 85.0617 147.265 84.8957 147.265 84.7437C146.909 84.8567 146.505 84.9127 146.054 84.9127C144.837 84.9127 144.228 84.3727 144.228 83.2927C144.228 82.6377 144.42 82.0797 144.803 81.6187C145.187 81.1587 145.657 80.9287 146.216 80.9287C146.835 80.9287 147.343 81.2217 147.74 81.8077C148.137 82.3937 148.335 83.2097 148.335 84.2567C148.335 85.1377 148.244 85.8207 148.063 86.3037C147.235 86.7477 145.799 86.9697 143.754 86.9697H143.501Z" fill="white"/>
<path d="M153.831 89.1348C152.902 89.1348 152.191 88.9268 151.696 88.5088C151.202 88.0918 150.955 87.5018 150.955 86.7398C150.955 85.9788 151.177 85.1608 151.621 84.2858L152.63 84.6838C152.368 85.3458 152.236 85.9058 152.236 86.3628C152.236 87.3028 152.858 87.7738 154.103 87.7738C155.213 87.7738 155.913 87.4618 156.203 86.8398C155.617 86.7398 155.042 86.5948 154.477 86.4028L154.739 85.1508C155.728 85.4088 156.684 85.5378 157.605 85.5378H157.757V86.9688H157.625C157.464 86.9688 157.343 86.9658 157.262 86.9588C157.134 87.6148 156.773 88.1408 156.177 88.5388C155.582 88.9358 154.8 89.1348 153.831 89.1348Z" fill="white"/>
<path d="M157.757 86.9688C157.67 86.9688 157.594 86.8997 157.53 86.7607C157.466 86.6207 157.434 86.4518 157.434 86.2538C157.434 86.0548 157.466 85.8857 157.53 85.7467C157.594 85.6077 157.67 85.5378 157.757 85.5378H157.838C158.235 85.5378 158.598 85.5018 158.928 85.4288C158.954 85.0108 158.968 84.4747 158.968 83.8187C158.968 82.8717 158.958 81.5568 158.938 79.8748L160.23 79.7648C160.236 81.5078 160.239 82.7887 160.239 83.6107C160.239 84.3657 160.224 84.9537 160.194 85.3737C160.164 85.7947 160.095 86.1707 159.987 86.5017C159.752 86.6277 159.429 86.7367 159.019 86.8298C158.608 86.9228 158.208 86.9688 157.818 86.9688H157.757Z" fill="white"/>
<path d="M163.51 85.5482C163.772 85.5482 164.028 85.5182 164.277 85.4592C164.25 85.0352 164.134 84.6472 163.929 84.2962C163.723 83.9452 163.456 83.7702 163.126 83.7702C162.844 83.7702 162.629 83.8692 162.481 84.0682C162.332 84.2662 162.259 84.4912 162.259 84.7432C162.259 85.0022 162.353 85.2002 162.541 85.3402C162.729 85.4792 163.052 85.5482 163.51 85.5482ZM162.269 89.0752C161.919 89.0752 161.549 89.0262 161.158 88.9262L161.28 87.7442C161.535 87.7902 161.804 87.8142 162.087 87.8142C162.733 87.8142 163.236 87.6892 163.596 87.4412C163.956 87.1932 164.162 86.9192 164.217 86.6212C163.866 86.7602 163.473 86.8302 163.035 86.8302C161.784 86.8302 161.158 86.2042 161.158 84.9522C161.158 84.2502 161.352 83.6642 161.739 83.1932C162.126 82.7232 162.612 82.4882 163.197 82.4882C163.849 82.4882 164.386 82.7772 164.807 83.3572C165.227 83.9372 165.438 84.7072 165.438 85.6672C165.438 86.7472 165.167 87.5852 164.625 88.1812C164.083 88.7772 163.298 89.0752 162.269 89.0752Z" fill="white"/>
<path d="M167.577 87.0088C166.945 87.0088 166.376 86.9298 165.871 86.7708V85.4388C166.363 85.4988 166.763 85.5318 167.073 85.5388V85.3598C167.073 84.3528 166.723 83.1178 166.023 81.6538L167.194 81.2168C167.523 81.8458 167.762 82.4458 167.91 83.0148C168.058 83.5848 168.132 84.2338 168.132 84.9628C168.132 85.0688 168.125 85.2538 168.112 85.5188C168.576 85.4658 169.014 85.3398 169.424 85.1408C169.478 84.7898 169.505 84.3128 169.505 83.7108C169.505 83.1608 169.478 81.8818 169.424 79.8748L170.696 79.7658C170.749 81.9518 170.776 83.0778 170.776 83.1438C170.776 84.4558 170.638 85.4588 170.363 86.1548C169.569 86.7238 168.64 87.0088 167.577 87.0088ZM167.849 80.5008C167.109 80.6268 166.366 80.8318 165.619 81.1168L165.428 80.5308C165.71 80.4118 165.929 80.3258 166.083 80.2728C165.821 80.0938 165.69 79.8248 165.69 79.4678C165.69 79.1628 165.792 78.9208 165.997 78.7418C166.203 78.5638 166.453 78.4738 166.749 78.4738C167.032 78.4738 167.308 78.5398 167.577 78.6728L167.365 79.2288C167.177 79.1698 166.995 79.1398 166.82 79.1398C166.672 79.1398 166.551 79.1728 166.457 79.2388C166.363 79.3048 166.316 79.3978 166.316 79.5168C166.316 79.6498 166.363 79.7638 166.457 79.8598C166.551 79.9558 166.689 80.0038 166.87 80.0038C167.018 80.0038 167.305 79.9608 167.728 79.8748L167.849 80.5008Z" fill="white"/>
<path d="M173.128 86.9688H171.846V79.8748L173.128 79.7648V86.9688Z" fill="white"/>
<path d="M586.838 227.317H123.842" stroke="#F3D232" stroke-width="2.996" stroke-miterlimit="10"/>
<path d="M123.842 212.366V121.22H148.323L172.703 186.482L197.747 121.22H222.024V212.366H203.829V151.539L180.369 212.366H164.577L142.037 150.492V212.366H123.842Z" fill="white"/>
<path d="M238.992 212.366V121.22H306.099V139.645H257.954V155.053H300.835V173.602H257.954V193.2H306.099V212.366H238.992Z" fill="white"/>
<path d="M337.377 165.406H354.755C361.126 165.406 365.59 164.43 368.147 162.478C370.701 160.528 371.979 157.251 371.979 152.649C371.979 147.925 370.871 144.617 368.657 142.727C366.441 140.838 362.217 139.892 355.981 139.892H337.377V165.406ZM318.416 212.366V121.219H363.188C371.979 121.219 378.835 123.962 383.76 129.447C388.683 134.931 391.145 142.542 391.145 152.28C391.145 162.016 388.683 169.607 383.76 175.051C378.835 180.495 371.979 183.217 363.188 183.217H337.377V212.366H318.416Z" fill="white"/>
<path d="M487.284 177.055C486.262 188.478 481.806 197.618 473.919 204.479C466.03 211.341 455.971 214.771 443.738 214.771C429.938 214.771 418.932 210.426 410.721 201.737C402.509 193.047 398.404 181.41 398.404 166.825C398.404 152.241 402.509 140.593 410.721 131.882C418.932 123.173 429.938 118.818 443.738 118.818C455.8 118.818 465.774 122.095 473.662 128.647C481.55 135.201 485.989 143.798 486.976 154.438H466.328C465.067 148.851 462.537 144.638 458.738 141.805C454.938 138.969 449.939 137.552 443.738 137.552C436.174 137.552 430.201 140.162 425.824 145.379C421.445 150.597 419.256 157.745 419.256 166.825C419.256 175.864 421.435 182.982 425.798 188.179C430.16 193.376 436.139 195.974 443.738 195.974C450.313 195.974 455.603 194.31 459.607 190.983C463.611 187.655 465.919 183.013 466.533 177.055H487.284Z" fill="white"/>
<path d="M541.205 195.974C548.769 195.974 554.724 193.376 559.067 188.179C563.412 182.982 565.585 175.864 565.585 166.825C565.585 157.704 563.412 150.546 559.067 145.348C554.724 140.151 548.769 137.552 541.205 137.552C533.641 137.552 527.669 140.162 523.291 145.379C518.912 150.597 516.724 157.745 516.724 166.825C516.724 175.864 518.903 182.982 523.266 188.179C527.627 193.376 533.606 195.974 541.205 195.974ZM495.871 166.825C495.871 152.241 499.976 140.593 508.187 131.882C516.399 123.173 527.405 118.818 541.205 118.818C555.004 118.818 565.993 123.173 574.171 131.882C582.349 140.593 586.437 152.241 586.437 166.825C586.437 181.411 582.349 193.047 574.171 201.737C565.993 210.426 555.004 214.771 541.205 214.771C527.405 214.771 516.399 210.426 508.187 201.737C499.976 193.047 495.871 181.411 495.871 166.825Z" fill="white"/>
</svg>
