<svg width="239" height="74" viewBox="0 0 239 74" fill="none" xmlns="http://www.w3.org/2000/svg">
<path d="M148.679 63.3158L175.728 36.8493L148.679 10.3837L158.908 -0.00195312L196.571 36.8493L158.908 73.7006L148.679 63.3158Z" fill="#00AA9F"/>
<path d="M190.504 63.3158L217.553 36.8493L190.504 10.3837L200.733 -0.00195312L238.396 36.8493L200.733 73.7006L190.504 63.3158Z" fill="#00A5E2"/>
<path d="M107.544 63.3158L134.593 36.8493L107.544 10.3837L117.774 -0.00195312L155.437 36.8493L117.774 73.7006L107.544 63.3158Z" fill="#EE4A5B"/>
<path d="M66.4073 63.3158L93.4563 36.8493L66.4073 10.3837L76.6369 -0.00195312L114.3 36.8493L76.6369 73.7006L66.4073 63.3158Z" fill="#F2755E"/>
<path d="M26.5204 63.3158L53.4658 36.8493L26.5204 10.3836L36.7107 -0.00195312L74.2296 36.8493L36.7107 73.7006L26.5204 63.3158Z" fill="#FFD34B"/>
<path d="M9.3368 46.1881C14.4934 50.979 22.5552 50.6803 27.3435 45.521C32.1318 40.3617 31.8333 32.2955 26.6767 27.5047C21.5202 22.7138 13.4583 23.0125 8.67002 28.1718C3.88173 33.3311 4.18025 41.3973 9.3368 46.1881Z" fill="#FFD34B"/>
</svg>
