<svg width="50" height="50" viewBox="0 0 50 50" fill="none" xmlns="http://www.w3.org/2000/svg">
<rect width="50" height="50" rx="25" fill="#25D366"/>
<path d="M15.0001 35.7522C14.8001 35.7522 14.6101 35.6722 14.4701 35.5322C14.2801 35.3422 14.2002 35.0622 14.2702 34.8022L15.5302 30.0922C14.6902 28.5322 14.2501 26.7722 14.2501 24.9922C14.2501 19.0622 19.0701 14.2422 25.0001 14.2422C30.9301 14.2422 35.7501 19.0622 35.7501 24.9922C35.7501 30.9222 30.9301 35.7422 25.0001 35.7422C23.1901 35.7422 21.4202 35.2922 19.8402 34.4322L15.2002 35.7222C15.1302 35.7422 15.0701 35.7522 15.0001 35.7522ZM19.9401 32.8822C20.0701 32.8822 20.2001 32.9222 20.3201 32.9822C21.7301 33.8122 23.3501 34.2522 25.0001 34.2522C30.1001 34.2522 34.2501 30.1022 34.2501 25.0022C34.2501 19.9022 30.1001 15.7522 25.0001 15.7522C19.9001 15.7522 15.7501 19.9022 15.7501 25.0022C15.7501 26.6322 16.1801 28.2222 16.9901 29.6222C17.0901 29.7922 17.1201 30.0022 17.0701 30.1922L16.0701 33.9322L19.7501 32.9122C19.8101 32.8922 19.8801 32.8822 19.9401 32.8822Z" fill="white"/>
<path d="M27.7402 30.7603C27.1202 30.7603 26.4802 30.6203 25.8102 30.3303C25.1802 30.0603 24.5502 29.7003 23.9402 29.2503C23.3402 28.8103 22.7503 28.3103 22.2103 27.7703C21.6703 27.2203 21.1702 26.6403 20.7302 26.0403C20.2802 25.4103 19.9202 24.7903 19.6602 24.1803C19.3802 23.5203 19.2402 22.8703 19.2402 22.2503C19.2402 21.8103 19.3202 21.3903 19.4702 21.0003C19.6302 20.5903 19.8902 20.2203 20.2302 19.9003C20.8702 19.2703 21.7903 19.0403 22.5203 19.3903C22.7703 19.5003 22.9803 19.6803 23.1403 19.9203L24.3002 21.5503C24.4202 21.7103 24.5103 21.8803 24.5803 22.0503C24.6603 22.2503 24.7103 22.4503 24.7103 22.6403C24.7103 22.9003 24.6402 23.1603 24.5002 23.3903C24.4102 23.5403 24.2802 23.7203 24.1102 23.8903L23.9802 24.0303C24.0402 24.1103 24.1102 24.2103 24.2202 24.3303C24.4302 24.5703 24.6602 24.8303 24.9102 25.0803C25.1602 25.3203 25.4102 25.5603 25.6602 25.7703C25.7802 25.8703 25.8803 25.9503 25.9603 26.0003L26.1002 25.8603C26.2802 25.6803 26.4603 25.5403 26.6403 25.4503C26.9703 25.2403 27.4802 25.1903 27.9302 25.3803C28.0902 25.4403 28.2502 25.5303 28.4202 25.6503L30.0903 26.8303C30.3203 26.9903 30.5002 27.2103 30.6202 27.4603C30.7202 27.7103 30.7603 27.9303 30.7603 28.1603C30.7603 28.4603 30.6902 28.7503 30.5602 29.0303C30.4302 29.2903 30.2802 29.5203 30.1002 29.7303C29.7802 30.0803 29.4103 30.3403 29.0103 30.5103C28.6103 30.6803 28.1802 30.7603 27.7402 30.7603ZM21.7902 20.7403C21.7302 20.7403 21.5303 20.7403 21.2803 20.9903C21.0903 21.1703 20.9602 21.3603 20.8702 21.5703C20.7802 21.7803 20.7402 22.0203 20.7402 22.2603C20.7402 22.6803 20.8402 23.1303 21.0402 23.6103C21.2502 24.1103 21.5602 24.6403 21.9402 25.1703C22.3302 25.7003 22.7703 26.2303 23.2603 26.7203C23.7503 27.2003 24.2702 27.6503 24.8102 28.0503C25.3302 28.4303 25.8603 28.7303 26.3903 28.9603C27.1503 29.2903 27.8502 29.3703 28.4202 29.1303C28.6202 29.0503 28.8002 28.9103 28.9802 28.7303C29.0702 28.6303 29.1403 28.5303 29.2003 28.4003C29.2303 28.3303 29.2502 28.2503 29.2502 28.1803C29.2502 28.1603 29.2502 28.1303 29.2202 28.0703L27.5502 26.9103C27.4802 26.8603 27.4102 26.8203 27.3502 26.8003C27.3102 26.8203 27.2503 26.8503 27.1403 26.9603L26.7603 27.3403C26.4703 27.6303 26.0103 27.7103 25.6403 27.5803L25.4603 27.5003C25.2303 27.3803 24.9702 27.2003 24.6802 26.9503C24.4002 26.7103 24.1303 26.4603 23.8403 26.1803C23.5603 25.8903 23.3103 25.6203 23.0703 25.3403C22.8103 25.0303 22.6303 24.7803 22.5103 24.5703L22.4003 24.3103C22.3703 24.2103 22.3602 24.1003 22.3602 24.0003C22.3602 23.7203 22.4603 23.4703 22.6503 23.2703L23.0303 22.8803C23.1403 22.7703 23.1803 22.7103 23.2003 22.6703C23.1703 22.6003 23.1303 22.5403 23.0803 22.4703L21.9102 20.8203L21.7902 20.7403Z" fill="white"/>
</svg>
