<svg width="100" height="100" viewBox="0 0 100 100" fill="none" xmlns="http://www.w3.org/2000/svg">
<path d="M33.3334 70.834V85.4173M33.3334 14.584V29.1673M62.575 39.3048L64.775 43.7423C65.075 44.359 65.875 44.9507 66.55 45.0673L70.5375 45.734C73.0875 46.1632 73.6875 48.0257 71.85 49.8673L68.75 52.9923C68.4786 53.2997 68.2794 53.6639 68.1669 54.0583C68.0544 54.4526 68.0316 54.8672 68.1 55.2715L68.9875 59.1423C69.6875 62.2048 68.075 63.3923 65.3875 61.7882L61.65 59.559C61.2682 59.359 60.8436 59.2545 60.4125 59.2545C59.9815 59.2545 59.5569 59.359 59.175 59.559L55.4417 61.7882C52.7667 63.3882 51.1417 62.1923 51.8417 59.1423L52.7292 55.2715C52.7977 54.8672 52.7748 54.4526 52.6623 54.0583C52.5499 53.6639 52.3506 53.2997 52.0792 52.9923L48.9792 49.8673C47.1542 48.0257 47.7417 46.159 50.2917 45.734L54.2792 45.0673C54.6495 44.9824 54.9978 44.8206 55.3014 44.5923C55.6051 44.364 55.8573 44.0744 56.0417 43.7423L58.2375 39.3048C59.4375 36.9007 61.3875 36.9007 62.575 39.3048Z" stroke="black" stroke-width="5" stroke-linecap="round" stroke-linejoin="round"/>
<path d="M91.6667 36.9965C91.3875 30.5715 90.6084 26.3882 88.4167 23.0798C87.1702 21.1949 85.6069 19.5399 83.7959 18.1882C78.9375 14.584 72.0834 14.584 58.3667 14.584H41.6375C27.925 14.584 21.0667 14.584 16.2084 18.1882C14.4084 19.5215 12.8459 21.1757 11.5834 23.0798C9.39586 26.3882 8.6167 30.5715 8.33336 36.9965C8.2917 38.0923 9.23336 38.934 10.2709 38.934C16.0459 38.934 20.7292 43.8882 20.7292 50.0007C20.7292 56.1132 16.0459 61.0673 10.2709 61.0673C9.23336 61.0673 8.28753 61.909 8.33753 63.009C8.6167 69.4298 9.39586 73.6132 11.5875 76.9257C12.8344 78.8091 14.3977 80.4627 16.2084 81.8132C21.0667 85.4173 27.925 85.4173 41.6375 85.4173H58.3667C72.0792 85.4173 78.9375 85.4173 83.7959 81.8132C85.5959 80.4798 87.1584 78.8257 88.4209 76.9215C90.6084 73.6132 91.3875 69.4298 91.6667 63.0048V36.9965Z" stroke="black" stroke-width="5" stroke-linejoin="round"/>
</svg>
