<svg width="48" height="49" viewBox="0 0 48 49" fill="none" xmlns="http://www.w3.org/2000/svg">
<path d="M0 24.5C0 11.2452 10.7452 0.5 24 0.5C37.2548 0.5 48 11.2452 48 24.5C48 37.7548 37.2548 48.5 24 48.5C10.7452 48.5 0 37.7548 0 24.5Z" fill="#E4F6FD"/>
<path fill-rule="evenodd" clip-rule="evenodd" d="M27.0002 16.25C27.0002 16.0511 27.0792 15.8603 27.2198 15.7197C27.3605 15.579 27.5512 15.5 27.7502 15.5H32.2502C32.4491 15.5 32.6398 15.579 32.7805 15.7197C32.9211 15.8603 33.0002 16.0511 33.0002 16.25V20.75C33.0002 20.9489 32.9211 21.1397 32.7805 21.2803C32.6398 21.421 32.4491 21.5 32.2502 21.5C32.0512 21.5 31.8605 21.421 31.7198 21.2803C31.5792 21.1397 31.5002 20.9489 31.5002 20.75V18.06L26.7802 22.78C26.7115 22.8537 26.6287 22.9128 26.5367 22.9538C26.4447 22.9948 26.3454 23.0168 26.2447 23.0186C26.144 23.0204 26.0439 23.0018 25.9506 22.9641C25.8572 22.9264 25.7723 22.8703 25.7011 22.799C25.6299 22.7278 25.5738 22.643 25.536 22.5496C25.4983 22.4562 25.4798 22.3562 25.4816 22.2555C25.4833 22.1548 25.5054 22.0555 25.5464 21.9635C25.5874 21.8715 25.6465 21.7887 25.7202 21.72L30.4402 17H27.7502C27.5512 17 27.3605 16.921 27.2198 16.7803C27.0792 16.6397 27.0002 16.4489 27.0002 16.25Z" fill="#00A5E2"/>
<path fill-rule="evenodd" clip-rule="evenodd" d="M13.5 17C13.5 16.2044 13.8161 15.4413 14.3787 14.8787C14.9413 14.3161 15.7044 14 16.5 14H17.872C18.732 14 19.482 14.586 19.691 15.42L20.796 19.843C20.8855 20.201 20.8675 20.5775 20.744 20.9252C20.6206 21.273 20.3972 21.5766 20.102 21.798L18.809 22.768C18.674 22.869 18.645 23.017 18.683 23.12C19.2474 24.6549 20.1386 26.0487 21.2949 27.2051C22.4513 28.3614 23.8451 29.2526 25.38 29.817C25.483 29.855 25.63 29.826 25.732 29.691L26.702 28.398C26.9234 28.1028 27.227 27.8794 27.5748 27.756C27.9225 27.6325 28.299 27.6145 28.657 27.704L33.08 28.809C33.914 29.018 34.5 29.768 34.5 30.629V32C34.5 32.7956 34.1839 33.5587 33.6213 34.1213C33.0587 34.6839 32.2956 35 31.5 35H29.25C20.552 35 13.5 27.948 13.5 19.25V17Z" fill="#00A5E2"/>
</svg>
