<svg width="28" height="28" viewBox="0 0 28 28" fill="none" xmlns="http://www.w3.org/2000/svg">
<path d="M0 14C0 6.26801 6.26801 0 14 0C21.732 0 28 6.26801 28 14C28 21.732 21.732 28 14 28C6.26801 28 0 21.732 0 14Z" fill="#E4F6FD"/>
<path fill-rule="evenodd" clip-rule="evenodd" d="M14 7.5C10.41 7.5 7.5 10.41 7.5 14C7.5 17.59 10.41 20.5 14 20.5C17.59 20.5 20.5 17.59 20.5 14C20.5 10.41 17.59 7.5 14 7.5ZM14.5 10C14.5 9.86739 14.4473 9.74021 14.3536 9.64645C14.2598 9.55268 14.1326 9.5 14 9.5C13.8674 9.5 13.7402 9.55268 13.6464 9.64645C13.5527 9.74021 13.5 9.86739 13.5 10V14C13.5 14.276 13.724 14.5 14 14.5H17C17.1326 14.5 17.2598 14.4473 17.3536 14.3536C17.4473 14.2598 17.5 14.1326 17.5 14C17.5 13.8674 17.4473 13.7402 17.3536 13.6464C17.2598 13.5527 17.1326 13.5 17 13.5H14.5V10Z" fill="#00A5E2"/>
</svg>
