<svg width="28" height="28" viewBox="0 0 28 28" fill="none" xmlns="http://www.w3.org/2000/svg">
<path d="M0 14C0 6.26801 6.26801 0 14 0C21.732 0 28 6.26801 28 14C28 21.732 21.732 28 14 28C6.26801 28 0 21.732 0 14Z" fill="#F8FAFA"/>
<path d="M20.1663 13.9996H11.9297M9.02234 13.9996H7.83301M9.02234 13.9996C9.02234 13.6142 9.17546 13.2445 9.44801 12.9719C9.72057 12.6994 10.0902 12.5463 10.4757 12.5463C10.8611 12.5463 11.2308 12.6994 11.5033 12.9719C11.7759 13.2445 11.929 13.6142 11.929 13.9996C11.929 14.385 11.7759 14.7547 11.5033 15.0273C11.2308 15.2998 10.8611 15.4529 10.4757 15.4529C10.0902 15.4529 9.72057 15.2998 9.44801 15.0273C9.17546 14.7547 9.02234 14.385 9.02234 13.9996ZM20.1663 18.4043H16.3343M16.3343 18.4043C16.3343 18.7898 16.1809 19.1599 15.9082 19.4325C15.6356 19.7051 15.2659 19.8583 14.8803 19.8583C14.4949 19.8583 14.1252 19.7045 13.8527 19.4319C13.5801 19.1594 13.427 18.7897 13.427 18.4043M16.3343 18.4043C16.3343 18.0187 16.1809 17.6493 15.9082 17.3767C15.6356 17.1041 15.2659 16.9509 14.8803 16.9509C14.4949 16.9509 14.1252 17.1041 13.8527 17.3766C13.5801 17.6492 13.427 18.0188 13.427 18.4043M13.427 18.4043H7.83301M20.1663 9.59493H18.0963M15.189 9.59493H7.83301M15.189 9.59493C15.189 9.20949 15.3421 8.83983 15.6147 8.56727C15.8872 8.29472 16.2569 8.1416 16.6423 8.1416C16.8332 8.1416 17.0222 8.17919 17.1985 8.25223C17.3748 8.32527 17.535 8.43232 17.67 8.56727C17.805 8.70223 17.912 8.86244 17.985 9.03877C18.0581 9.21509 18.0957 9.40408 18.0957 9.59493C18.0957 9.78579 18.0581 9.97478 17.985 10.1511C17.912 10.3274 17.805 10.4876 17.67 10.6226C17.535 10.7576 17.3748 10.8646 17.1985 10.9376C17.0222 11.0107 16.8332 11.0483 16.6423 11.0483C16.2569 11.0483 15.8872 10.8951 15.6147 10.6226C15.3421 10.35 15.189 9.98038 15.189 9.59493Z" stroke="#00A5E2" stroke-width="1.2" stroke-miterlimit="10" stroke-linecap="round"/>
</svg>
