<svg width="40" height="40" viewBox="0 0 40 40" fill="none" xmlns="http://www.w3.org/2000/svg">
<path d="M20 38.75C30.3553 38.75 38.75 30.3553 38.75 20C38.75 9.64466 30.3553 1.25 20 1.25C9.64466 1.25 1.25 9.64466 1.25 20C1.25 30.3553 9.64466 38.75 20 38.75Z" fill="#699635"/>
<path d="M19.8125 16.6875C19.75 16.125 20.0625 15.5625 20.625 15.6875C21.0625 15.75 21.5625 16.1875 21.3125 16.625C20.9375 17.3125 19.9375 17.3125 19.3125 17.6875C19.375 18.0625 21.1875 17.625 21.5 17.625C21.8125 17.625 22.125 17.75 21.9375 18.125C21.75 18.5 21.125 18.5 20.75 18.5625C20.375 18.625 19.75 18.625 19.5625 18.9375C19.1875 19.4375 19.9375 19.5 20.1875 19.625C20.8125 19.9375 19.8125 20.25 19.5625 20.1875C18.625 20 18.4375 19.5 17.875 18.875C17.3125 19.625 15.5625 21.3125 15.1875 19.5625C14.5625 19.8125 13.9375 20.125 13.25 20.1875C13.5625 19.75 14.1875 19.5625 14.6875 19.3125C15.3125 19 15.3125 18.4375 15.6875 17.9375C15.8125 18.125 15.6875 18.375 15.75 18.625C16.25 18.375 16.875 17.875 16.625 17.25C16.625 17.1875 15.875 15.6875 16.5 15.9375C17.0625 16.1875 16.875 16.75 17 17.1875C17.1875 18 16.8125 18.4375 16.1875 18.9375C15.9375 19.125 15.25 19.875 16.0625 19.875C16.625 19.875 17.125 19.25 17.4375 18.875C17.8125 18.375 17.6875 17.875 17.4375 17.3125C17.25 16.875 16.8125 15.9375 17.375 15.625C17.8125 16.3125 18 17.125 18.1875 17.9375C18.3125 18.625 18.4375 19.3125 19.1875 19.5C19.125 19 19.4375 18.625 19.875 18.4375C19.5625 18.1875 17.8125 18.5 18.5 17.5625C18.5625 17.125 19.8125 16.9375 19.8125 16.6875Z" fill="white"/>
<path d="M10.25 18.9996C10.5625 19.8746 11.625 19.5621 12.25 19.3121C13.25 18.8121 13.25 18.0621 13.25 17.0621C12.875 17.2496 12.9375 17.9371 12.8125 18.2496C12.5625 18.7496 11.75 19.1871 11.1875 19.1246C10.375 18.9996 10 17.6246 10.625 17.1246C10.75 17.5621 10.4375 18.4996 11.1875 18.5621C11.75 18.6246 12.875 17.9371 12.6875 17.3121C11.9375 17.5621 11.5 17.3121 11.75 16.4996C11.9375 15.7496 12.6875 16.3121 13 16.6871C14.1875 15.9996 12.0625 13.3746 13.3125 12.6871C13.5625 13.1246 13.9375 13.6871 13.625 14.1246C13.25 14.6246 13.625 15.6871 13.6875 16.2496C14.3125 15.6871 13.8125 16.6871 14.3125 16.7496C14.625 16.8121 14.75 15.9996 14.9375 15.9996C15 16.1871 15 16.7496 15.3125 16.6871C15.6875 16.5621 15.25 16.0621 15.625 15.9371C15.75 16.2496 15.6875 17.1871 15.25 17.1246C14.875 17.0621 14.9375 16.8121 14.5 17.0621C14.125 17.2496 14 17.0621 13.75 16.8746C13.6875 17.6246 13.9375 18.4371 13.5 19.1246C13.125 19.6871 12.375 19.9996 11.75 20.1246C10.125 20.4371 9.68751 18.8121 10.25 17.4996C10.375 17.8746 10.125 18.5621 10.25 18.9996ZM25.5 19.3121C25.8125 20.1246 26.4375 18.4371 26.625 18.1871C27.125 17.4371 27.875 19.3746 28.1875 18.1246C28.375 17.3121 28.125 16.4996 28.0625 15.6871C28 15.1246 27.8125 14.6246 27.4375 14.1871C27.0625 13.6871 26.6875 13.2496 26.875 12.6246C27.5 12.8746 27.5 13.3746 27.8125 13.8746C27.875 13.4996 27.625 12.9996 27.875 12.6871C28.1875 12.2496 28.4375 13.4371 28.4375 13.5621C28.5 13.8746 28.1875 13.9996 28.375 14.4996C28.5 14.8746 28.75 15.2496 29 15.5621C28.9375 15.1871 28.375 12.6246 29 12.6246C29.1875 12.6246 29.375 13.3746 29.375 13.4996C29.5 13.8746 29.25 14.1871 29.25 14.6246C29.1875 15.3746 29.3125 16.2496 29.8125 16.8121C30.0625 17.1246 31 18.2496 30.5 18.6246C30.125 18.1871 29.875 17.6871 29.5625 17.2496C29.5625 17.7496 29.6875 18.3121 29.4375 18.6871C29.1875 18.5621 29.3125 17.7496 29.3125 17.5621C29.3125 16.8746 28.875 16.3121 28.5 15.7496C28.375 16.6871 29.125 18.4371 28.25 19.1246C27.6875 19.6246 26.9375 18.4996 26.75 18.9371C26.5625 19.2496 26.125 20.3746 25.625 20.2496C25 20.1246 24.5625 18.3746 25.25 18.1871C25.3125 18.4996 25.3125 18.9371 25.5 19.3121Z" fill="white"/>
<path d="M12.1251 15.0622C12.5626 15.1247 12.1251 13.6246 12.1251 13.3746C12.1876 13.1246 12.3751 12.9997 12.5001 13.2497C12.6876 13.6247 12.6876 14.0622 12.7501 14.4372C12.7501 14.7497 12.8126 15.1247 12.5626 15.3747C12.1876 15.7497 11.6876 15.5622 11.5001 15.0622C10.6251 15.8122 11.7501 17.1247 11.0001 17.8747C10.8751 17.1872 11.0001 16.4371 10.7501 15.8121C10.6251 15.4996 10.0626 15.6247 10.0001 15.0622C10.0001 14.8122 10.1876 14.1246 9.93755 13.9371C9.81255 14.1871 9.68755 16.1247 9.06255 15.5622C8.56255 15.1871 8.68755 13.9372 8.87505 13.4371C9.25005 13.6247 8.81255 14.9997 9.31255 15.0622C9.56255 15.1247 9.62505 14.0622 9.68755 13.8747C9.87505 13.5622 10.5001 12.6872 10.3751 13.5622C10.3126 13.9372 10.0001 15.1247 10.7501 15.0622C10.6876 14.4372 10.6251 13.8122 10.5001 13.1872C10.4376 12.8747 10.6251 12.2496 10.8751 12.8121C11.0626 13.1871 10.9376 13.3746 10.8751 13.7497C10.8126 14.1872 11.0001 14.6247 11.0626 14.9997C11.4376 14.6872 10.9376 13.4996 11.2501 12.9996C12.0001 13.4371 11.1876 14.9372 12.1251 15.0622ZM20.1876 15.1871C19.8751 15.6246 19.3126 15.2496 19.0626 14.9371C18.7501 15.3121 18.1251 15.9372 17.6251 15.4372C17.2501 15.0622 17.6876 14.3747 17.3751 14.0622C17.1876 14.3747 16.8751 15.8746 16.3126 15.1871C16.0001 14.8121 15.5626 13.4997 16.2501 13.1872C16.1876 13.6872 16.0626 14.2497 16.3751 14.6872C16.6876 15.1247 17.0001 13.9997 17.1251 13.7497C17.3126 13.3121 17.9376 12.5622 17.8126 13.4997C17.7501 13.8747 17.6251 14.7497 18.0001 14.9997C18.2501 15.1872 18.5626 14.8747 18.6876 14.6872C18.9376 14.3747 18.8126 13.8747 18.7501 13.4997C18.6876 13.1872 18.5626 12.8121 18.7501 12.4996C19.0001 12.1246 19.1876 12.9997 19.1876 13.1872C19.1876 13.3747 19.4376 15.3122 19.8751 14.6872C20.3126 14.1247 19.1251 12.8747 19.9376 12.5622C20.2501 12.4372 20.8126 13.6871 20.1876 13.3121C20.3751 13.8746 20.6251 14.6871 20.1876 15.1871ZM22.5626 15.9372C22.6251 16.7497 23.3126 18.9997 22.3751 19.4997C22.2501 19.2497 22.3751 18.8747 22.4376 18.5622C22.5001 17.9997 22.3751 17.4372 22.3126 16.9372C22.1876 15.7497 22.0626 14.8746 21.2501 13.9371C21.0626 13.6871 20.7501 13.4996 20.6876 13.1246C20.6876 12.9996 20.6251 12.4372 20.8751 12.5622C21.0626 12.6247 22.1251 13.5622 21.5626 13.5622C21.6251 13.6872 21.8751 14.1872 22.0001 14.1872C22.0001 13.8747 21.6251 12.9371 22.0001 12.7496C22.3126 12.5621 22.6876 13.7496 22.5626 13.9996C22.4376 14.3121 22.4376 14.4996 22.5626 14.9371C22.6876 15.4371 23.0001 15.8747 23.2501 16.3122C23.6251 16.9372 24.3751 17.8121 24.1876 18.6246C23.8126 18.4371 23.5626 17.5622 23.3751 17.1872C23.2501 16.8747 23.1251 16.5622 22.9376 16.3122C22.8751 16.2497 22.5001 15.7497 22.5626 16.0622V15.9372ZM31.25 17.1247C31.3126 18.4372 30.875 20.1247 29.25 20.1247C29.25 19.7497 30.0625 19.3747 30.3125 19.1872C30.9375 18.6872 30.875 17.7497 30.8125 17.0622C30.75 16.1246 30.6875 15.1871 30.5 14.2496C30.4375 13.6871 30.125 12.8746 30.625 12.4996C30.9375 12.7496 31.3751 13.4371 31.1876 13.6871C30.8751 14.0621 31.1875 16.8747 31.25 17.1247Z" fill="white"/>
<path d="M23.25 19.9367C24.875 18.9992 24.375 16.9992 24.25 15.4367C24.1875 14.9992 24.1875 14.5617 24.125 14.1242C24.125 13.8117 23.875 13.3742 24 13.0617C24.3125 12.2492 24.5625 12.9992 24.625 13.4992C24.6875 13.8117 24.4375 13.8742 24.5 14.1242C24.5625 14.6242 24.5625 15.1242 24.625 15.6242C24.6875 16.4367 24.8125 17.2492 24.75 17.9992C24.625 19.1867 24 20.4992 22.5625 20.2492C22.625 20.1242 23.0625 20.0617 23.25 19.9367ZM25.875 16.8117C25.9375 17.4367 26.1875 18.5617 25.875 19.1242C25.625 19.4992 25.625 18.8742 25.5625 18.8117C25.5 18.3117 25.5 17.8117 25.5 17.2492C25.375 15.8742 24.9375 14.4992 24.9375 13.1867C24.9375 11.4992 26.375 14.1242 25.5625 13.9992C25.625 14.9367 25.75 15.8742 25.875 16.8117ZM15.6875 13.6242C15.8125 13.9367 14.25 14.7492 14.0625 14.7492C14 14.4367 14.75 13.9992 14.9375 13.8742C15.125 13.6867 15.25 13.6867 15.1875 13.4367C15.0625 13.1867 15.125 12.7492 15.4375 12.6242C16.0625 12.4367 15.625 13.3742 15.6875 13.6242ZM9.25 19.1867C9.25 19.6867 9.4375 19.4367 9.6875 19.3117C9.8125 19.5617 9.5 20.2492 9.1875 19.9367C8.75 19.4992 9.125 18.4992 9.3125 18.0617C9.4375 18.3742 9.1875 18.8742 9.25 19.1867ZM26.875 15.3117C26.9375 15.0617 26.75 14.8117 26.9375 14.5617C27.1875 14.2492 27.4375 14.6242 27.3125 14.7492C27.1875 14.8742 27 14.6242 27 14.9992C27 15.1867 27.125 15.5617 26.9375 15.7492C26.8125 15.6867 26.25 14.8742 26.3125 14.7492C26.5625 14.4992 26.8125 15.2492 26.875 15.3117ZM10.5625 16.3742C10.4375 16.6242 9 17.4367 8.9375 17.2492C8.9375 17.0617 10.75 15.9992 10.5625 16.3742ZM21.1875 19.5617C21 20.1242 21.8125 19.6242 22 19.5617C21.75 19.9992 20.875 20.3742 21 19.5617C20.9375 19.5617 20.8125 19.6242 20.75 19.6242C20.625 19.4992 21.375 18.9992 21.1875 19.5617ZM28 19.3742C28.1875 19.3742 28.5 19.9367 28.3125 20.0617C28.1875 20.1867 27.625 20.2492 27.9375 19.9992C28.3125 19.6242 28 19.3742 28 19.3742ZM19.1875 16.1867C19.25 16.0617 19.25 15.8742 19.3125 15.7492C19.9375 16.2492 18.3125 17.0617 18.625 15.8742C18.75 15.9992 18.75 16.1867 18.875 16.2492C18.875 16.1242 18.9375 15.9367 18.9375 15.8117C19.0625 15.9367 19.0625 16.1242 19.1875 16.1867ZM26.5 16.9992C26.3125 16.7492 27.4375 16.0617 27.625 15.9367C27.75 16.1242 26.875 16.8117 26.5 16.9992ZM30 14.4992C29.875 14.1242 29.5 13.3742 29.875 13.0617C30.125 13.2492 30.25 14.1867 30 14.4992ZM23.1875 13.2492C23.125 13.1242 22.9375 12.9992 22.9375 12.8117C23 12.5617 23.125 12.6242 23.25 12.7492C23.4375 12.9992 23.5625 13.6867 23.25 13.8742C23.25 13.6867 23.3125 13.4367 23.1875 13.2492ZM15.5625 14.9367C15.5625 15.3117 14.9375 15.6867 14.875 15.1867C14.8125 14.9992 15.125 14.3117 15.25 14.4992C15 15.0617 15 15.2492 15.5625 14.9367Z" fill="white"/>
<path d="M23.375 14.2499C23.625 14.8749 23.5 14.3124 23.75 14.1874C24.1875 14.9999 22.8125 14.8124 23.125 14.3124C23.1875 14.3749 23.25 14.4999 23.25 14.5624C23.3125 14.4999 23.3125 14.3749 23.375 14.2499ZM27.375 17.1249C27.0625 16.8749 27.4375 16.5624 27.625 16.8749C27.75 17.0624 27.75 17.5624 27.5 17.6874C27.5 17.4999 27.5625 17.2499 27.375 17.1249ZM14.5625 18.4999C14.5625 18.3749 14.5 17.4374 14.6875 17.5624C14.9375 17.6874 14.875 18.3749 14.5625 18.4999ZM11.9375 12.6249C12 12.8124 12.0625 13.0624 12.1875 12.7499C12.6875 13.3124 10.9375 13.1249 11.5625 12.5624C11.5625 12.6249 11.6875 12.9999 11.9375 12.6249ZM18.3125 13.9999C18.3125 13.7499 17.9375 12.6874 18.25 12.6874C18.625 12.7499 18.5625 13.6874 18.3125 13.9999ZM9.56252 13.4374C9.37502 13.3749 9.68752 13.0624 9.56252 12.8124C9.43752 12.8749 9.31252 12.6874 9.43752 12.5624C9.93752 12.1874 9.75002 13.4374 9.56252 13.4374ZM25.75 26.1249L25.5 25.3749L25.25 26.1249H11.5625C11.5625 26.1249 11.6875 27.2499 13.0625 27.2499H25.1875V28.1249H28.5V26.1249H25.75ZM27.875 27.6249H25.625V26.9999H27.875V27.6249Z" fill="white"/>
</svg>
