<svg width="40" height="40" viewBox="0 0 40 40" fill="none" xmlns="http://www.w3.org/2000/svg">
<path d="M20 1.25C11.8125 1.25 4.875 6.5 2.3125 13.75H37.6875C35.125 6.5 28.1875 1.25 20 1.25Z" fill="#ED4C5C"/>
<path d="M20 38.75C28.1875 38.75 35.125 33.5625 37.6875 26.25H2.3125C4.875 33.5625 11.8125 38.75 20 38.75Z" fill="#3E4347"/>
<path d="M2.3125 13.75C1.625 15.6875 1.25 17.8125 1.25 20C1.25 22.1875 1.625 24.3125 2.3125 26.25H37.6875C38.375 24.3125 38.75 22.1875 38.75 20C38.75 17.8125 38.375 15.6875 37.6875 13.75H2.3125Z" fill="#F9F9F9"/>
<path d="M19.125 15.6875C19.3125 15.5625 19.4375 15.6875 19.5625 15.8125C19.625 15.9375 19.625 16.3125 19.5 16.75C19.4375 17 19.25 17.25 19.125 17.4375C19.375 17.4375 19.6875 17.375 20 17.25C20.3125 17.375 20.5625 17.4375 20.875 17.4375C20.75 17.1875 20.625 16.6875 20.6875 16.3125C20.6875 15.75 20.625 15.5625 20.5 15.4375C20.375 15.3125 20.0625 15.25 19.875 15.25C19.75 15.25 19.75 15.3125 19.75 15.3125C19.5 15.25 19.3125 15.25 19.1875 15.3125C19.0625 15.4375 19.0625 15.75 19.125 15.6875Z" fill="white"/>
<path d="M23.3125 17.5625C23.1875 16.875 22.5 17.0625 21.9375 17.375C21.6875 17.5 21.4375 17.625 21.1875 17.625H21C20.6875 17.625 20.3125 17.5625 20 17.4375C19.6875 17.5625 19.3125 17.625 19 17.625H18.875C18.5625 17.625 18.3125 17.5 18.0625 17.3125C17.5625 17.0625 16.875 16.875 16.6875 17.5C16.8125 17.4375 16.9375 17.3125 17 17.3125L16.75 23.3125L16.875 23.1875L17.125 17.375C17.1875 17.4375 17.4375 17.6875 17.5 17.6875L17.3125 22.75L17.5 22.5625L17.6875 17.75C17.75 17.8125 17.9375 17.9375 18 18L17.8125 22.1875L18.3125 21.75L18.8125 20.0625C18.375 19.125 18.4375 18.3125 18.4375 18.3125H18.5625C18.875 18.3125 19.5625 18.125 19.875 17.9375C19.9375 17.9375 19.9375 17.875 20 17.875C20 17.9375 20.0625 17.9375 20.125 18C20.4375 18.1875 21.125 18.375 21.4375 18.375H21.5625C21.5625 18.375 21.625 19.1875 21.1875 20.125L21.625 21.75L22.125 22.1875L21.9375 18.0625C22 18 22.125 17.875 22.25 17.8125L22.4375 22.5L22.625 22.6875L22.4375 17.6875C22.5 17.625 22.75 17.4375 22.8125 17.375L23.0625 23.125L23.1875 23.25L22.9375 17.3125C23 17.375 23.1875 17.5 23.3125 17.5625Z" fill="white"/>
<path d="M19.4375 18.5626V21.0001C19.4375 21.0001 19.4375 21.0626 19.5 21.0626C19.5625 21.1876 19.6875 21.2501 19.75 21.3751L19.9375 21.5626L20.125 21.3751L20.4375 21.0626V18.6876C20.25 18.6251 20.0625 18.5626 19.9375 18.4376C19.875 18.3751 19.6875 18.4376 19.4375 18.5626Z" fill="white"/>
<path d="M22.6875 23.6875C22.6875 23.375 22.375 23.375 22.125 23.4375C22.0625 23.4375 22.0625 23.4375 22 23.5L21.625 22.125L23.6875 24.125L23.4375 17.625C23.375 16.625 22.5625 16.875 22 17.25C21.6875 17.4375 21.4375 17.5625 21.125 17.5625C20.6875 16.8125 20.9375 15.8125 20.625 15.5625C20.5 15.4375 20.0625 15.25 19.75 15.25C19.5625 15.25 19.625 15.375 19.625 15.375C19.3125 15.3125 19.0625 15.3125 18.9375 15.4375C18.8125 15.5 18.9375 16.125 19 16C19.1875 15.8125 19.25 15.875 19.375 16.0625C19.5 16.25 19.25 17 18.9375 17.5625C18.5625 17.5625 18.25 17.4375 17.9375 17.25C17.3125 16.875 16.5 16.6875 16.5 17.625L16.25 24.0625L18.3125 22.125L17.9375 23.4375C17.875 23.4375 17.875 23.4375 17.8125 23.375C17.5625 23.3125 17.25 23.3125 17.25 23.625C16.875 23.5625 16.75 24.125 17.125 24.25C17.125 24.4375 17.125 24.5625 17.375 24.5625C17.9375 24.75 18.9375 24.8125 19.9375 24.8125C20.9375 24.8125 21.9375 24.75 22.5 24.5625C22.75 24.5 22.75 24.375 22.75 24.25C23.25 24.125 23.0625 23.5625 22.6875 23.6875ZM19.5 21C19.5 20.9375 19.5 20.9375 19.5 21L19.4375 20.9375V18.5625C19.6875 18.5 19.875 18.4375 20 18.3125C20.125 18.4375 20.3125 18.5 20.5 18.5625V20.9375C20.375 21.0625 20.3125 21.1875 20.1875 21.25L20 21.4375L19.8125 21.25C19.6875 21.1875 19.625 21.0625 19.5 21ZM19.5 16.8125C19.625 16.375 19.625 16 19.5625 15.875C19.4375 15.75 19.3125 15.625 19.125 15.75C19.0625 15.8125 19.0625 15.5 19.1875 15.4375C19.3125 15.375 19.5 15.375 19.75 15.4375C19.75 15.4375 19.75 15.3125 19.875 15.375C20.0625 15.375 20.4375 15.5 20.5 15.5625C20.5625 15.625 20.6875 15.875 20.6875 16.4375C20.6875 16.8125 20.75 17.3125 20.875 17.5625C20.625 17.5625 20.3125 17.5 20 17.375C19.6875 17.5 19.4375 17.5625 19.125 17.5625C19.25 17.3125 19.4375 17.0625 19.5 16.8125ZM17.875 22.375L18.0625 18.1875C18 18.125 17.875 18 17.75 17.9375L17.5 22.6875L17.3125 22.875L17.5 17.8125C17.4375 17.75 17.1875 17.5625 17.125 17.5L16.875 23.3125L16.75 23.4375L17 17.4375C16.9375 17.4375 16.75 17.5 16.6875 17.625C16.875 17 17.5625 17.1875 18.0625 17.5C18.3125 17.6875 18.625 17.75 18.875 17.8125H19C19.3125 17.8125 19.625 17.75 20 17.625C20.375 17.75 20.6875 17.8125 21 17.8125H21.1875C21.4375 17.75 21.6875 17.6875 21.9375 17.5625C22.5 17.25 23.1875 17.0625 23.3125 17.75C23.1875 17.6875 23 17.5625 22.9375 17.5625L23.1875 23.5L23.0625 23.375L22.8125 17.5C22.75 17.5625 22.5 17.8125 22.4375 17.8125L22.625 22.8125L22.4375 22.625L22.25 17.9375C22.1875 18 22 18.125 21.9375 18.1875L22.125 22.3125L21.625 21.875L21.1875 20.25C21.625 19.3125 21.5625 18.5 21.5625 18.5H21.4375C21.125 18.5 20.4375 18.375 20.125 18.125C20.0625 18.125 20.0625 18.0625 20 18C20 18 19.9375 18.0625 19.875 18.0625C19.5625 18.25 18.875 18.4375 18.5625 18.4375H18.4375C18.4375 18.4375 18.375 19.25 18.8125 20.1875L18.3125 21.875L17.875 22.375ZM20 23.625H19.3125L19.75 21.5C19.8125 21.5625 19.875 21.625 20 21.6875C20.0625 21.625 20.1875 21.5625 20.25 21.5L20.75 23.625H20Z" fill="#C09300"/>
</svg>
