<svg width="40" height="40" viewBox="0 0 40 40" fill="none" xmlns="http://www.w3.org/2000/svg">
<path d="M1.25 20C1.25 28.1875 6.5 35.125 13.75 37.6875V2.3125C6.5 4.875 1.25 11.8125 1.25 20Z" fill="#ED4C5C"/>
<path d="M20 1.25C17.8125 1.25 15.6875 1.625 13.75 2.3125V13.75H37.6875C35.125 6.5 28.1875 1.25 20 1.25Z" fill="#699635"/>
<path d="M37.6875 13.75H13.75V26.25H37.6875C38.375 24.3125 38.75 22.1875 38.75 20C38.75 17.8125 38.375 15.6875 37.6875 13.75Z" fill="#F9F9F9"/>
<path d="M13.75 26.25V37.6875C15.6875 38.375 17.8125 38.75 20 38.75C28.1875 38.75 35.125 33.5625 37.6875 26.25H13.75Z" fill="#3E4347"/>
</svg>
