<svg width="1400" height="60" viewBox="0 0 1400 60" fill="none" xmlns="http://www.w3.org/2000/svg">
<path d="M-17.533 59.9999V30.8735C-17.533 20.7756 -9.34709 12.5898 0.750137 12.5898C10.0801 12.5898 17.778 19.5768 18.8951 28.6043H8.44644C7.46838 25.2787 4.39355 22.8511 0.750137 22.8511C-3.11432 22.8511 -6.44495 25.6171 -7.13995 29.4203C-7.22744 29.8997 -7.27017 30.3864 -7.27017 30.8735L-7.26667 49.322C-10.2971 53.1006 -13.7203 56.6593 -17.533 59.9999Z" fill="#f9a41a"/>
<path d="M31.1441 0V29.1264C31.1441 39.2243 22.9583 47.41 12.861 47.41C3.53107 47.41 -4.16678 40.4231 -5.28394 31.3955H5.16474C6.1428 34.7211 9.21763 37.1488 12.861 37.1488C16.7255 37.1488 20.0561 34.3828 20.7511 30.5796C20.8386 30.1002 20.8813 29.6135 20.8813 29.1264L20.8778 10.6779C23.9083 6.89929 27.3315 3.3406 31.1441 0Z" fill="#f9a41a"/>
<path d="M35.0396 0V29.1264C35.0396 39.2243 43.2254 47.41 53.3226 47.41C62.6526 47.41 70.3504 40.4231 71.4676 31.3955H61.0189C60.0409 34.7211 56.9661 37.1488 53.3226 37.1488C49.4582 37.1488 46.1276 34.3828 45.4326 30.5796C45.3451 30.1002 45.3023 29.6135 45.3023 29.1264L45.3058 10.6779C42.2754 6.89929 38.8522 3.3406 35.0396 0Z" fill="#f9a41a"/>
<path d="M83.7165 59.9999V30.8735C83.7165 20.7756 75.5307 12.5898 65.4334 12.5898C56.1035 12.5898 48.4056 19.5768 47.2885 28.6043H57.7371C58.7152 25.2787 61.79 22.8511 65.4334 22.8511C69.2979 22.8511 72.6285 25.6171 73.3235 29.4203C73.411 29.8997 73.4537 30.3864 73.4537 30.8735L73.4502 49.322C76.4807 53.1006 79.9038 56.6593 83.7165 59.9999Z" fill="#f9a41a"/>
<path d="M87.6113 59.9999V30.8735C87.6113 20.7756 95.7972 12.5898 105.894 12.5898C115.224 12.5898 122.922 19.5768 124.039 28.6043H113.591C112.613 25.2787 109.538 22.8511 105.894 22.8511C102.03 22.8511 98.6993 25.6171 98.0043 29.4203C97.9168 29.8997 97.8741 30.3864 97.8741 30.8735L97.8776 49.322C94.8472 53.1006 91.424 56.6593 87.6113 59.9999Z" fill="#f9a41a"/>
<path d="M136.288 0V29.1264C136.288 39.2243 128.102 47.41 118.005 47.41C108.675 47.41 100.977 40.4231 99.8601 31.3955H110.309C111.287 34.7211 114.362 37.1488 118.005 37.1488C121.87 37.1488 125.2 34.3828 125.895 30.5796C125.983 30.1002 126.025 29.6135 126.025 29.1264L126.022 10.6779C129.052 6.89929 132.475 3.3406 136.288 0Z" fill="#f9a41a"/>
<path d="M140.184 0V29.1264C140.184 39.2243 148.37 47.41 158.467 47.41C167.797 47.41 175.495 40.4231 176.612 31.3955H166.163C165.185 34.7211 162.11 37.1488 158.467 37.1488C154.602 37.1488 151.272 34.3828 150.577 30.5796C150.489 30.1002 150.447 29.6135 150.447 29.1264L150.45 10.6779C147.42 6.89929 143.997 3.3406 140.184 0Z" fill="#f9a41a"/>
<path d="M188.861 59.9999V30.8735C188.861 20.7756 180.675 12.5898 170.578 12.5898C161.248 12.5898 153.55 19.5768 152.433 28.6043H162.881C163.859 25.2787 166.934 22.8511 170.578 22.8511C174.442 22.8511 177.773 25.6171 178.468 29.4203C178.555 29.8997 178.598 30.3864 178.598 30.8735L178.594 49.322C181.625 53.1006 185.048 56.6593 188.861 59.9999Z" fill="#f9a41a"/>
<path d="M192.756 59.9999V30.8735C192.756 20.7756 200.941 12.5898 211.039 12.5898C220.369 12.5898 228.067 19.5768 229.184 28.6043H218.735C217.757 25.2787 214.682 22.8511 211.039 22.8511C207.174 22.8511 203.844 25.6171 203.149 29.4203C203.061 29.8997 203.018 30.3864 203.018 30.8735L203.022 49.322C199.991 53.1006 196.568 56.6593 192.756 59.9999Z" fill="#f9a41a"/>
<path d="M241.432 0V29.1264C241.432 39.2243 233.247 47.41 223.149 47.41C213.819 47.41 206.122 40.4231 205.004 31.3955H215.453C216.431 34.7211 219.506 37.1488 223.149 37.1488C227.014 37.1488 230.344 34.3828 231.039 30.5796C231.127 30.1002 231.17 29.6135 231.17 29.1264L231.166 10.6779C234.197 6.89929 237.62 3.3406 241.432 0Z" fill="#f9a41a"/>
<path d="M245.328 0V29.1264C245.328 39.2243 253.514 47.41 263.611 47.41C272.941 47.41 280.639 40.4231 281.756 31.3955H271.307C270.329 34.7211 267.255 37.1488 263.611 37.1488C259.747 37.1488 256.416 34.3828 255.721 30.5796C255.634 30.1002 255.591 29.6135 255.591 29.1264L255.594 10.6779C252.564 6.89929 249.141 3.3406 245.328 0Z" fill="#f9a41a"/>
<path d="M294.005 59.9999V30.8735C294.005 20.7756 285.819 12.5898 275.722 12.5898C266.392 12.5898 258.694 19.5768 257.577 28.6043H268.025C269.004 25.2787 272.078 22.8511 275.722 22.8511C279.586 22.8511 282.917 25.6171 283.612 29.4203C283.699 29.8997 283.742 30.3864 283.742 30.8735L283.739 49.322C286.769 53.1006 290.192 56.6593 294.005 59.9999Z" fill="#f9a41a"/>
<path d="M297.9 59.9999V30.8735C297.9 20.7756 306.086 12.5898 316.183 12.5898C325.513 12.5898 333.211 19.5768 334.328 28.6043H323.879C322.901 25.2787 319.826 22.8511 316.183 22.8511C312.319 22.8511 308.988 25.6171 308.293 29.4203C308.205 29.8997 308.163 30.3864 308.163 30.8735L308.166 49.322C305.136 53.1006 301.713 56.6593 297.9 59.9999Z" fill="#f9a41a"/>
<path d="M346.576 0V29.1264C346.576 39.2243 338.391 47.41 328.293 47.41C318.963 47.41 311.266 40.4231 310.148 31.3955H320.597C321.575 34.7211 324.65 37.1488 328.293 37.1488C332.158 37.1488 335.488 34.3828 336.183 30.5796C336.271 30.1002 336.314 29.6135 336.314 29.1264L336.31 10.6779C339.341 6.89929 342.764 3.3406 346.576 0Z" fill="#f9a41a"/>
<path d="M350.471 0V29.1264C350.471 39.2243 358.657 47.41 368.754 47.41C378.084 47.41 385.782 40.4231 386.899 31.3955H376.451C375.473 34.7211 372.398 37.1488 368.754 37.1488C364.89 37.1488 361.559 34.3828 360.864 30.5796C360.777 30.1002 360.734 29.6135 360.734 29.1264L360.737 10.6779C357.707 6.89929 354.284 3.3406 350.471 0Z" fill="#f9a41a"/>
<path d="M399.149 59.9999V30.8735C399.149 20.7756 390.963 12.5898 380.865 12.5898C371.535 12.5898 363.838 19.5768 362.72 28.6043H373.169C374.147 25.2787 377.222 22.8511 380.865 22.8511C384.73 22.8511 388.061 25.6171 388.756 29.4203C388.843 29.8997 388.886 30.3864 388.886 30.8735L388.882 49.322C391.913 53.1006 395.336 56.6593 399.149 59.9999Z" fill="#f9a41a"/>
<path d="M403.044 59.9999V30.8735C403.044 20.7756 411.23 12.5898 421.327 12.5898C430.657 12.5898 438.355 19.5768 439.472 28.6043H429.023C428.045 25.2787 424.97 22.8511 421.327 22.8511C417.463 22.8511 414.132 25.6171 413.437 29.4203C413.349 29.8997 413.307 30.3864 413.307 30.8735L413.31 49.322C410.28 53.1006 406.857 56.6593 403.044 59.9999Z" fill="#f9a41a"/>
<path d="M451.721 0V29.1264C451.721 39.2243 443.535 47.41 433.438 47.41C424.108 47.41 416.41 40.4231 415.293 31.3955H425.742C426.72 34.7211 429.795 37.1488 433.438 37.1488C437.302 37.1488 440.633 34.3828 441.328 30.5796C441.416 30.1002 441.458 29.6135 441.458 29.1264L441.455 10.6779C444.485 6.89929 447.908 3.3406 451.721 0Z" fill="#f9a41a"/>
<path d="M455.615 0V29.1264C455.615 39.2243 463.801 47.41 473.899 47.41C483.229 47.41 490.926 40.4231 492.044 31.3955H481.595C480.617 34.7211 477.542 37.1488 473.899 37.1488C470.034 37.1488 466.703 34.3828 466.008 30.5796C465.921 30.1002 465.878 29.6135 465.878 29.1264L465.882 10.6779C462.851 6.89929 459.428 3.3406 455.615 0Z" fill="#f9a41a"/>
<path d="M504.293 59.9999V30.8735C504.293 20.7756 496.107 12.5898 486.01 12.5898C476.68 12.5898 468.982 19.5768 467.865 28.6043H478.313C479.291 25.2787 482.366 22.8511 486.01 22.8511C489.874 22.8511 493.205 25.6171 493.9 29.4203C493.987 29.8997 494.03 30.3864 494.03 30.8735L494.027 49.322C497.057 53.1006 500.48 56.6593 504.293 59.9999Z" fill="#f9a41a"/>
<path d="M508.188 59.9999V30.8735C508.188 20.7756 516.374 12.5898 526.471 12.5898C535.801 12.5898 543.499 19.5768 544.616 28.6043H534.168C533.19 25.2787 530.115 22.8511 526.471 22.8511C522.607 22.8511 519.276 25.6171 518.581 29.4203C518.494 29.8997 518.451 30.3864 518.451 30.8735L518.455 49.322C515.424 53.1006 512.001 56.6593 508.188 59.9999Z" fill="#f9a41a"/>
<path d="M614.072 59.9999V30.8735C614.072 20.7756 622.257 12.5898 632.355 12.5898C641.685 12.5898 649.382 19.5768 650.5 28.6043H640.051C639.073 25.2787 635.998 22.8511 632.355 22.8511C628.49 22.8511 625.16 25.6171 624.465 29.4203C624.377 29.8997 624.334 30.3864 624.334 30.8735L624.338 49.322C621.307 53.1006 617.884 56.6593 614.072 59.9999Z" fill="#f9a41a"/>
<path d="M719.955 59.9999V30.8735C719.955 20.7756 728.141 12.5898 738.238 12.5898C747.568 12.5898 755.266 19.5768 756.383 28.6043H745.934C744.956 25.2787 741.882 22.8511 738.238 22.8511C734.374 22.8511 731.043 25.6171 730.348 29.4203C730.261 29.8997 730.218 30.3864 730.218 30.8735L730.221 49.322C727.191 53.1006 723.768 56.6593 719.955 59.9999Z" fill="#f9a41a"/>
<path d="M825.839 59.9999V30.8735C825.839 20.7756 834.024 12.5898 844.122 12.5898C853.452 12.5898 861.149 19.5768 862.267 28.6043H851.818C850.84 25.2787 847.765 22.8511 844.122 22.8511C840.257 22.8511 836.927 25.6171 836.232 29.4203C836.144 29.8997 836.101 30.3864 836.101 30.8735L836.105 49.322C833.074 53.1006 829.651 56.6593 825.839 59.9999Z" fill="#f9a41a"/>
<path d="M931.722 59.9999V30.8735C931.722 20.7756 939.908 12.5898 950.005 12.5898C959.335 12.5898 967.033 19.5768 968.15 28.6043H957.701C956.723 25.2787 953.648 22.8511 950.005 22.8511C946.141 22.8511 942.81 25.6171 942.115 29.4203C942.027 29.8997 941.985 30.3864 941.985 30.8735L941.988 49.322C938.958 53.1006 935.535 56.6593 931.722 59.9999Z" fill="#f9a41a"/>
<path d="M1037.61 59.9999V30.8735C1037.61 20.7756 1045.79 12.5898 1055.89 12.5898C1065.22 12.5898 1072.92 19.5768 1074.03 28.6043H1063.58C1062.61 25.2787 1059.53 22.8511 1055.89 22.8511C1052.02 22.8511 1048.69 25.6171 1048 29.4203C1047.91 29.8997 1047.87 30.3864 1047.87 30.8735L1047.87 49.322C1044.84 53.1006 1041.42 56.6593 1037.61 59.9999Z" fill="#f9a41a"/>
<path d="M1143.49 59.9999V30.8735C1143.49 20.7756 1151.67 12.5898 1161.77 12.5898C1171.1 12.5898 1178.8 19.5768 1179.92 28.6043H1169.47C1168.49 25.2787 1165.42 22.8511 1161.77 22.8511C1157.91 22.8511 1154.58 25.6171 1153.88 29.4203C1153.79 29.8997 1153.75 30.3864 1153.75 30.8735L1153.76 49.322C1150.72 53.1006 1147.3 56.6593 1143.49 59.9999Z" fill="#f9a41a"/>
<path d="M1249.37 59.9999V30.8735C1249.37 20.7756 1257.56 12.5898 1267.66 12.5898C1276.99 12.5898 1284.68 19.5768 1285.8 28.6043H1275.35C1274.37 25.2787 1271.3 22.8511 1267.66 22.8511C1263.79 22.8511 1260.46 25.6171 1259.77 29.4203C1259.68 29.8997 1259.64 30.3864 1259.64 30.8735L1259.64 49.322C1256.61 53.1006 1253.19 56.6593 1249.37 59.9999Z" fill="#f9a41a"/>
<path d="M1355.26 59.9999V30.8735C1355.26 20.7756 1363.44 12.5898 1373.54 12.5898C1382.87 12.5898 1390.57 19.5768 1391.68 28.6043H1381.24C1380.26 25.2787 1377.18 22.8511 1373.54 22.8511C1369.67 22.8511 1366.34 25.6171 1365.65 29.4203C1365.56 29.8997 1365.52 30.3864 1365.52 30.8735L1365.52 49.322C1362.49 53.1006 1359.07 56.6593 1355.26 59.9999Z" fill="#f9a41a"/>
<path d="M556.865 0V29.1264C556.865 39.2243 548.679 47.41 538.582 47.41C529.252 47.41 521.554 40.4231 520.437 31.3955H530.886C531.864 34.7211 534.939 37.1488 538.582 37.1488C542.446 37.1488 545.777 34.3828 546.472 30.5796C546.56 30.1002 546.602 29.6135 546.602 29.1264L546.599 10.6779C549.629 6.89929 553.052 3.3406 556.865 0Z" fill="#f9a41a"/>
<path d="M662.749 0V29.1264C662.749 39.2243 654.563 47.41 644.466 47.41C635.136 47.41 627.438 40.4231 626.321 31.3955H636.769C637.747 34.7211 640.822 37.1488 644.466 37.1488C648.33 37.1488 651.661 34.3828 652.356 30.5796C652.443 30.1002 652.486 29.6135 652.486 29.1264L652.482 10.6779C655.513 6.89929 658.936 3.3406 662.749 0Z" fill="#f9a41a"/>
<path d="M768.632 0V29.1264C768.632 39.2243 760.446 47.41 750.349 47.41C741.019 47.41 733.321 40.4231 732.204 31.3955H742.653C743.631 34.7211 746.705 37.1488 750.349 37.1488C754.213 37.1488 757.544 34.3828 758.239 30.5796C758.326 30.1002 758.369 29.6135 758.369 29.1264L758.366 10.6779C761.396 6.89929 764.819 3.3406 768.632 0Z" fill="#f9a41a"/>
<path d="M874.516 0V29.1264C874.516 39.2243 866.33 47.41 856.233 47.41C846.903 47.41 839.205 40.4231 838.088 31.3955H848.536C849.514 34.7211 852.589 37.1488 856.233 37.1488C860.097 37.1488 863.428 34.3828 864.123 30.5796C864.21 30.1002 864.253 29.6135 864.253 29.1264L864.249 10.6779C867.28 6.89929 870.703 3.3406 874.516 0Z" fill="#f9a41a"/>
<path d="M980.399 0V29.1264C980.399 39.2243 972.213 47.41 962.116 47.41C952.786 47.41 945.088 40.4231 943.971 31.3955H954.419C955.397 34.7211 958.472 37.1488 962.116 37.1488C965.98 37.1488 969.311 34.3828 970.006 30.5796C970.093 30.1002 970.136 29.6135 970.136 29.1264L970.133 10.6779C973.163 6.89929 976.586 3.3406 980.399 0Z" fill="#f9a41a"/>
<path d="M1086.28 0V29.1264C1086.28 39.2243 1078.1 47.41 1068 47.41C1058.67 47.41 1050.97 40.4231 1049.85 31.3955H1060.3C1061.28 34.7211 1064.36 37.1488 1068 37.1488C1071.86 37.1488 1075.19 34.3828 1075.89 30.5796C1075.98 30.1002 1076.02 29.6135 1076.02 29.1264L1076.02 10.6779C1079.05 6.89929 1082.47 3.3406 1086.28 0Z" fill="#f9a41a"/>
<path d="M1192.17 0V29.1264C1192.17 39.2243 1183.98 47.41 1173.88 47.41C1164.55 47.41 1156.85 40.4231 1155.74 31.3955H1166.19C1167.16 34.7211 1170.24 37.1488 1173.88 37.1488C1177.75 37.1488 1181.08 34.3828 1181.77 30.5796C1181.86 30.1002 1181.9 29.6135 1181.9 29.1264L1181.9 10.6779C1184.93 6.89929 1188.35 3.3406 1192.17 0Z" fill="#f9a41a"/>
<path d="M1298.05 0V29.1264C1298.05 39.2243 1289.86 47.41 1279.77 47.41C1270.44 47.41 1262.74 40.4231 1261.62 31.3955H1272.07C1273.05 34.7211 1276.12 37.1488 1279.77 37.1488C1283.63 37.1488 1286.96 34.3828 1287.66 30.5796C1287.74 30.1002 1287.79 29.6135 1287.79 29.1264L1287.78 10.6779C1290.81 6.89929 1294.24 3.3406 1298.05 0Z" fill="#f9a41a"/>
<path d="M1403.93 0V29.1264C1403.93 39.2243 1395.75 47.41 1385.65 47.41C1376.32 47.41 1368.62 40.4231 1367.5 31.3955H1377.95C1378.93 34.7211 1382.01 37.1488 1385.65 37.1488C1389.51 37.1488 1392.84 34.3828 1393.54 30.5796C1393.63 30.1002 1393.67 29.6135 1393.67 29.1264L1393.67 10.6779C1396.7 6.89929 1400.12 3.3406 1403.93 0Z" fill="#f9a41a"/>
<path d="M560.76 0V29.1264C560.76 39.2243 568.946 47.41 579.043 47.41C588.373 47.41 596.071 40.4231 597.188 31.3955H586.739C585.761 34.7211 582.686 37.1488 579.043 37.1488C575.178 37.1488 571.848 34.3828 571.153 30.5796C571.065 30.1002 571.022 29.6135 571.022 29.1264L571.026 10.6779C567.996 6.89929 564.572 3.3406 560.76 0Z" fill="#f9a41a"/>
<path d="M666.643 0V29.1264C666.643 39.2243 674.829 47.41 684.926 47.41C694.256 47.41 701.954 40.4231 703.071 31.3955H692.622C691.644 34.7211 688.57 37.1488 684.926 37.1488C681.062 37.1488 677.731 34.3828 677.036 30.5796C676.949 30.1002 676.906 29.6135 676.906 29.1264L676.909 10.6779C673.879 6.89929 670.456 3.3406 666.643 0Z" fill="#f9a41a"/>
<path d="M772.527 0V29.1264C772.527 39.2243 780.713 47.41 790.81 47.41C800.14 47.41 807.838 40.4231 808.955 31.3955H798.507C797.528 34.7211 794.454 37.1488 790.81 37.1488C786.946 37.1488 783.615 34.3828 782.92 30.5796C782.833 30.1002 782.79 29.6135 782.79 29.1264L782.793 10.6779C779.763 6.89929 776.34 3.3406 772.527 0Z" fill="#f9a41a"/>
<path d="M878.41 0V29.1264C878.41 39.2243 886.596 47.41 896.693 47.41C906.023 47.41 913.721 40.4231 914.838 31.3955H904.39C903.412 34.7211 900.337 37.1488 896.693 37.1488C892.829 37.1488 889.498 34.3828 888.803 30.5796C888.716 30.1002 888.673 29.6135 888.673 29.1264L888.676 10.6779C885.646 6.89929 882.223 3.3406 878.41 0Z" fill="#f9a41a"/>
<path d="M984.294 0V29.1264C984.294 39.2243 992.48 47.41 1002.58 47.41C1011.91 47.41 1019.6 40.4231 1020.72 31.3955H1010.27C1009.3 34.7211 1006.22 37.1488 1002.58 37.1488C998.712 37.1488 995.382 34.3828 994.687 30.5796C994.599 30.1002 994.557 29.6135 994.557 29.1264L994.56 10.6779C991.53 6.89929 988.106 3.3406 984.294 0Z" fill="#f9a41a"/>
<path d="M1090.18 0V29.1264C1090.18 39.2243 1098.36 47.41 1108.46 47.41C1117.79 47.41 1125.49 40.4231 1126.61 31.3955H1116.16C1115.18 34.7211 1112.1 37.1488 1108.46 37.1488C1104.6 37.1488 1101.27 34.3828 1100.57 30.5796C1100.48 30.1002 1100.44 29.6135 1100.44 29.1264L1100.44 10.6779C1097.41 6.89929 1093.99 3.3406 1090.18 0Z" fill="#f9a41a"/>
<path d="M1196.06 0V29.1264C1196.06 39.2243 1204.25 47.41 1214.34 47.41C1223.67 47.41 1231.37 40.4231 1232.49 31.3955H1222.04C1221.06 34.7211 1217.99 37.1488 1214.34 37.1488C1210.48 37.1488 1207.15 34.3828 1206.45 30.5796C1206.37 30.1002 1206.32 29.6135 1206.32 29.1264L1206.33 10.6779C1203.3 6.89929 1199.87 3.3406 1196.06 0Z" fill="#f9a41a"/>
<path d="M1301.94 0V29.1264C1301.94 39.2243 1310.13 47.41 1320.23 47.41C1329.56 47.41 1337.25 40.4231 1338.37 31.3955H1327.92C1326.95 34.7211 1323.87 37.1488 1320.23 37.1488C1316.36 37.1488 1313.03 34.3828 1312.34 30.5796C1312.25 30.1002 1312.21 29.6135 1312.21 29.1264L1312.21 10.6779C1309.18 6.89929 1305.76 3.3406 1301.94 0Z" fill="#f9a41a"/>
<path d="M609.437 59.9999V30.8735C609.437 20.7756 601.251 12.5898 591.154 12.5898C581.824 12.5898 574.126 19.5768 573.009 28.6043H583.457C584.435 25.2787 587.51 22.8511 591.154 22.8511C595.018 22.8511 598.349 25.6171 599.044 29.4203C599.131 29.8997 599.174 30.3864 599.174 30.8735L599.17 49.322C602.201 53.1006 605.624 56.6593 609.437 59.9999Z" fill="#f9a41a"/>
<path d="M715.32 59.9999V30.8735C715.32 20.7756 707.134 12.5898 697.037 12.5898C687.707 12.5898 680.009 19.5768 678.892 28.6043H689.341C690.319 25.2787 693.394 22.8511 697.037 22.8511C700.902 22.8511 704.232 25.6171 704.927 29.4203C705.015 29.8997 705.057 30.3864 705.057 30.8735L705.054 49.322C708.084 53.1006 711.507 56.6593 715.32 59.9999Z" fill="#f9a41a"/>
<path d="M821.204 59.9999V30.8735C821.204 20.7756 813.018 12.5898 802.921 12.5898C793.591 12.5898 785.893 19.5768 784.776 28.6043H795.224C796.202 25.2787 799.277 22.8511 802.921 22.8511C806.785 22.8511 810.116 25.6171 810.811 29.4203C810.898 29.8997 810.941 30.3864 810.941 30.8735L810.937 49.322C813.968 53.1006 817.391 56.6593 821.204 59.9999Z" fill="#f9a41a"/>
<path d="M927.087 59.9999V30.8735C927.087 20.7756 918.901 12.5898 908.804 12.5898C899.474 12.5898 891.776 19.5768 890.659 28.6043H901.108C902.086 25.2787 905.161 22.8511 908.804 22.8511C912.669 22.8511 915.999 25.6171 916.694 29.4203C916.782 29.8997 916.824 30.3864 916.824 30.8735L916.821 49.322C919.851 53.1006 923.275 56.6593 927.087 59.9999Z" fill="#f9a41a"/>
<path d="M1032.97 59.9999V30.8735C1032.97 20.7756 1024.78 12.5898 1014.69 12.5898C1005.36 12.5898 997.66 19.5768 996.542 28.6043H1006.99C1007.97 25.2787 1011.04 22.8511 1014.69 22.8511C1018.55 22.8511 1021.88 25.6171 1022.58 29.4203C1022.67 29.8997 1022.71 30.3864 1022.71 30.8735L1022.7 49.322C1025.73 53.1006 1029.16 56.6593 1032.97 59.9999Z" fill="#f9a41a"/>
<path d="M1138.85 59.9999V30.8735C1138.85 20.7756 1130.67 12.5898 1120.57 12.5898C1111.24 12.5898 1103.54 19.5768 1102.43 28.6043H1112.87C1113.85 25.2787 1116.93 22.8511 1120.57 22.8511C1124.44 22.8511 1127.77 25.6171 1128.46 29.4203C1128.55 29.8997 1128.59 30.3864 1128.59 30.8735L1128.59 49.322C1131.62 53.1006 1135.04 56.6593 1138.85 59.9999Z" fill="#f9a41a"/>
<path d="M1244.74 59.9999V30.8735C1244.74 20.7756 1236.55 12.5898 1226.45 12.5898C1217.12 12.5898 1209.43 19.5768 1208.31 28.6043H1218.76C1219.74 25.2787 1222.81 22.8511 1226.45 22.8511C1230.32 22.8511 1233.65 25.6171 1234.34 29.4203C1234.43 29.8997 1234.47 30.3864 1234.47 30.8735L1234.47 49.322C1237.5 53.1006 1240.92 56.6593 1244.74 59.9999Z" fill="#f9a41a"/>
<path d="M1350.62 59.9999V30.8735C1350.62 20.7756 1342.43 12.5898 1332.34 12.5898C1323.01 12.5898 1315.31 19.5768 1314.19 28.6043H1324.64C1325.62 25.2787 1328.69 22.8511 1332.34 22.8511C1336.2 22.8511 1339.53 25.6171 1340.23 29.4203C1340.32 29.8997 1340.36 30.3864 1340.36 30.8735L1340.35 49.322C1343.38 53.1006 1346.81 56.6593 1350.62 59.9999Z" fill="#f9a41a"/>
</svg>
