<svg width="24" height="25" viewBox="0 0 24 25" fill="none" xmlns="http://www.w3.org/2000/svg">
<path fill-rule="evenodd" clip-rule="evenodd" d="M11.54 22.851L11.61 22.891L11.638 22.907C11.749 22.967 11.8733 22.9985 11.9995 22.9985C12.1257 22.9985 12.25 22.967 12.361 22.907L12.389 22.892L12.46 22.851C12.8511 22.6191 13.2328 22.3716 13.604 22.109C14.5651 21.4305 15.463 20.6667 16.287 19.827C18.231 17.837 20.25 14.847 20.25 11C20.25 8.81196 19.3808 6.71354 17.8336 5.16637C16.2865 3.61919 14.188 2.75 12 2.75C9.81196 2.75 7.71354 3.61919 6.16637 5.16637C4.61919 6.71354 3.75 8.81196 3.75 11C3.75 14.846 5.77 17.837 7.713 19.827C8.53664 20.6667 9.43427 21.4304 10.395 22.109C10.7666 22.3716 11.1485 22.6191 11.54 22.851ZM12 14C12.7956 14 13.5587 13.6839 14.1213 13.1213C14.6839 12.5587 15 11.7956 15 11C15 10.2044 14.6839 9.44129 14.1213 8.87868C13.5587 8.31607 12.7956 8 12 8C11.2044 8 10.4413 8.31607 9.87868 8.87868C9.31607 9.44129 9 10.2044 9 11C9 11.7956 9.31607 12.5587 9.87868 13.1213C10.4413 13.6839 11.2044 14 12 14Z" fill="#00A5E2"/>
</svg>
