<svg width="48" height="49" viewBox="0 0 48 49" fill="none" xmlns="http://www.w3.org/2000/svg">
<path d="M0 24.5C0 11.2452 10.7452 0.5 24 0.5C37.2548 0.5 48 11.2452 48 24.5C48 37.7548 37.2548 48.5 24 48.5C10.7452 48.5 0 37.7548 0 24.5Z" fill="#E4F6FD"/>
<path d="M13.5 21.1699V29.7499C13.5 30.5456 13.8161 31.3086 14.3787 31.8712C14.9413 32.4339 15.7044 32.7499 16.5 32.7499H31.5C32.2956 32.7499 33.0587 32.4339 33.6213 31.8712C34.1839 31.3086 34.5 30.5456 34.5 29.7499V21.1699L25.572 26.6629C25.0992 26.9538 24.5551 27.1078 24 27.1078C23.4449 27.1078 22.9008 26.9538 22.428 26.6629L13.5 21.1699Z" fill="#00A5E2"/>
<path d="M34.5 19.408V19.25C34.5 18.4544 34.1839 17.6913 33.6213 17.1287C33.0587 16.5661 32.2956 16.25 31.5 16.25H16.5C15.7044 16.25 14.9413 16.5661 14.3787 17.1287C13.8161 17.6913 13.5 18.4544 13.5 19.25V19.408L23.214 25.386C23.4504 25.5314 23.7225 25.6084 24 25.6084C24.2775 25.6084 24.5496 25.5314 24.786 25.386L34.5 19.408Z" fill="#00A5E2"/>
</svg>
