<svg width="1400" height="60" viewBox="0 0 1400 60" fill="none" xmlns="http://www.w3.org/2000/svg">
<path d="M-17.2274 60.0004V30.8737C-17.2274 20.7757 -9.04154 12.5898 1.0557 12.5898C10.3857 12.5898 18.0835 19.5769 19.2007 28.6045H8.75201C7.77394 25.2789 4.69912 22.8512 1.0557 22.8512C-2.80877 22.8512 -6.1394 25.6173 -6.8344 29.4205C-6.92189 29.8999 -6.96461 30.3866 -6.96461 30.8737L-6.96111 49.3225C-9.99156 53.1011 -13.4147 56.6598 -17.2274 60.0004Z" fill="#E7EDED"/>
<path d="M31.4497 0V29.1268C31.4497 39.2248 23.2638 47.4106 13.1666 47.4106C3.83662 47.4106 -3.86123 40.4236 -4.97839 31.3959H5.47029C6.44836 34.7215 9.52318 37.1493 13.1666 37.1493C17.0311 37.1493 20.3617 34.3832 21.0567 30.58C21.1442 30.1006 21.1869 29.6139 21.1869 29.1268L21.1834 10.678C24.2139 6.89938 27.637 3.34064 31.4497 0Z" fill="#E7EDED"/>
<path d="M35.3451 0V29.1268C35.3451 39.2248 43.531 47.4106 53.6282 47.4106C62.9582 47.4106 70.656 40.4236 71.7732 31.3959H61.3245C60.3464 34.7215 57.2716 37.1493 53.6282 37.1493C49.7637 37.1493 46.4331 34.3832 45.7381 30.58C45.6506 30.1006 45.6079 29.6139 45.6079 29.1268L45.6114 10.678C42.5809 6.89938 39.1578 3.34064 35.3451 0Z" fill="#E7EDED"/>
<path d="M84.0222 60.0004V30.8737C84.0222 20.7757 75.8363 12.5898 65.7391 12.5898C56.4091 12.5898 48.7113 19.5769 47.5941 28.6045H58.0428C59.0209 25.2789 62.0957 22.8512 65.7391 22.8512C69.6036 22.8512 72.9342 25.6173 73.6292 29.4205C73.7167 29.8999 73.7594 30.3866 73.7594 30.8737L73.7559 49.3225C76.7864 53.1011 80.2095 56.6598 84.0222 60.0004Z" fill="#E7EDED"/>
<path d="M87.917 60.0004V30.8737C87.917 20.7757 96.1029 12.5898 106.2 12.5898C115.53 12.5898 123.228 19.5769 124.345 28.6045H113.896C112.918 25.2789 109.844 22.8512 106.2 22.8512C102.336 22.8512 99.005 25.6173 98.31 29.4205C98.2225 29.8999 98.1798 30.3866 98.1798 30.8737L98.1833 49.3225C95.1529 53.1011 91.7297 56.6598 87.917 60.0004Z" fill="#E7EDED"/>
<path d="M136.594 0V29.1268C136.594 39.2248 128.408 47.4106 118.311 47.4106C108.981 47.4106 101.283 40.4236 100.166 31.3959H110.615C111.593 34.7215 114.667 37.1493 118.311 37.1493C122.175 37.1493 125.506 34.3832 126.201 30.58C126.288 30.1006 126.331 29.6139 126.331 29.1268L126.328 10.678C129.358 6.89938 132.781 3.34064 136.594 0Z" fill="#E7EDED"/>
<path d="M140.49 0V29.1268C140.49 39.2248 148.675 47.4106 158.773 47.4106C168.103 47.4106 175.8 40.4236 176.918 31.3959H166.469C165.491 34.7215 162.416 37.1493 158.773 37.1493C154.908 37.1493 151.578 34.3832 150.883 30.58C150.795 30.1006 150.752 29.6139 150.752 29.1268L150.756 10.678C147.725 6.89938 144.302 3.34064 140.49 0Z" fill="#E7EDED"/>
<path d="M189.167 60.0004V30.8737C189.167 20.7757 180.981 12.5898 170.883 12.5898C161.553 12.5898 153.856 19.5769 152.738 28.6045H163.187C164.165 25.2789 167.24 22.8512 170.883 22.8512C174.748 22.8512 178.078 25.6173 178.773 29.4205C178.861 29.8999 178.904 30.3866 178.904 30.8737L178.9 49.3225C181.931 53.1011 185.354 56.6598 189.167 60.0004Z" fill="#E7EDED"/>
<path d="M193.061 60.0004V30.8737C193.061 20.7757 201.247 12.5898 211.344 12.5898C220.674 12.5898 228.372 19.5769 229.489 28.6045H219.041C218.063 25.2789 214.988 22.8512 211.344 22.8512C207.48 22.8512 204.149 25.6173 203.454 29.4205C203.367 29.8999 203.324 30.3866 203.324 30.8737L203.328 49.3225C200.297 53.1011 196.874 56.6598 193.061 60.0004Z" fill="#E7EDED"/>
<path d="M241.738 0V29.1268C241.738 39.2248 233.552 47.4106 223.455 47.4106C214.125 47.4106 206.427 40.4236 205.31 31.3959H215.759C216.737 34.7215 219.812 37.1493 223.455 37.1493C227.32 37.1493 230.65 34.3832 231.345 30.58C231.433 30.1006 231.475 29.6139 231.475 29.1268L231.472 10.678C234.502 6.89938 237.926 3.34064 241.738 0Z" fill="#E7EDED"/>
<path d="M245.634 0V29.1268C245.634 39.2248 253.82 47.4106 263.917 47.4106C273.247 47.4106 280.945 40.4236 282.062 31.3959H271.613C270.635 34.7215 267.56 37.1493 263.917 37.1493C260.052 37.1493 256.722 34.3832 256.027 30.58C255.939 30.1006 255.897 29.6139 255.897 29.1268L255.9 10.678C252.87 6.89938 249.446 3.34064 245.634 0Z" fill="#E7EDED"/>
<path d="M294.311 60.0004V30.8737C294.311 20.7757 286.125 12.5898 276.028 12.5898C266.698 12.5898 259 19.5769 257.883 28.6045H268.331C269.309 25.2789 272.384 22.8512 276.028 22.8512C279.892 22.8512 283.223 25.6173 283.918 29.4205C284.005 29.8999 284.048 30.3866 284.048 30.8737L284.044 49.3225C287.075 53.1011 290.498 56.6598 294.311 60.0004Z" fill="#E7EDED"/>
<path d="M298.206 60.0004V30.8737C298.206 20.7757 306.391 12.5898 316.489 12.5898C325.819 12.5898 333.516 19.5769 334.634 28.6045H324.185C323.207 25.2789 320.132 22.8512 316.489 22.8512C312.624 22.8512 309.294 25.6173 308.599 29.4205C308.511 29.8999 308.468 30.3866 308.468 30.8737L308.472 49.3225C305.441 53.1011 302.018 56.6598 298.206 60.0004Z" fill="#E7EDED"/>
<path d="M346.882 0V29.1268C346.882 39.2248 338.697 47.4106 328.599 47.4106C319.269 47.4106 311.572 40.4236 310.454 31.3959H320.903C321.881 34.7215 324.956 37.1493 328.599 37.1493C332.464 37.1493 335.794 34.3832 336.489 30.58C336.577 30.1006 336.62 29.6139 336.62 29.1268L336.616 10.678C339.647 6.89938 343.07 3.34064 346.882 0Z" fill="#E7EDED"/>
<path d="M350.777 0V29.1268C350.777 39.2248 358.963 47.4106 369.06 47.4106C378.39 47.4106 386.088 40.4236 387.205 31.3959H376.757C375.778 34.7215 372.704 37.1493 369.06 37.1493C365.196 37.1493 361.865 34.3832 361.17 30.58C361.083 30.1006 361.04 29.6139 361.04 29.1268L361.043 10.678C358.013 6.89938 354.59 3.34064 350.777 0Z" fill="#E7EDED"/>
<path d="M399.455 60.0004V30.8737C399.455 20.7757 391.269 12.5898 381.171 12.5898C371.841 12.5898 364.144 19.5769 363.026 28.6045H373.475C374.453 25.2789 377.528 22.8512 381.171 22.8512C385.036 22.8512 388.366 25.6173 389.061 29.4205C389.149 29.8999 389.192 30.3866 389.192 30.8737L389.188 49.3225C392.219 53.1011 395.642 56.6598 399.455 60.0004Z" fill="#E7EDED"/>
<path d="M403.35 60.0004V30.8737C403.35 20.7757 411.536 12.5898 421.633 12.5898C430.963 12.5898 438.661 19.5769 439.778 28.6045H429.329C428.351 25.2789 425.276 22.8512 421.633 22.8512C417.769 22.8512 414.438 25.6173 413.743 29.4205C413.655 29.8999 413.613 30.3866 413.613 30.8737L413.616 49.3225C410.586 53.1011 407.163 56.6598 403.35 60.0004Z" fill="#E7EDED"/>
<path d="M452.027 0V29.1268C452.027 39.2248 443.841 47.4106 433.744 47.4106C424.414 47.4106 416.716 40.4236 415.599 31.3959H426.048C427.026 34.7215 430.1 37.1493 433.744 37.1493C437.608 37.1493 440.939 34.3832 441.634 30.58C441.721 30.1006 441.764 29.6139 441.764 29.1268L441.761 10.678C444.791 6.89938 448.214 3.34064 452.027 0Z" fill="#E7EDED"/>
<path d="M455.921 0V29.1268C455.921 39.2248 464.107 47.4106 474.205 47.4106C483.534 47.4106 491.232 40.4236 492.35 31.3959H481.901C480.923 34.7215 477.848 37.1493 474.205 37.1493C470.34 37.1493 467.009 34.3832 466.314 30.58C466.227 30.1006 466.184 29.6139 466.184 29.1268L466.188 10.678C463.157 6.89938 459.734 3.34064 455.921 0Z" fill="#E7EDED"/>
<path d="M504.599 60.0004V30.8737C504.599 20.7757 496.413 12.5898 486.316 12.5898C476.986 12.5898 469.288 19.5769 468.171 28.6045H478.619C479.597 25.2789 482.672 22.8512 486.316 22.8512C490.18 22.8512 493.511 25.6173 494.206 29.4205C494.293 29.8999 494.336 30.3866 494.336 30.8737L494.332 49.3225C497.363 53.1011 500.786 56.6598 504.599 60.0004Z" fill="#E7EDED"/>
<path d="M508.494 60.0004V30.8737C508.494 20.7757 516.68 12.5898 526.777 12.5898C536.107 12.5898 543.805 19.5769 544.922 28.6045H534.474C533.496 25.2789 530.421 22.8512 526.777 22.8512C522.913 22.8512 519.582 25.6173 518.887 29.4205C518.8 29.8999 518.757 30.3866 518.757 30.8737L518.761 49.3225C515.73 53.1011 512.307 56.6598 508.494 60.0004Z" fill="#E7EDED"/>
<path d="M614.378 60.0004V30.8737C614.378 20.7757 622.564 12.5898 632.661 12.5898C641.991 12.5898 649.689 19.5769 650.806 28.6045H640.357C639.379 25.2789 636.304 22.8512 632.661 22.8512C628.796 22.8512 625.466 25.6173 624.771 29.4205C624.683 29.8999 624.64 30.3866 624.64 30.8737L624.644 49.3225C621.614 53.1011 618.19 56.6598 614.378 60.0004Z" fill="#E7EDED"/>
<path d="M720.261 60.0004V30.8737C720.261 20.7757 728.447 12.5898 738.544 12.5898C747.874 12.5898 755.572 19.5769 756.689 28.6045H746.241C745.263 25.2789 742.188 22.8512 738.544 22.8512C734.68 22.8512 731.349 25.6173 730.654 29.4205C730.567 29.8999 730.524 30.3866 730.524 30.8737L730.528 49.3225C727.497 53.1011 724.074 56.6598 720.261 60.0004Z" fill="#E7EDED"/>
<path d="M826.145 60.0004V30.8737C826.145 20.7757 834.331 12.5898 844.428 12.5898C853.758 12.5898 861.456 19.5769 862.573 28.6045H852.124C851.146 25.2789 848.071 22.8512 844.428 22.8512C840.563 22.8512 837.233 25.6173 836.538 29.4205C836.45 29.8999 836.408 30.3866 836.408 30.8737L836.411 49.3225C833.381 53.1011 829.957 56.6598 826.145 60.0004Z" fill="#E7EDED"/>
<path d="M932.028 60.0004V30.8737C932.028 20.7757 940.214 12.5898 950.311 12.5898C959.641 12.5898 967.339 19.5769 968.456 28.6045H958.008C957.03 25.2789 953.955 22.8512 950.311 22.8512C946.447 22.8512 943.116 25.6173 942.421 29.4205C942.334 29.8999 942.291 30.3866 942.291 30.8737L942.295 49.3225C939.264 53.1011 935.841 56.6598 932.028 60.0004Z" fill="#E7EDED"/>
<path d="M1037.91 60.0004V30.8737C1037.91 20.7757 1046.1 12.5898 1056.19 12.5898C1065.52 12.5898 1073.22 19.5769 1074.34 28.6045H1063.89C1062.91 25.2789 1059.84 22.8512 1056.19 22.8512C1052.33 22.8512 1049 25.6173 1048.3 29.4205C1048.22 29.8999 1048.17 30.3866 1048.17 30.8737L1048.18 49.3225C1045.15 53.1011 1041.72 56.6598 1037.91 60.0004Z" fill="#E7EDED"/>
<path d="M1143.8 60.0004V30.8737C1143.8 20.7757 1151.98 12.5898 1162.08 12.5898C1171.41 12.5898 1179.11 19.5769 1180.22 28.6045H1169.77C1168.8 25.2789 1165.72 22.8512 1162.08 22.8512C1158.21 22.8512 1154.88 25.6173 1154.19 29.4205C1154.1 29.8999 1154.06 30.3866 1154.06 30.8737L1154.06 49.3225C1151.03 53.1011 1147.61 56.6598 1143.8 60.0004Z" fill="#E7EDED"/>
<path d="M1249.68 60.0004V30.8737C1249.68 20.7757 1257.86 12.5898 1267.96 12.5898C1277.29 12.5898 1284.99 19.5769 1286.11 28.6045H1275.66C1274.68 25.2789 1271.61 22.8512 1267.96 22.8512C1264.1 22.8512 1260.77 25.6173 1260.07 29.4205C1259.98 29.8999 1259.94 30.3866 1259.94 30.8737L1259.95 49.3225C1256.91 53.1011 1253.49 56.6598 1249.68 60.0004Z" fill="#E7EDED"/>
<path d="M1355.56 60.0004V30.8737C1355.56 20.7757 1363.75 12.5898 1373.85 12.5898C1383.18 12.5898 1390.87 19.5769 1391.99 28.6045H1381.54C1380.56 25.2789 1377.49 22.8512 1373.85 22.8512C1369.98 22.8512 1366.65 25.6173 1365.96 29.4205C1365.87 29.8999 1365.83 30.3866 1365.83 30.8737L1365.83 49.3225C1362.8 53.1011 1359.38 56.6598 1355.56 60.0004Z" fill="#E7EDED"/>
<path d="M557.171 0V29.1268C557.171 39.2248 548.985 47.4106 538.888 47.4106C529.558 47.4106 521.86 40.4236 520.743 31.3959H531.192C532.17 34.7215 535.245 37.1493 538.888 37.1493C542.753 37.1493 546.083 34.3832 546.778 30.58C546.866 30.1006 546.908 29.6139 546.908 29.1268L546.905 10.678C549.935 6.89938 553.359 3.34064 557.171 0Z" fill="#E7EDED"/>
<path d="M663.055 0V29.1268C663.055 39.2248 654.869 47.4106 644.771 47.4106C635.442 47.4106 627.744 40.4236 626.626 31.3959H637.075C638.053 34.7215 641.128 37.1493 644.771 37.1493C648.636 37.1493 651.967 34.3832 652.662 30.58C652.749 30.1006 652.792 29.6139 652.792 29.1268L652.788 10.678C655.819 6.89938 659.242 3.34064 663.055 0Z" fill="#E7EDED"/>
<path d="M768.938 0V29.1268C768.938 39.2248 760.753 47.4106 750.655 47.4106C741.325 47.4106 733.627 40.4236 732.51 31.3959H742.959C743.937 34.7215 747.012 37.1493 750.655 37.1493C754.52 37.1493 757.85 34.3832 758.545 30.58C758.633 30.1006 758.676 29.6139 758.676 29.1268L758.672 10.678C761.703 6.89938 765.126 3.34064 768.938 0Z" fill="#E7EDED"/>
<path d="M874.822 0V29.1268C874.822 39.2248 866.636 47.4106 856.539 47.4106C847.209 47.4106 839.511 40.4236 838.394 31.3959H848.842C849.82 34.7215 852.895 37.1493 856.539 37.1493C860.403 37.1493 863.734 34.3832 864.429 30.58C864.516 30.1006 864.559 29.6139 864.559 29.1268L864.555 10.678C867.586 6.89938 871.009 3.34064 874.822 0Z" fill="#E7EDED"/>
<path d="M980.705 0V29.1268C980.705 39.2248 972.519 47.4106 962.422 47.4106C953.092 47.4106 945.394 40.4236 944.277 31.3959H954.726C955.704 34.7215 958.779 37.1493 962.422 37.1493C966.287 37.1493 969.617 34.3832 970.312 30.58C970.4 30.1006 970.443 29.6139 970.443 29.1268L970.439 10.678C973.47 6.89938 976.893 3.34064 980.705 0Z" fill="#E7EDED"/>
<path d="M1086.59 0V29.1268C1086.59 39.2248 1078.4 47.4106 1068.31 47.4106C1058.98 47.4106 1051.28 40.4236 1050.16 31.3959H1060.61C1061.59 34.7215 1064.66 37.1493 1068.31 37.1493C1072.17 37.1493 1075.5 34.3832 1076.2 30.58C1076.28 30.1006 1076.33 29.6139 1076.33 29.1268L1076.32 10.678C1079.35 6.89938 1082.78 3.34064 1086.59 0Z" fill="#E7EDED"/>
<path d="M1192.47 0V29.1268C1192.47 39.2248 1184.29 47.4106 1174.19 47.4106C1164.86 47.4106 1157.16 40.4236 1156.04 31.3959H1166.49C1167.47 34.7215 1170.55 37.1493 1174.19 37.1493C1178.05 37.1493 1181.38 34.3832 1182.08 30.58C1182.17 30.1006 1182.21 29.6139 1182.21 29.1268L1182.21 10.678C1185.24 6.89938 1188.66 3.34064 1192.47 0Z" fill="#E7EDED"/>
<path d="M1298.36 0V29.1268C1298.36 39.2248 1290.17 47.4106 1280.07 47.4106C1270.74 47.4106 1263.04 40.4236 1261.93 31.3959H1272.38C1273.35 34.7215 1276.43 37.1493 1280.07 37.1493C1283.94 37.1493 1287.27 34.3832 1287.96 30.58C1288.05 30.1006 1288.09 29.6139 1288.09 29.1268L1288.09 10.678C1291.12 6.89938 1294.54 3.34064 1298.36 0Z" fill="#E7EDED"/>
<path d="M1404.24 0V29.1268C1404.24 39.2248 1396.05 47.4106 1385.96 47.4106C1376.63 47.4106 1368.93 40.4236 1367.81 31.3959H1378.26C1379.24 34.7215 1382.31 37.1493 1385.96 37.1493C1389.82 37.1493 1393.15 34.3832 1393.85 30.58C1393.93 30.1006 1393.98 29.6139 1393.98 29.1268L1393.97 10.678C1397 6.89938 1400.43 3.34064 1404.24 0Z" fill="#E7EDED"/>
<path d="M561.066 0V29.1268C561.066 39.2248 569.252 47.4106 579.349 47.4106C588.679 47.4106 596.377 40.4236 597.494 31.3959H587.045C586.067 34.7215 582.992 37.1493 579.349 37.1493C575.484 37.1493 572.154 34.3832 571.459 30.58C571.371 30.1006 571.329 29.6139 571.329 29.1268L571.332 10.678C568.302 6.89938 564.878 3.34064 561.066 0Z" fill="#E7EDED"/>
<path d="M666.949 0V29.1268C666.949 39.2248 675.135 47.4106 685.232 47.4106C694.562 47.4106 702.26 40.4236 703.377 31.3959H692.929C691.951 34.7215 688.876 37.1493 685.232 37.1493C681.368 37.1493 678.037 34.3832 677.342 30.58C677.255 30.1006 677.212 29.6139 677.212 29.1268L677.216 10.678C674.185 6.89938 670.762 3.34064 666.949 0Z" fill="#E7EDED"/>
<path d="M772.833 0V29.1268C772.833 39.2248 781.019 47.4106 791.116 47.4106C800.446 47.4106 808.144 40.4236 809.261 31.3959H798.813C797.835 34.7215 794.76 37.1493 791.116 37.1493C787.252 37.1493 783.921 34.3832 783.226 30.58C783.139 30.1006 783.096 29.6139 783.096 29.1268L783.1 10.678C780.069 6.89938 776.646 3.34064 772.833 0Z" fill="#E7EDED"/>
<path d="M878.717 0V29.1268C878.717 39.2248 886.903 47.4106 897 47.4106C906.33 47.4106 914.028 40.4236 915.145 31.3959H904.696C903.718 34.7215 900.643 37.1493 897 37.1493C893.135 37.1493 889.805 34.3832 889.11 30.58C889.022 30.1006 888.98 29.6139 888.98 29.1268L888.983 10.678C885.953 6.89938 882.529 3.34064 878.717 0Z" fill="#E7EDED"/>
<path d="M984.6 0V29.1268C984.6 39.2248 992.786 47.4106 1002.88 47.4106C1012.21 47.4106 1019.91 40.4236 1021.03 31.3959H1010.58C1009.6 34.7215 1006.53 37.1493 1002.88 37.1493C999.019 37.1493 995.688 34.3832 994.993 30.58C994.906 30.1006 994.863 29.6139 994.863 29.1268L994.866 10.678C991.836 6.89938 988.413 3.34064 984.6 0Z" fill="#E7EDED"/>
<path d="M1090.48 0V29.1268C1090.48 39.2248 1098.67 47.4106 1108.77 47.4106C1118.1 47.4106 1125.79 40.4236 1126.91 31.3959H1116.46C1115.48 34.7215 1112.41 37.1493 1108.77 37.1493C1104.9 37.1493 1101.57 34.3832 1100.88 30.58C1100.79 30.1006 1100.75 29.6139 1100.75 29.1268L1100.75 10.678C1097.72 6.89938 1094.3 3.34064 1090.48 0Z" fill="#E7EDED"/>
<path d="M1196.37 0V29.1268C1196.37 39.2248 1204.55 47.4106 1214.65 47.4106C1223.98 47.4106 1231.68 40.4236 1232.8 31.3959H1222.35C1221.37 34.7215 1218.29 37.1493 1214.65 37.1493C1210.79 37.1493 1207.46 34.3832 1206.76 30.58C1206.67 30.1006 1206.63 29.6139 1206.63 29.1268L1206.63 10.678C1203.6 6.89938 1200.18 3.34064 1196.37 0Z" fill="#E7EDED"/>
<path d="M1302.25 0V29.1268C1302.25 39.2248 1310.44 47.4106 1320.53 47.4106C1329.86 47.4106 1337.56 40.4236 1338.68 31.3959H1328.23C1327.25 34.7215 1324.18 37.1493 1320.53 37.1493C1316.67 37.1493 1313.34 34.3832 1312.64 30.58C1312.56 30.1006 1312.51 29.6139 1312.51 29.1268L1312.52 10.678C1309.49 6.89938 1306.06 3.34064 1302.25 0Z" fill="#E7EDED"/>
<path d="M609.743 60.0004V30.8737C609.743 20.7757 601.557 12.5898 591.46 12.5898C582.13 12.5898 574.432 19.5769 573.315 28.6045H583.764C584.742 25.2789 587.816 22.8512 591.46 22.8512C595.324 22.8512 598.655 25.6173 599.35 29.4205C599.438 29.8999 599.48 30.3866 599.48 30.8737L599.477 49.3225C602.507 53.1011 605.93 56.6598 609.743 60.0004Z" fill="#E7EDED"/>
<path d="M715.627 60.0004V30.8737C715.627 20.7757 707.441 12.5898 697.343 12.5898C688.013 12.5898 680.316 19.5769 679.198 28.6045H689.647C690.625 25.2789 693.7 22.8512 697.343 22.8512C701.208 22.8512 704.539 25.6173 705.234 29.4205C705.321 29.8999 705.364 30.3866 705.364 30.8737L705.36 49.3225C708.391 53.1011 711.814 56.6598 715.627 60.0004Z" fill="#E7EDED"/>
<path d="M821.51 60.0004V30.8737C821.51 20.7757 813.324 12.5898 803.227 12.5898C793.897 12.5898 786.199 19.5769 785.082 28.6045H795.531C796.509 25.2789 799.584 22.8512 803.227 22.8512C807.091 22.8512 810.422 25.6173 811.117 29.4205C811.205 29.8999 811.247 30.3866 811.247 30.8737L811.244 49.3225C814.274 53.1011 817.697 56.6598 821.51 60.0004Z" fill="#E7EDED"/>
<path d="M927.394 60.0004V30.8737C927.394 20.7757 919.208 12.5898 909.11 12.5898C899.78 12.5898 892.083 19.5769 890.965 28.6045H901.414C902.392 25.2789 905.467 22.8512 909.11 22.8512C912.975 22.8512 916.306 25.6173 917.001 29.4205C917.088 29.8999 917.131 30.3866 917.131 30.8737L917.127 49.3224C920.158 53.1011 923.581 56.6598 927.394 60.0004Z" fill="#E7EDED"/>
<path d="M1033.28 60.0004V30.8737C1033.28 20.7757 1025.09 12.5898 1014.99 12.5898C1005.66 12.5898 997.966 19.5769 996.849 28.6045H1007.3C1008.28 25.2789 1011.35 22.8512 1014.99 22.8512C1018.86 22.8512 1022.19 25.6173 1022.88 29.4205C1022.97 29.8999 1023.01 30.3866 1023.01 30.8737L1023.01 49.3225C1026.04 53.1011 1029.46 56.6598 1033.28 60.0004Z" fill="#E7EDED"/>
<path d="M1139.16 60.0004V30.8737C1139.16 20.7757 1130.97 12.5898 1120.88 12.5898C1111.55 12.5898 1103.85 19.5769 1102.73 28.6045H1113.18C1114.16 25.2789 1117.23 22.8512 1120.88 22.8512C1124.74 22.8512 1128.07 25.6173 1128.77 29.4205C1128.86 29.8999 1128.9 30.3866 1128.9 30.8737L1128.89 49.3225C1131.92 53.1011 1135.35 56.6598 1139.16 60.0004Z" fill="#E7EDED"/>
<path d="M1245.04 60.0004V30.8737C1245.04 20.7757 1236.86 12.5898 1226.76 12.5898C1217.43 12.5898 1209.73 19.5769 1208.62 28.6045H1219.06C1220.04 25.2789 1223.12 22.8512 1226.76 22.8512C1230.63 22.8512 1233.96 25.6173 1234.65 29.4205C1234.74 29.8999 1234.78 30.3866 1234.78 30.8737L1234.78 49.3225C1237.81 53.1011 1241.23 56.6598 1245.04 60.0004Z" fill="#E7EDED"/>
<path d="M1350.93 60.0004V30.8737C1350.93 20.7757 1342.74 12.5898 1332.64 12.5898C1323.31 12.5898 1315.62 19.5769 1314.5 28.6045H1324.95C1325.93 25.2789 1329 22.8512 1332.64 22.8512C1336.51 22.8512 1339.84 25.6173 1340.53 29.4205C1340.62 29.8999 1340.66 30.3866 1340.66 30.8737L1340.66 49.3225C1343.69 53.1011 1347.11 56.6598 1350.93 60.0004Z" fill="#E7EDED"/>
</svg>
