<svg width="81" height="80" viewBox="0 0 81 80" fill="none" xmlns="http://www.w3.org/2000/svg">
<path d="M0.600586 40C0.600586 17.9086 18.5092 0 40.6006 0C62.692 0 80.6006 17.9086 80.6006 40C80.6006 62.0914 62.692 80 40.6006 80C18.5092 80 0.600586 62.0914 0.600586 40Z" fill="#F8FAFA"/>
<path d="M25.6006 57.5L20.6006 62.5M55.6006 57.5L60.6006 62.5" stroke="#00A5E2" stroke-width="3" stroke-linecap="round" stroke-linejoin="round"/>
<path d="M33.1006 47.5H33.1231M48.0781 47.5H48.1006" stroke="#00A5E2" stroke-width="3" stroke-linecap="round" stroke-linejoin="round"/>
<path d="M23.1006 32.5C33.1006 42.5 49.3506 42.5 58.1006 32.5" stroke="#00A5E2" stroke-width="3" stroke-linejoin="round"/>
<path d="M23.7828 29.735C25.8353 19.29 28.6753 17.5 39.2378 17.5H41.9628C52.5253 17.5 55.3628 19.29 57.4178 29.735L58.8003 36.775C60.6878 46.375 61.6303 51.175 58.8803 54.3375C56.1303 57.5 50.9553 57.5 40.6003 57.5C30.2478 57.5 25.0703 57.5 22.3203 54.3375C19.5703 51.175 20.5128 46.375 22.4003 36.775L23.7828 29.735Z" stroke="#00A5E2" stroke-width="3" stroke-linejoin="round"/>
</svg>
