<svg width="81" height="80" viewBox="0 0 81 80" fill="none" xmlns="http://www.w3.org/2000/svg">
<path d="M0.400391 40C0.400391 17.9086 18.309 0 40.4004 0C62.4918 0 80.4004 17.9086 80.4004 40C80.4004 62.0914 62.4918 80 40.4004 80C18.309 80 0.400391 62.0914 0.400391 40Z" fill="#F8FAFA"/>
<path d="M20.4004 40L18.7604 42.4625C17.0929 44.9625 16.2604 46.2125 15.8304 47.63C15.4004 49.0475 15.4004 50.55 15.4004 53.555V61.25C15.4004 62.415 15.4004 62.9975 15.5904 63.4575C15.8447 64.0688 16.3311 64.5544 16.9429 64.8075C17.4029 65 17.9854 65 19.1504 65C20.3154 65 20.8979 65 21.3579 64.81C21.9692 64.5557 22.4547 64.0693 22.7079 63.4575C22.9004 62.9975 22.9004 62.415 22.9004 61.25C22.9004 60.085 22.9004 59.5025 23.0904 59.0425C23.3447 58.4312 23.8311 57.9456 24.4429 57.6925C24.9029 57.5 25.4854 57.5 26.6504 57.5H54.1504C55.3154 57.5 55.8979 57.5 56.3579 57.69C56.9692 57.9443 57.4547 58.4307 57.7079 59.0425C57.9004 59.5025 57.9004 60.085 57.9004 61.25C57.9004 62.415 57.9004 62.9975 58.0904 63.4575C58.3447 64.0688 58.8311 64.5544 59.4429 64.8075C59.9029 65 60.4854 65 61.6504 65C62.8154 65 63.3979 65 63.8579 64.81C64.4692 64.5557 64.9547 64.0693 65.2079 63.4575C65.4004 62.9975 65.4004 62.415 65.4004 61.25V53.555C65.4004 50.55 65.4004 49.0475 64.9704 47.63C64.5404 46.2125 63.7079 44.9625 62.0404 42.4625L60.4004 40L56.5954 40.95C55.9979 41.1 55.7004 41.175 55.3954 41.2125C55.0904 41.25 54.7829 41.25 54.1704 41.25H26.6304C26.0179 41.25 25.7104 41.25 25.4054 41.2125C25.0004 41.1505 24.5997 41.0637 24.2054 40.9525L20.4004 40ZM20.4004 40L22.8054 34.23C24.6679 29.755 25.6004 27.52 27.4904 26.26C29.3804 25 31.8004 25 36.6504 25M20.4004 40L15.4004 36.25" stroke="#00A5E2" stroke-width="3" stroke-linecap="round" stroke-linejoin="round"/>
<path d="M55.4004 50V50.025M25.4004 50V50.025" stroke="#00A5E2" stroke-width="3" stroke-linecap="round" stroke-linejoin="round"/>
<path d="M52.9004 35C58.4232 35 62.9004 30.5228 62.9004 25C62.9004 19.4772 58.4232 15 52.9004 15C47.3775 15 42.9004 19.4772 42.9004 25C42.9004 30.5228 47.3775 35 52.9004 35Z" stroke="#00A5E2" stroke-width="3" stroke-linecap="round" stroke-linejoin="round"/>
<path d="M52.9004 20V25L56.6504 26.25" stroke="#00A5E2" stroke-width="3" stroke-linecap="round" stroke-linejoin="round"/>
</svg>
