<svg width="81" height="80" viewBox="0 0 81 80" fill="none" xmlns="http://www.w3.org/2000/svg">
<path d="M0.800781 40C0.800781 17.9086 18.7094 0 40.8008 0C62.8922 0 80.8008 17.9086 80.8008 40C80.8008 62.0914 62.8922 80 40.8008 80C18.7094 80 0.800781 62.0914 0.800781 40Z" fill="#F8FAFA"/>
<path d="M20.8008 35C20.8008 25.5725 20.8008 20.8575 23.7308 17.93C26.6608 15.0025 31.3733 15 40.8008 15C50.2283 15 54.9433 15 57.8708 17.93C60.7983 20.86 60.8008 25.5725 60.8008 35V40C60.8008 49.4275 60.8008 54.1425 57.8708 57.07C54.9408 59.9975 50.2283 60 40.8008 60C31.3733 60 26.6583 60 23.7308 57.07C20.8033 54.14 20.8008 49.4275 20.8008 40V35Z" stroke="#00A5E2" stroke-width="3"/>
<path d="M49.5508 50H53.3008M28.3008 50H32.0508M25.8008 58.75V62.5C25.8008 63.163 26.0642 63.7989 26.533 64.2678C27.0019 64.7366 27.6377 65 28.3008 65H32.0508C32.7138 65 33.3497 64.7366 33.8185 64.2678C34.2874 63.7989 34.5508 63.163 34.5508 62.5V60M55.8008 58.75V62.5C55.8008 63.163 55.5374 63.7989 55.0686 64.2678C54.5997 64.7366 53.9638 65 53.3008 65H49.5508C48.8877 65 48.2519 64.7366 47.783 64.2678C47.3142 63.7989 47.0508 63.163 47.0508 62.5V60M60.8008 32.5H63.3008C63.9638 32.5 64.5997 32.7634 65.0686 33.2322C65.5374 33.7011 65.8008 34.337 65.8008 35V37.5C65.8008 37.8881 65.7104 38.2709 65.5368 38.618C65.3633 38.9652 65.1113 39.2671 64.8008 39.5L60.8008 42.5H20.8008L16.8008 39.5C16.4903 39.2671 16.2383 38.9652 16.0647 38.618C15.8911 38.2709 15.8008 37.8881 15.8008 37.5V35C15.8008 34.337 16.0642 33.7011 16.533 33.2322C17.0019 32.7634 17.6377 32.5 18.3008 32.5H20.8008" stroke="#00A5E2" stroke-width="3" stroke-linecap="round" stroke-linejoin="round"/>
<path d="M59.5508 22.5H22.0508" stroke="#00A5E2" stroke-width="3" stroke-linecap="round"/>
</svg>
