<svg width="81" height="80" viewBox="0 0 81 80" fill="none" xmlns="http://www.w3.org/2000/svg">
<path d="M0.200195 40C0.200195 17.9086 18.1088 0 40.2002 0C62.2916 0 80.2002 17.9086 80.2002 40C80.2002 62.0914 62.2916 80 40.2002 80C18.1088 80 0.200195 62.0914 0.200195 40Z" fill="#F8FAFA"/>
<path d="M15.2002 40C15.2002 26.1925 26.3927 15 40.2002 15C54.0077 15 65.2002 26.1925 65.2002 40C65.2002 53.8075 54.0077 65 40.2002 65C26.3927 65 15.2002 53.8075 15.2002 40Z" stroke="#00A5E2" stroke-width="3"/>
<path d="M32.7002 36.25C32.7002 35.2554 33.0953 34.3016 33.7985 33.5983C34.5018 32.8951 35.4556 32.5 36.4502 32.5H43.9502C44.9448 32.5 45.8986 32.8951 46.6018 33.5983C47.3051 34.3016 47.7002 35.2554 47.7002 36.25V43.75C47.7002 44.7446 47.3051 45.6984 46.6018 46.4017C45.8986 47.1049 44.9448 47.5 43.9502 47.5H36.4502C35.4556 47.5 34.5018 47.1049 33.7985 46.4017C33.0953 45.6984 32.7002 44.7446 32.7002 43.75V36.25Z" stroke="#00A5E2" stroke-width="3" stroke-linejoin="round"/>
<path d="M32.7002 40H15.2002" stroke="#00A5E2" stroke-width="3" stroke-linecap="round" stroke-linejoin="round"/>
</svg>
