<svg width="80" height="80" viewBox="0 0 80 80" fill="none" xmlns="http://www.w3.org/2000/svg">
<path d="M0 40C0 17.9086 17.9086 0 40 0C62.0914 0 80 17.9086 80 40C80 62.0914 62.0914 80 40 80C17.9086 80 0 62.0914 0 40Z" fill="#F8FAFA"/>
<path d="M65 52.305V58.75C65 59.915 65 60.4975 64.81 60.9575C64.5557 61.5688 64.0693 62.0544 63.4575 62.3075C62.9975 62.5 62.415 62.5 61.25 62.5C60.085 62.5 59.5025 62.5 59.0425 62.31C58.4312 62.0557 57.9456 61.5693 57.6925 60.9575C57.5 60.4975 57.5 59.915 57.5 58.75C57.5 57.585 57.5 57.0025 57.31 56.5425C57.0557 55.9312 56.5693 55.4456 55.9575 55.1925C55.4975 55 54.915 55 53.75 55H26.25C25.085 55 24.5025 55 24.0425 55.19C23.4312 55.4443 22.9456 55.9307 22.6925 56.5425C22.5 57.0025 22.5 57.585 22.5 58.75C22.5 59.915 22.5 60.4975 22.31 60.9575C22.0557 61.5688 21.5693 62.0544 20.9575 62.3075C20.4975 62.5 19.915 62.5 18.75 62.5C17.585 62.5 17.0025 62.5 16.5425 62.31C15.9312 62.0557 15.4456 61.5693 15.1925 60.9575C15 60.4975 15 59.915 15 58.75V52.305C15 49.3 15 47.7975 15.43 46.38C15.86 44.9625 16.6925 43.7125 18.36 41.2125L20 38.75L22.405 32.98C24.2675 28.505 25.2 26.27 27.09 25.01C28.98 23.75 31.4 23.75 36.25 23.75H43.75C48.5975 23.75 51.02 23.75 52.91 25.01C54.8 26.27 55.7325 28.5075 57.595 32.98L60 38.75L61.64 41.2125C63.3075 43.7125 64.14 44.9625 64.57 46.38C65 47.7975 65 49.3 65 52.305Z" stroke="#00A5E2" stroke-width="3" stroke-linecap="round" stroke-linejoin="round"/>
<path d="M15 35L20 38.75L25 40H55L60 38.75L65 35" stroke="#00A5E2" stroke-width="3" stroke-linecap="round" stroke-linejoin="round"/>
<path d="M55 47.5V47.525M25 47.5V47.525" stroke="#00A5E2" stroke-width="3" stroke-linecap="round" stroke-linejoin="round"/>
<path d="M47.5 23.75V22.5C47.5 20.1425 47.5 18.965 46.7675 18.2325C46.035 17.5 44.8575 17.5 42.5 17.5H37.5C35.1425 17.5 33.965 17.5 33.2325 18.2325C32.5 18.965 32.5 20.1425 32.5 22.5V23.75" stroke="#00A5E2" stroke-width="3" stroke-linecap="round" stroke-linejoin="round"/>
</svg>
