<svg width="419" height="550" viewBox="0 0 419 550" fill="none" xmlns="http://www.w3.org/2000/svg">
<g opacity="0.8">
<path d="M0 0V266.995C0 359.561 75.037 434.597 167.595 434.597C253.119 434.597 323.683 370.55 333.924 287.796H238.144C229.179 318.281 200.993 340.535 167.595 340.535C132.171 340.535 101.64 315.179 95.269 280.317C94.467 275.922 94.0758 271.461 94.0758 266.995L94.1078 97.8817C66.3288 63.2443 34.9495 30.6225 0 0Z" fill="#E7EDED"/>
<path d="M446.204 550V283.005C446.204 190.439 371.167 115.402 278.609 115.402C193.085 115.402 122.522 179.45 112.281 262.204H208.06C217.026 231.719 245.212 209.465 278.609 209.465C314.034 209.465 344.564 234.82 350.935 269.683C351.737 274.078 352.129 278.539 352.129 283.005L352.097 452.118C379.876 486.756 411.255 519.377 446.204 550Z" fill="#E7EDED"/>
</g>
</svg>
