<svg width="192" height="192" viewBox="0 0 192 192" fill="none" xmlns="http://www.w3.org/2000/svg">
<path d="M0 96C0 42.9807 42.9807 0 96 0C149.019 0 192 42.9807 192 96C192 149.019 149.019 192 96 192C42.9807 192 0 149.019 0 96Z" fill="#FDFFFF"/>
<path d="M84.0332 55.0713C66.5828 60.2263 53.8438 76.4326 53.8438 95.6357C53.8438 116.004 68.3581 133.559 88.3145 137.222C90.8298 137.683 93.3836 137.908 95.9395 137.908L129.467 137.9L185.723 192H95.9395C42.9528 192 0 148.855 0 95.6357C0.000109972 46.4607 36.6629 5.88815 84.0332 0V55.0713Z" fill="#2463A2"/>
</svg>
