<svg width="1400" height="500" viewBox="0 0 1400 500" fill="none" xmlns="http://www.w3.org/2000/svg">
<g clip-path="url(#clip0_38006_8137)">
<rect width="1400" height="500" fill="#FDFFFF"/>
<path d="M3.8493 130.709V47.8383C3.8493 19.1075 -19.4439 -4.18262 -48.1759 -4.18262C-74.7248 -4.18262 -96.6293 15.6968 -99.8082 41.3821H-70.0761C-67.293 31.92 -58.5434 25.0127 -48.1759 25.0127C-37.1795 25.0127 -27.702 32.8827 -25.7244 43.7036C-25.4754 45.0676 -25.3539 46.4523 -25.3539 47.8383L-25.3639 100.328C-16.7406 111.079 -6.99985 121.204 3.8493 130.709Z" fill="#F8FAFA"/>
<path d="M14.9329 130.709V47.8383C14.9329 19.1075 38.2261 -4.18262 66.9582 -4.18262C93.507 -4.18262 115.412 15.6968 118.59 41.3821H88.8584C86.0752 31.92 77.3257 25.0127 66.9582 25.0127C55.9617 25.0127 46.4843 32.8827 44.5067 43.7036C44.2577 45.0676 44.1361 46.4523 44.1361 47.8383L44.1461 100.328C35.5228 111.079 25.7821 121.204 14.9329 130.709Z" fill="#F8FAFA"/>
<path d="M153.445 -40V42.8709C153.445 71.6016 130.152 94.8918 101.42 94.8918C74.8711 94.8918 52.9666 75.0124 49.7877 49.327H79.5198C82.3029 58.7891 91.0524 65.6964 101.42 65.6964C112.416 65.6964 121.894 57.8264 123.871 47.0056C124.12 45.6416 124.242 44.2568 124.242 42.8709L124.232 -9.61916C132.855 -20.37 142.596 -30.4953 153.445 -40Z" fill="#F8FAFA"/>
<path d="M164.529 -40V42.8709C164.529 71.6016 187.822 94.8918 216.554 94.8918C243.103 94.8918 265.007 75.0124 268.186 49.327H238.454C235.671 58.7891 226.922 65.6964 216.554 65.6964C205.558 65.6964 196.08 57.8264 194.103 47.0056C193.854 45.6416 193.732 44.2568 193.732 42.8709L193.742 -9.61916C185.119 -20.37 175.378 -30.4953 164.529 -40Z" fill="#F8FAFA"/>
<path d="M303.041 130.709V47.8383C303.041 19.1075 279.748 -4.18262 251.016 -4.18262C224.467 -4.18262 202.562 15.6968 199.384 41.3821H229.116C231.899 31.92 240.648 25.0127 251.016 25.0127C262.012 25.0127 271.49 32.8827 273.467 43.7036C273.716 45.0676 273.838 46.4523 273.838 47.8383L273.828 100.328C282.451 111.079 292.192 121.204 303.041 130.709Z" fill="#F8FAFA"/>
<path d="M314.125 130.709V47.8383C314.125 19.1075 337.418 -4.18262 366.15 -4.18262C392.699 -4.18262 414.603 15.6968 417.782 41.3821H388.05C385.267 31.92 376.517 25.0127 366.15 25.0127C355.154 25.0127 345.676 32.8827 343.698 43.7036C343.449 45.0676 343.328 46.4523 343.328 47.8383L343.338 100.328C334.715 111.079 324.974 121.204 314.125 130.709Z" fill="#F8FAFA"/>
<path d="M452.637 -40V42.8709C452.637 71.6016 429.344 94.8918 400.612 94.8918C374.063 94.8918 352.158 75.0124 348.979 49.327H378.712C381.495 58.7891 390.244 65.6964 400.612 65.6964C411.608 65.6964 421.086 57.8264 423.063 47.0056C423.312 45.6416 423.434 44.2568 423.434 42.8709L423.424 -9.61916C432.047 -20.37 441.788 -30.4953 452.637 -40Z" fill="#F8FAFA"/>
<path d="M463.721 -40V42.8709C463.721 71.6016 487.014 94.8918 515.746 94.8918C542.295 94.8918 564.199 75.0124 567.378 49.327H537.646C534.863 58.7891 526.113 65.6964 515.746 65.6964C504.749 65.6964 495.272 57.8264 493.294 47.0056C493.045 45.6416 492.924 44.2568 492.924 42.8709L492.934 -9.61916C484.311 -20.37 474.57 -30.4953 463.721 -40Z" fill="#F8FAFA"/>
<path d="M602.233 130.709V47.8383C602.233 19.1075 578.94 -4.18262 550.208 -4.18262C523.659 -4.18262 501.754 15.6968 498.575 41.3821H528.307C531.091 31.92 539.84 25.0127 550.208 25.0127C561.204 25.0127 570.681 32.8827 572.659 43.7036C572.908 45.0676 573.03 46.4523 573.03 47.8383L573.02 100.328C581.643 111.079 591.384 121.204 602.233 130.709Z" fill="#F8FAFA"/>
<path d="M613.316 130.709V47.8383C613.316 19.1075 636.61 -4.18262 665.342 -4.18262C691.891 -4.18262 713.795 15.6968 716.974 41.3821H687.242C684.459 31.92 675.709 25.0127 665.342 25.0127C654.345 25.0127 644.868 32.8827 642.89 43.7036C642.641 45.0676 642.52 46.4523 642.52 47.8383L642.53 100.328C633.906 111.079 624.166 121.204 613.316 130.709Z" fill="#F8FAFA"/>
<path d="M751.829 -40V42.8709C751.829 71.6016 728.536 94.8918 699.803 94.8918C673.255 94.8918 651.35 75.0124 648.171 49.327H677.903C680.686 58.7891 689.436 65.6964 699.803 65.6964C710.8 65.6964 720.277 57.8264 722.255 47.0056C722.504 45.6416 722.626 44.2568 722.626 42.8709L722.616 -9.61916C731.239 -20.37 740.98 -30.4953 751.829 -40Z" fill="#F8FAFA"/>
<path d="M762.912 -40V42.8709C762.912 71.6016 786.206 94.8918 814.938 94.8918C841.486 94.8918 863.391 75.0124 866.57 49.327H836.838C834.055 58.7891 825.305 65.6964 814.938 65.6964C803.941 65.6964 794.464 57.8264 792.486 47.0056C792.237 45.6416 792.116 44.2568 792.116 42.8709L792.125 -9.61916C783.502 -20.37 773.762 -30.4953 762.912 -40Z" fill="#F8FAFA"/>
<path d="M901.425 130.709V47.8383C901.425 19.1075 878.131 -4.18262 849.399 -4.18262C822.85 -4.18262 800.946 15.6968 797.767 41.3821H827.499C830.282 31.92 839.032 25.0127 849.399 25.0127C860.396 25.0127 869.873 32.8827 871.851 43.7036C872.1 45.0676 872.221 46.4523 872.221 47.8383L872.211 100.328C880.835 111.079 890.575 121.204 901.425 130.709Z" fill="#F8FAFA"/>
<path d="M912.508 130.709V47.8383C912.508 19.1075 935.802 -4.18262 964.534 -4.18262C991.082 -4.18262 1012.99 15.6968 1016.17 41.3821H986.434C983.651 31.92 974.901 25.0127 964.534 25.0127C953.537 25.0127 944.06 32.8827 942.082 43.7036C941.833 45.0676 941.711 46.4523 941.711 47.8383L941.721 100.328C933.098 111.079 923.357 121.204 912.508 130.709Z" fill="#F8FAFA"/>
<path d="M1051.02 -40V42.8709C1051.02 71.6016 1027.73 94.8918 998.995 94.8918C972.446 94.8918 950.542 75.0124 947.363 49.327H977.095C979.878 58.7891 988.628 65.6964 998.995 65.6964C1009.99 65.6964 1019.47 57.8264 1021.45 47.0056C1021.7 45.6416 1021.82 44.2568 1021.82 42.8709L1021.81 -9.61916C1030.43 -20.37 1040.17 -30.4953 1051.02 -40Z" fill="#F8FAFA"/>
<path d="M1062.1 -40V42.8709C1062.1 71.6016 1085.4 94.8918 1114.13 94.8918C1140.68 94.8918 1162.58 75.0124 1165.76 49.327H1136.03C1133.25 58.7891 1124.5 65.6964 1114.13 65.6964C1103.13 65.6964 1093.66 57.8264 1091.68 47.0056C1091.43 45.6416 1091.31 44.2568 1091.31 42.8709L1091.32 -9.61916C1082.69 -20.37 1072.95 -30.4953 1062.1 -40Z" fill="#F8FAFA"/>
<path d="M1200.62 130.709V47.8383C1200.62 19.1075 1177.32 -4.18262 1148.59 -4.18262C1122.04 -4.18262 1100.14 15.6968 1096.96 41.3821H1126.69C1129.47 31.92 1138.22 25.0127 1148.59 25.0127C1159.59 25.0127 1169.07 32.8827 1171.04 43.7036C1171.29 45.0676 1171.41 46.4523 1171.41 47.8383L1171.4 100.328C1180.03 111.079 1189.77 121.204 1200.62 130.709Z" fill="#F8FAFA"/>
<path d="M1211.7 130.709V47.8383C1211.7 19.1075 1234.99 -4.18262 1263.73 -4.18262C1290.27 -4.18262 1312.18 15.6968 1315.36 41.3821H1285.63C1282.84 31.92 1274.09 25.0127 1263.73 25.0127C1252.73 25.0127 1243.25 32.8827 1241.27 43.7036C1241.02 45.0676 1240.9 46.4523 1240.9 47.8383L1240.91 100.328C1232.29 111.079 1222.55 121.204 1211.7 130.709Z" fill="#F8FAFA"/>
<path d="M1350.21 -40V42.8709C1350.21 71.6016 1326.92 94.8918 1298.19 94.8918C1271.64 94.8918 1249.73 75.0124 1246.55 49.327H1276.29C1279.07 58.7891 1287.82 65.6964 1298.19 65.6964C1309.18 65.6964 1318.66 57.8264 1320.64 47.0056C1320.89 45.6416 1321.01 44.2568 1321.01 42.8709L1321 -9.61916C1329.62 -20.37 1339.36 -30.4953 1350.21 -40Z" fill="#F8FAFA"/>
<path d="M1361.3 -40V42.8709C1361.3 71.6016 1384.59 94.8918 1413.32 94.8918C1439.87 94.8918 1461.77 75.0124 1464.95 49.327H1435.22C1432.44 58.7891 1423.69 65.6964 1413.32 65.6964C1402.32 65.6964 1392.85 57.8264 1390.87 47.0056C1390.62 45.6416 1390.5 44.2568 1390.5 42.8709L1390.51 -9.61916C1381.89 -20.37 1372.15 -30.4953 1361.3 -40Z" fill="#F8FAFA"/>
<path d="M1499.81 130.709V47.8383C1499.81 19.1075 1476.52 -4.18262 1447.78 -4.18262C1421.23 -4.18262 1399.33 15.6968 1396.15 41.3821H1425.88C1428.67 31.92 1437.42 25.0127 1447.78 25.0127C1458.78 25.0127 1468.26 32.8827 1470.23 43.7036C1470.48 45.0676 1470.61 46.4523 1470.61 47.8383L1470.6 100.328C1479.22 111.079 1488.96 121.204 1499.81 130.709Z" fill="#F8FAFA"/>
<path d="M3.8493 267.352V184.481C3.8493 155.75 -19.4439 132.46 -48.1759 132.46C-74.7248 132.46 -96.6293 152.339 -99.8082 178.025H-70.0761C-67.293 168.563 -58.5434 161.655 -48.1759 161.655C-37.1795 161.655 -27.702 169.525 -25.7244 180.346C-25.4754 181.71 -25.3539 183.095 -25.3539 184.481L-25.3639 236.971C-16.7406 247.722 -6.99985 257.847 3.8493 267.352Z" fill="#F8FAFA"/>
<path d="M14.9329 267.352V184.481C14.9329 155.75 38.2261 132.46 66.9582 132.46C93.507 132.46 115.412 152.339 118.59 178.025H88.8584C86.0752 168.563 77.3257 161.655 66.9582 161.655C55.9617 161.655 46.4843 169.525 44.5067 180.346C44.2577 181.71 44.1361 183.095 44.1361 184.481L44.1461 236.971C35.5228 247.722 25.7821 257.847 14.9329 267.352Z" fill="#F8FAFA"/>
<path d="M153.445 96.6426V179.513C153.445 208.244 130.152 231.534 101.42 231.534C74.8711 231.534 52.9666 211.655 49.7877 185.97H79.5198C82.3029 195.432 91.0524 202.339 101.42 202.339C112.416 202.339 121.894 194.469 123.871 183.648C124.12 182.284 124.242 180.899 124.242 179.513L124.232 127.023C132.855 116.273 142.596 106.147 153.445 96.6426Z" fill="#F8FAFA"/>
<path d="M164.529 96.6426V179.513C164.529 208.244 187.822 231.534 216.554 231.534C243.103 231.534 265.007 211.655 268.186 185.97H238.454C235.671 195.432 226.922 202.339 216.554 202.339C205.558 202.339 196.08 194.469 194.103 183.648C193.854 182.284 193.732 180.899 193.732 179.513L193.742 127.023C185.119 116.273 175.378 106.147 164.529 96.6426Z" fill="#F8FAFA"/>
<path d="M303.041 267.352V184.481C303.041 155.75 279.748 132.46 251.016 132.46C224.467 132.46 202.562 152.339 199.384 178.025H229.116C231.899 168.563 240.648 161.655 251.016 161.655C262.012 161.655 271.49 169.525 273.467 180.346C273.716 181.71 273.838 183.095 273.838 184.481L273.828 236.971C282.451 247.722 292.192 257.847 303.041 267.352Z" fill="#F8FAFA"/>
<path d="M314.125 267.352V184.481C314.125 155.75 337.418 132.46 366.15 132.46C392.699 132.46 414.603 152.339 417.782 178.025H388.05C385.267 168.563 376.517 161.655 366.15 161.655C355.154 161.655 345.676 169.525 343.698 180.346C343.449 181.71 343.328 183.095 343.328 184.481L343.338 236.971C334.715 247.722 324.974 257.847 314.125 267.352Z" fill="#F8FAFA"/>
<path d="M452.637 96.6426V179.513C452.637 208.244 429.344 231.534 400.612 231.534C374.063 231.534 352.158 211.655 348.979 185.97H378.712C381.495 195.432 390.244 202.339 400.612 202.339C411.608 202.339 421.086 194.469 423.063 183.648C423.312 182.284 423.434 180.899 423.434 179.513L423.424 127.023C432.047 116.273 441.788 106.147 452.637 96.6426Z" fill="#F8FAFA"/>
<path d="M463.721 96.6426V179.513C463.721 208.244 487.014 231.534 515.746 231.534C542.295 231.534 564.199 211.655 567.378 185.97H537.646C534.863 195.432 526.113 202.339 515.746 202.339C504.749 202.339 495.272 194.469 493.294 183.648C493.045 182.284 492.924 180.899 492.924 179.513L492.934 127.023C484.311 116.273 474.57 106.147 463.721 96.6426Z" fill="#F8FAFA"/>
<path d="M602.233 267.352V184.481C602.233 155.75 578.94 132.46 550.208 132.46C523.659 132.46 501.754 152.339 498.575 178.025H528.307C531.091 168.563 539.84 161.655 550.208 161.655C561.204 161.655 570.681 169.525 572.659 180.346C572.908 181.71 573.03 183.095 573.03 184.481L573.02 236.971C581.643 247.722 591.384 257.847 602.233 267.352Z" fill="#F8FAFA"/>
<path d="M613.316 267.352V184.481C613.316 155.75 636.61 132.46 665.342 132.46C691.891 132.46 713.795 152.339 716.974 178.025H687.242C684.459 168.563 675.709 161.655 665.342 161.655C654.345 161.655 644.868 169.525 642.89 180.346C642.641 181.71 642.52 183.095 642.52 184.481L642.53 236.971C633.906 247.722 624.166 257.847 613.316 267.352Z" fill="#F8FAFA"/>
<path d="M751.829 96.6426V179.513C751.829 208.244 728.536 231.534 699.803 231.534C673.255 231.534 651.35 211.655 648.171 185.97H677.903C680.686 195.432 689.436 202.339 699.803 202.339C710.8 202.339 720.277 194.469 722.255 183.648C722.504 182.284 722.626 180.899 722.626 179.513L722.616 127.023C731.239 116.273 740.98 106.147 751.829 96.6426Z" fill="#F8FAFA"/>
<path d="M762.912 96.6426V179.513C762.912 208.244 786.206 231.534 814.938 231.534C841.486 231.534 863.391 211.655 866.57 185.97H836.838C834.055 195.432 825.305 202.339 814.938 202.339C803.941 202.339 794.464 194.469 792.486 183.648C792.237 182.284 792.116 180.899 792.116 179.513L792.125 127.023C783.502 116.273 773.762 106.147 762.912 96.6426Z" fill="#F8FAFA"/>
<path d="M901.425 267.352V184.481C901.425 155.75 878.131 132.46 849.399 132.46C822.85 132.46 800.946 152.339 797.767 178.025H827.499C830.282 168.563 839.032 161.655 849.399 161.655C860.396 161.655 869.873 169.525 871.851 180.346C872.1 181.71 872.221 183.095 872.221 184.481L872.211 236.971C880.835 247.722 890.575 257.847 901.425 267.352Z" fill="#F8FAFA"/>
<path d="M912.508 267.352V184.481C912.508 155.75 935.802 132.46 964.534 132.46C991.082 132.46 1012.99 152.339 1016.17 178.025H986.434C983.651 168.563 974.901 161.655 964.534 161.655C953.537 161.655 944.06 169.525 942.082 180.346C941.833 181.71 941.711 183.095 941.711 184.481L941.721 236.971C933.098 247.722 923.357 257.847 912.508 267.352Z" fill="#F8FAFA"/>
<path d="M1051.02 96.6426V179.513C1051.02 208.244 1027.73 231.534 998.995 231.534C972.446 231.534 950.542 211.655 947.363 185.97H977.095C979.878 195.432 988.628 202.339 998.995 202.339C1009.99 202.339 1019.47 194.469 1021.45 183.648C1021.7 182.284 1021.82 180.899 1021.82 179.513L1021.81 127.023C1030.43 116.273 1040.17 106.147 1051.02 96.6426Z" fill="#F8FAFA"/>
<path d="M1062.1 96.6426V179.513C1062.1 208.244 1085.4 231.534 1114.13 231.534C1140.68 231.534 1162.58 211.655 1165.76 185.97H1136.03C1133.25 195.432 1124.5 202.339 1114.13 202.339C1103.13 202.339 1093.66 194.469 1091.68 183.648C1091.43 182.284 1091.31 180.899 1091.31 179.513L1091.32 127.023C1082.69 116.273 1072.95 106.147 1062.1 96.6426Z" fill="#F8FAFA"/>
<path d="M1200.62 267.352V184.481C1200.62 155.75 1177.32 132.46 1148.59 132.46C1122.04 132.46 1100.14 152.339 1096.96 178.025H1126.69C1129.47 168.563 1138.22 161.655 1148.59 161.655C1159.59 161.655 1169.07 169.525 1171.04 180.346C1171.29 181.71 1171.41 183.095 1171.41 184.481L1171.4 236.971C1180.03 247.722 1189.77 257.847 1200.62 267.352Z" fill="#F8FAFA"/>
<path d="M1211.7 267.352V184.481C1211.7 155.75 1234.99 132.46 1263.73 132.46C1290.27 132.46 1312.18 152.339 1315.36 178.025H1285.63C1282.84 168.563 1274.09 161.655 1263.73 161.655C1252.73 161.655 1243.25 169.525 1241.27 180.346C1241.02 181.71 1240.9 183.095 1240.9 184.481L1240.91 236.971C1232.29 247.722 1222.55 257.847 1211.7 267.352Z" fill="#F8FAFA"/>
<path d="M1350.21 96.6426V179.513C1350.21 208.244 1326.92 231.534 1298.19 231.534C1271.64 231.534 1249.73 211.655 1246.55 185.97H1276.29C1279.07 195.432 1287.82 202.339 1298.19 202.339C1309.18 202.339 1318.66 194.469 1320.64 183.648C1320.89 182.284 1321.01 180.899 1321.01 179.513L1321 127.023C1329.62 116.273 1339.36 106.147 1350.21 96.6426Z" fill="#F8FAFA"/>
<path d="M1361.3 96.6426V179.513C1361.3 208.244 1384.59 231.534 1413.32 231.534C1439.87 231.534 1461.77 211.655 1464.95 185.97H1435.22C1432.44 195.432 1423.69 202.339 1413.32 202.339C1402.32 202.339 1392.85 194.469 1390.87 183.648C1390.62 182.284 1390.5 180.899 1390.5 179.513L1390.51 127.023C1381.89 116.273 1372.15 106.147 1361.3 96.6426Z" fill="#F8FAFA"/>
<path d="M1499.81 267.352V184.481C1499.81 155.75 1476.52 132.46 1447.78 132.46C1421.23 132.46 1399.33 152.339 1396.15 178.025H1425.88C1428.67 168.563 1437.42 161.655 1447.78 161.655C1458.78 161.655 1468.26 169.525 1470.23 180.346C1470.48 181.71 1470.61 183.095 1470.61 184.481L1470.6 236.971C1479.22 247.722 1488.96 257.847 1499.81 267.352Z" fill="#F8FAFA"/>
<path d="M3.84955 403.994V321.123C3.84955 292.393 -19.4436 269.103 -48.1757 269.103C-74.7245 269.103 -96.6291 288.982 -99.808 314.667H-70.0759C-67.2927 305.205 -58.5432 298.298 -48.1757 298.298C-37.1792 298.298 -27.7018 306.168 -25.7242 316.989C-25.4752 318.353 -25.3536 319.737 -25.3536 321.123L-25.3636 373.613C-16.7403 384.364 -6.9996 394.49 3.84955 403.994Z" fill="#F8FAFA"/>
<path d="M14.9324 403.994V321.123C14.9324 292.393 38.2256 269.103 66.9577 269.103C93.5065 269.103 115.411 288.982 118.59 314.667H88.8578C86.0747 305.205 77.3252 298.298 66.9577 298.298C55.9612 298.298 46.4837 306.168 44.5061 316.989C44.2571 318.353 44.1356 319.737 44.1356 321.123L44.1455 373.613C35.5223 384.364 25.7815 394.49 14.9324 403.994Z" fill="#F8FAFA"/>
<path d="M153.445 233.284V316.155C153.445 344.886 130.151 368.176 101.419 368.176C74.8704 368.176 52.9659 348.297 49.787 322.611H79.5191C82.3022 332.073 91.0518 338.981 101.419 338.981C112.416 338.981 121.893 331.111 123.871 320.29C124.12 318.926 124.241 317.541 124.241 316.155L124.231 263.665C132.855 252.914 142.595 242.789 153.445 233.284Z" fill="#F8FAFA"/>
<path d="M164.529 233.284V316.155C164.529 344.886 187.823 368.176 216.555 368.176C243.104 368.176 265.008 348.297 268.187 322.611H238.455C235.672 332.073 226.922 338.981 216.555 338.981C205.558 338.981 196.081 331.111 194.103 320.29C193.854 318.926 193.733 317.541 193.733 316.155L193.743 263.665C185.119 252.914 175.379 242.789 164.529 233.284Z" fill="#F8FAFA"/>
<path d="M303.042 403.994V321.123C303.042 292.393 279.748 269.103 251.016 269.103C224.467 269.103 202.563 288.982 199.384 314.667H229.116C231.899 305.205 240.649 298.298 251.016 298.298C262.013 298.298 271.49 306.168 273.468 316.989C273.717 318.353 273.838 319.737 273.838 321.123L273.828 373.613C282.452 384.364 292.192 394.49 303.042 403.994Z" fill="#F8FAFA"/>
<path d="M314.124 403.994V321.123C314.124 292.393 337.418 269.103 366.15 269.103C392.698 269.103 414.603 288.982 417.782 314.667H388.05C385.267 305.205 376.517 298.298 366.15 298.298C355.153 298.298 345.676 306.168 343.698 316.989C343.449 318.353 343.328 319.737 343.328 321.123L343.338 373.613C334.714 384.364 324.973 394.49 314.124 403.994Z" fill="#F8FAFA"/>
<path d="M452.636 233.284V316.155C452.636 344.886 429.343 368.176 400.611 368.176C374.062 368.176 352.158 348.297 348.979 322.611H378.711C381.494 332.073 390.244 338.981 400.611 338.981C411.608 338.981 421.085 331.111 423.063 320.29C423.312 318.926 423.433 317.541 423.433 316.155L423.423 263.665C432.047 252.914 441.787 242.789 452.636 233.284Z" fill="#F8FAFA"/>
<path d="M463.721 233.284V316.155C463.721 344.886 487.015 368.176 515.747 368.176C542.296 368.176 564.2 348.297 567.379 322.611H537.647C534.864 332.073 526.114 338.981 515.747 338.981C504.75 338.981 495.273 331.111 493.295 320.29C493.046 318.926 492.925 317.541 492.925 316.155L492.935 263.665C484.311 252.914 474.571 242.789 463.721 233.284Z" fill="#F8FAFA"/>
<path d="M602.234 403.994V321.123C602.234 292.393 578.94 269.103 550.208 269.103C523.66 269.103 501.755 288.982 498.576 314.667H528.308C531.091 305.205 539.841 298.298 550.208 298.298C561.205 298.298 570.682 306.168 572.66 316.989C572.909 318.353 573.03 319.737 573.03 321.123L573.02 373.613C581.644 384.364 591.384 394.49 602.234 403.994Z" fill="#F8FAFA"/>
<path d="M613.316 403.994V321.123C613.316 292.393 636.61 269.103 665.342 269.103C691.891 269.103 713.795 288.982 716.974 314.667H687.242C684.459 305.205 675.709 298.298 665.342 298.298C654.345 298.298 644.868 306.168 642.89 316.989C642.641 318.353 642.52 319.737 642.52 321.123L642.53 373.613C633.906 384.364 624.166 394.49 613.316 403.994Z" fill="#F8FAFA"/>
<path d="M751.829 233.284V316.155C751.829 344.886 728.535 368.176 699.803 368.176C673.254 368.176 651.35 348.297 648.171 322.611H677.903C680.686 332.073 689.436 338.981 699.803 338.981C710.8 338.981 720.277 331.111 722.255 320.29C722.504 318.926 722.625 317.541 722.625 316.155L722.615 263.665C731.239 252.914 740.979 242.789 751.829 233.284Z" fill="#F8FAFA"/>
<path d="M762.913 233.284V316.155C762.913 344.886 786.207 368.176 814.939 368.176C841.488 368.176 863.392 348.297 866.571 322.611H836.839C834.056 332.073 825.306 338.981 814.939 338.981C803.942 338.981 794.465 331.111 792.487 320.29C792.238 318.926 792.117 317.541 792.117 316.155L792.127 263.665C783.503 252.914 773.763 242.789 762.913 233.284Z" fill="#F8FAFA"/>
<path d="M901.426 403.994V321.123C901.426 292.393 878.132 269.103 849.4 269.103C822.851 269.103 800.947 288.982 797.768 314.667H827.5C830.283 305.205 839.033 298.298 849.4 298.298C860.397 298.298 869.874 306.168 871.852 316.989C872.101 318.353 872.222 319.737 872.222 321.123L872.212 373.613C880.836 384.364 890.576 394.49 901.426 403.994Z" fill="#F8FAFA"/>
<path d="M912.508 403.994V321.123C912.508 292.393 935.802 269.103 964.534 269.103C991.083 269.103 1012.99 288.982 1016.17 314.667H986.434C983.651 305.205 974.901 298.298 964.534 298.298C953.537 298.298 944.06 306.168 942.082 316.989C941.833 318.353 941.712 319.737 941.712 321.123L941.722 373.613C933.098 384.364 923.358 394.49 912.508 403.994Z" fill="#F8FAFA"/>
<path d="M1051.02 233.284V316.155C1051.02 344.886 1027.73 368.176 998.995 368.176C972.446 368.176 950.542 348.297 947.363 322.611H977.095C979.878 332.073 988.628 338.981 998.995 338.981C1009.99 338.981 1019.47 331.111 1021.45 320.29C1021.7 318.926 1021.82 317.541 1021.82 316.155L1021.81 263.665C1030.43 252.914 1040.17 242.789 1051.02 233.284Z" fill="#F8FAFA"/>
<path d="M1062.1 233.284V316.155C1062.1 344.886 1085.4 368.176 1114.13 368.176C1140.68 368.176 1162.58 348.297 1165.76 322.611H1136.03C1133.25 332.073 1124.5 338.981 1114.13 338.981C1103.13 338.981 1093.65 331.111 1091.68 320.29C1091.43 318.926 1091.31 317.541 1091.31 316.155L1091.32 263.665C1082.69 252.914 1072.95 242.789 1062.1 233.284Z" fill="#F8FAFA"/>
<path d="M1200.62 403.994V321.123C1200.62 292.393 1177.32 269.103 1148.59 269.103C1122.04 269.103 1100.14 288.982 1096.96 314.667H1126.69C1129.47 305.205 1138.22 298.298 1148.59 298.298C1159.59 298.298 1169.06 306.168 1171.04 316.989C1171.29 318.353 1171.41 319.737 1171.41 321.123L1171.4 373.613C1180.03 384.364 1189.77 394.49 1200.62 403.994Z" fill="#F8FAFA"/>
<path d="M1211.7 403.994V321.123C1211.7 292.393 1234.99 269.103 1263.73 269.103C1290.27 269.103 1312.18 288.982 1315.36 314.667H1285.63C1282.84 305.205 1274.09 298.298 1263.73 298.298C1252.73 298.298 1243.25 306.168 1241.27 316.989C1241.03 318.353 1240.9 319.737 1240.9 321.123L1240.91 373.613C1232.29 384.364 1222.55 394.49 1211.7 403.994Z" fill="#F8FAFA"/>
<path d="M1350.21 233.284V316.155C1350.21 344.886 1326.92 368.176 1298.19 368.176C1271.64 368.176 1249.73 348.297 1246.56 322.611H1276.29C1279.07 332.073 1287.82 338.981 1298.19 338.981C1309.18 338.981 1318.66 331.111 1320.64 320.29C1320.89 318.926 1321.01 317.541 1321.01 316.155L1321 263.665C1329.62 252.914 1339.36 242.789 1350.21 233.284Z" fill="#F8FAFA"/>
<path d="M1361.3 233.284V316.155C1361.3 344.886 1384.59 368.176 1413.32 368.176C1439.87 368.176 1461.77 348.297 1464.95 322.611H1435.22C1432.44 332.073 1423.69 338.981 1413.32 338.981C1402.32 338.981 1392.85 331.111 1390.87 320.29C1390.62 318.926 1390.5 317.541 1390.5 316.155L1390.51 263.665C1381.89 252.914 1372.14 242.789 1361.3 233.284Z" fill="#F8FAFA"/>
<path d="M1499.81 403.994V321.123C1499.81 292.393 1476.51 269.103 1447.78 269.103C1421.23 269.103 1399.33 288.982 1396.15 314.667H1425.88C1428.67 305.205 1437.41 298.298 1447.78 298.298C1458.78 298.298 1468.26 306.168 1470.23 316.989C1470.48 318.353 1470.6 319.737 1470.6 321.123L1470.59 373.613C1479.22 384.364 1488.96 394.49 1499.81 403.994Z" fill="#F8FAFA"/>
<path d="M3.8493 540.636V457.765C3.8493 429.034 -19.4439 405.744 -48.1759 405.744C-74.7248 405.744 -96.6293 425.624 -99.8082 451.309H-70.0761C-67.293 441.847 -58.5434 434.939 -48.1759 434.939C-37.1795 434.939 -27.702 442.809 -25.7244 453.63C-25.4754 454.994 -25.3539 456.379 -25.3539 457.765L-25.3639 510.255C-16.7406 521.006 -6.99985 531.131 3.8493 540.636Z" fill="#F8FAFA"/>
<path d="M14.9329 540.636V457.765C14.9329 429.034 38.2261 405.744 66.9582 405.744C93.507 405.744 115.412 425.624 118.59 451.309H88.8584C86.0752 441.847 77.3257 434.939 66.9582 434.939C55.9617 434.939 46.4843 442.809 44.5067 453.63C44.2577 454.994 44.1361 456.379 44.1361 457.765L44.1461 510.255C35.5228 521.006 25.7821 531.131 14.9329 540.636Z" fill="#F8FAFA"/>
<path d="M153.445 369.927V452.798C153.445 481.528 130.152 504.818 101.42 504.818C74.8711 504.818 52.9666 484.939 49.7877 459.254H79.5198C82.3029 468.716 91.0524 475.623 101.42 475.623C112.416 475.623 121.894 467.753 123.871 456.932C124.12 455.568 124.242 454.184 124.242 452.798L124.232 400.308C132.855 389.557 142.596 379.431 153.445 369.927Z" fill="#F8FAFA"/>
<path d="M164.529 369.927V452.798C164.529 481.528 187.822 504.818 216.554 504.818C243.103 504.818 265.007 484.939 268.186 459.254H238.454C235.671 468.716 226.922 475.623 216.554 475.623C205.558 475.623 196.08 467.753 194.103 456.932C193.854 455.568 193.732 454.184 193.732 452.798L193.742 400.308C185.119 389.557 175.378 379.431 164.529 369.927Z" fill="#F8FAFA"/>
<path d="M303.041 540.636V457.765C303.041 429.034 279.748 405.744 251.016 405.744C224.467 405.744 202.562 425.624 199.384 451.309H229.116C231.899 441.847 240.648 434.939 251.016 434.939C262.012 434.939 271.49 442.809 273.467 453.63C273.716 454.994 273.838 456.379 273.838 457.765L273.828 510.255C282.451 521.006 292.192 531.131 303.041 540.636Z" fill="#F8FAFA"/>
<path d="M314.125 540.636V457.765C314.125 429.034 337.418 405.744 366.15 405.744C392.699 405.744 414.603 425.624 417.782 451.309H388.05C385.267 441.847 376.517 434.939 366.15 434.939C355.154 434.939 345.676 442.809 343.698 453.63C343.449 454.994 343.328 456.379 343.328 457.765L343.338 510.255C334.715 521.006 324.974 531.131 314.125 540.636Z" fill="#F8FAFA"/>
<path d="M452.637 369.927V452.798C452.637 481.528 429.344 504.818 400.612 504.818C374.063 504.818 352.158 484.939 348.979 459.254H378.712C381.495 468.716 390.244 475.623 400.612 475.623C411.608 475.623 421.086 467.753 423.063 456.932C423.312 455.568 423.434 454.184 423.434 452.798L423.424 400.308C432.047 389.557 441.788 379.431 452.637 369.927Z" fill="#F8FAFA"/>
<path d="M463.721 369.927V452.798C463.721 481.528 487.014 504.818 515.746 504.818C542.295 504.818 564.199 484.939 567.378 459.254H537.646C534.863 468.716 526.113 475.623 515.746 475.623C504.749 475.623 495.272 467.753 493.294 456.932C493.045 455.568 492.924 454.184 492.924 452.798L492.934 400.308C484.311 389.557 474.57 379.431 463.721 369.927Z" fill="#F8FAFA"/>
<path d="M602.233 540.636V457.765C602.233 429.034 578.94 405.744 550.208 405.744C523.659 405.744 501.754 425.624 498.575 451.309H528.307C531.091 441.847 539.84 434.939 550.208 434.939C561.204 434.939 570.681 442.809 572.659 453.63C572.908 454.994 573.03 456.379 573.03 457.765L573.02 510.255C581.643 521.006 591.384 531.131 602.233 540.636Z" fill="#F8FAFA"/>
<path d="M613.316 540.636V457.765C613.316 429.034 636.61 405.744 665.342 405.744C691.891 405.744 713.795 425.624 716.974 451.309H687.242C684.459 441.847 675.709 434.939 665.342 434.939C654.345 434.939 644.868 442.809 642.89 453.63C642.641 454.994 642.52 456.379 642.52 457.765L642.53 510.255C633.906 521.006 624.166 531.131 613.316 540.636Z" fill="#F8FAFA"/>
<path d="M751.829 369.927V452.798C751.829 481.528 728.536 504.818 699.803 504.818C673.255 504.818 651.35 484.939 648.171 459.254H677.903C680.686 468.716 689.436 475.623 699.803 475.623C710.8 475.623 720.277 467.753 722.255 456.932C722.504 455.568 722.626 454.184 722.626 452.798L722.616 400.308C731.239 389.557 740.98 379.431 751.829 369.927Z" fill="#F8FAFA"/>
<path d="M762.912 369.927V452.798C762.912 481.528 786.206 504.818 814.938 504.818C841.486 504.818 863.391 484.939 866.57 459.254H836.838C834.055 468.716 825.305 475.623 814.938 475.623C803.941 475.623 794.464 467.753 792.486 456.932C792.237 455.568 792.116 454.184 792.116 452.798L792.125 400.308C783.502 389.557 773.762 379.431 762.912 369.927Z" fill="#F8FAFA"/>
<path d="M901.425 540.636V457.765C901.425 429.034 878.131 405.744 849.399 405.744C822.85 405.744 800.946 425.624 797.767 451.309H827.499C830.282 441.847 839.032 434.939 849.399 434.939C860.396 434.939 869.873 442.809 871.851 453.63C872.1 454.994 872.221 456.379 872.221 457.765L872.211 510.255C880.835 521.006 890.575 531.131 901.425 540.636Z" fill="#F8FAFA"/>
<path d="M912.508 540.636V457.765C912.508 429.034 935.802 405.744 964.534 405.744C991.082 405.744 1012.99 425.624 1016.17 451.309H986.434C983.651 441.847 974.901 434.939 964.534 434.939C953.537 434.939 944.06 442.809 942.082 453.63C941.833 454.994 941.711 456.379 941.711 457.765L941.721 510.255C933.098 521.006 923.357 531.131 912.508 540.636Z" fill="#F8FAFA"/>
<path d="M1051.02 369.927V452.798C1051.02 481.528 1027.73 504.818 998.995 504.818C972.446 504.818 950.542 484.939 947.363 459.254H977.095C979.878 468.716 988.628 475.623 998.995 475.623C1009.99 475.623 1019.47 467.753 1021.45 456.932C1021.7 455.568 1021.82 454.184 1021.82 452.798L1021.81 400.308C1030.43 389.557 1040.17 379.431 1051.02 369.927Z" fill="#F8FAFA"/>
<path d="M1062.1 369.927V452.798C1062.1 481.528 1085.4 504.818 1114.13 504.818C1140.68 504.818 1162.58 484.939 1165.76 459.254H1136.03C1133.25 468.716 1124.5 475.623 1114.13 475.623C1103.13 475.623 1093.66 467.753 1091.68 456.932C1091.43 455.568 1091.31 454.184 1091.31 452.798L1091.32 400.308C1082.69 389.557 1072.95 379.431 1062.1 369.927Z" fill="#F8FAFA"/>
<path d="M1200.62 540.636V457.765C1200.62 429.034 1177.32 405.744 1148.59 405.744C1122.04 405.744 1100.14 425.624 1096.96 451.309H1126.69C1129.47 441.847 1138.22 434.939 1148.59 434.939C1159.59 434.939 1169.07 442.809 1171.04 453.63C1171.29 454.994 1171.41 456.379 1171.41 457.765L1171.4 510.255C1180.03 521.006 1189.77 531.131 1200.62 540.636Z" fill="#F8FAFA"/>
<path d="M1211.7 540.636V457.765C1211.7 429.034 1234.99 405.744 1263.73 405.744C1290.27 405.744 1312.18 425.624 1315.36 451.309H1285.63C1282.84 441.847 1274.09 434.939 1263.73 434.939C1252.73 434.939 1243.25 442.809 1241.27 453.63C1241.02 454.994 1240.9 456.379 1240.9 457.765L1240.91 510.255C1232.29 521.006 1222.55 531.131 1211.7 540.636Z" fill="#F8FAFA"/>
<path d="M1350.21 369.927V452.798C1350.21 481.528 1326.92 504.818 1298.19 504.818C1271.64 504.818 1249.73 484.939 1246.55 459.254H1276.29C1279.07 468.716 1287.82 475.623 1298.19 475.623C1309.18 475.623 1318.66 467.753 1320.64 456.932C1320.89 455.568 1321.01 454.184 1321.01 452.798L1321 400.308C1329.62 389.557 1339.36 379.431 1350.21 369.927Z" fill="#F8FAFA"/>
<path d="M1361.3 369.927V452.798C1361.3 481.528 1384.59 504.818 1413.32 504.818C1439.87 504.818 1461.77 484.939 1464.95 459.254H1435.22C1432.44 468.716 1423.69 475.623 1413.32 475.623C1402.32 475.623 1392.85 467.753 1390.87 456.932C1390.62 455.568 1390.5 454.184 1390.5 452.798L1390.51 400.308C1381.89 389.557 1372.15 379.431 1361.3 369.927Z" fill="#F8FAFA"/>
<path d="M1499.81 540.636V457.765C1499.81 429.034 1476.52 405.744 1447.78 405.744C1421.23 405.744 1399.33 425.624 1396.15 451.309H1425.88C1428.67 441.847 1437.42 434.939 1447.78 434.939C1458.78 434.939 1468.26 442.809 1470.23 453.63C1470.48 454.994 1470.61 456.379 1470.61 457.765L1470.6 510.255C1479.22 521.006 1488.96 531.131 1499.81 540.636Z" fill="#F8FAFA"/>
</g>
<defs>
<clipPath id="clip0_38006_8137">
<rect width="1400" height="500" fill="white"/>
</clipPath>
</defs>
</svg>
