<svg width="48" height="48" viewBox="0 0 48 48" fill="none" xmlns="http://www.w3.org/2000/svg">
<path d="M0 24C0 10.7452 10.7452 0 24 0C37.2548 0 48 10.7452 48 24C48 37.2548 37.2548 48 24 48C10.7452 48 0 37.2548 0 24Z" fill="#E4F6FD"/>
<path d="M10 19.5605V31.0005C10 32.0614 10.4214 33.0788 11.1716 33.829C11.9217 34.5791 12.9391 35.0005 14 35.0005H34C35.0609 35.0005 36.0783 34.5791 36.8284 33.829C37.5786 33.0788 38 32.0614 38 31.0005V19.5605L26.096 26.8845C25.4657 27.2724 24.7401 27.4777 24 27.4777C23.2599 27.4777 22.5343 27.2724 21.904 26.8845L10 19.5605Z" fill="#00A5E2"/>
<path d="M38 17.2107V17C38 15.9391 37.5786 14.9217 36.8284 14.1716C36.0783 13.4214 35.0609 13 34 13H14C12.9391 13 11.9217 13.4214 11.1716 14.1716C10.4214 14.9217 10 15.9391 10 17V17.2107L22.952 25.1813C23.2672 25.3752 23.63 25.4779 24 25.4779C24.37 25.4779 24.7328 25.3752 25.048 25.1813L38 17.2107Z" fill="#00A5E2"/>
</svg>
