<svg width="48" height="48" viewBox="0 0 48 48" fill="none" xmlns="http://www.w3.org/2000/svg">
<path d="M0 24C0 10.7452 10.7452 0 24 0C37.2548 0 48 10.7452 48 24C48 37.2548 37.2548 48 24 48C10.7452 48 0 37.2548 0 24Z" fill="#E4F6FD"/>
<path fill-rule="evenodd" clip-rule="evenodd" d="M31.0707 14.9292C29.1886 13.0869 26.6557 12.0613 24.0221 12.0754C21.3884 12.0894 18.8666 13.1418 17.0043 15.0041C15.1419 16.8665 14.0895 19.3883 14.0755 22.022C14.0614 24.6556 15.087 27.1885 16.9293 29.0706C17.1169 29.2582 17.2223 29.5126 17.2223 29.7779C17.2223 30.0432 17.1169 30.2976 16.9293 30.4852C16.7417 30.6728 16.4873 30.7782 16.222 30.7782C15.9567 30.7782 15.7023 30.6728 15.5147 30.4852C14.1193 29.0898 13.0895 27.3718 12.5167 25.4834C11.9439 23.5949 11.8456 21.5944 12.2306 19.6589C12.6156 17.7234 13.472 15.9127 14.7239 14.3873C15.9758 12.8618 17.5846 11.6686 19.4078 10.9135C21.231 10.1583 23.2123 9.86436 25.1762 10.0578C27.1401 10.2512 29.026 10.926 30.6668 12.0223C32.3076 13.1187 33.6527 14.6028 34.583 16.3432C35.5133 18.0836 36 20.0265 36 21.9999C36 22.2651 35.8946 22.5195 35.7071 22.707C35.5196 22.8945 35.2652 22.9999 35 22.9999C34.7348 22.9999 34.4804 22.8945 34.2929 22.707C34.1054 22.5195 34 22.2651 34 21.9999C34 19.4399 33.024 16.8812 31.0707 14.9292ZM28.2427 17.7572C27.1174 16.632 25.5913 15.9999 24 15.9999C22.4087 15.9999 20.8826 16.632 19.7573 17.7572C18.6321 18.8825 18 20.4086 18 21.9999C18 23.5912 18.6321 25.1173 19.7573 26.2426C19.8556 26.3341 19.9344 26.4445 19.989 26.5672C20.0437 26.6898 20.0731 26.8223 20.0755 26.9565C20.0778 27.0908 20.0531 27.2242 20.0028 27.3487C19.9525 27.4732 19.8777 27.5863 19.7827 27.6813C19.6878 27.7762 19.5746 27.8511 19.4501 27.9014C19.3256 27.9517 19.1922 27.9764 19.058 27.974C18.9237 27.9717 18.7913 27.9423 18.6686 27.8876C18.546 27.833 18.4356 27.7541 18.344 27.6559C17.4135 26.7257 16.7268 25.5803 16.3447 24.3213C15.9627 23.0622 15.897 21.7284 16.1536 20.4379C16.4102 19.1475 16.9812 17.9402 17.8158 16.9231C18.6505 15.906 19.7232 15.1105 20.9388 14.6071C22.1544 14.1036 23.4754 13.9077 24.7848 14.0368C26.0941 14.1658 27.3515 14.6159 28.4454 15.347C29.5393 16.0781 30.436 17.0677 31.056 18.2282C31.676 19.3887 32.0003 20.6842 32 21.9999C32 22.2651 31.8946 22.5195 31.7071 22.707C31.5196 22.8945 31.2652 22.9999 31 22.9999C30.7348 22.9999 30.4804 22.8945 30.2929 22.707C30.1054 22.5195 30 22.2651 30 21.9999C30 20.4626 29.4133 18.9292 28.2427 17.7572ZM23.3973 19.5092C23.6 19.4549 23.8147 19.4657 24.0109 19.5401C24.2072 19.6145 24.375 19.7488 24.4907 19.9239L31.4613 30.4799C31.5704 30.645 31.6281 30.8388 31.6269 31.0367C31.6258 31.2346 31.566 31.4277 31.4551 31.5916C31.3442 31.7555 31.1871 31.8828 31.0038 31.9574C30.8205 32.032 30.6192 32.0505 30.4253 32.0106L27.6293 31.4372L29.0227 36.6372C29.0913 36.8936 29.0552 37.1667 28.9224 37.3965C28.7897 37.6263 28.571 37.794 28.3147 37.8626C28.0583 37.9312 27.7852 37.8951 27.5554 37.7623C27.3256 37.6296 27.1579 37.4109 27.0893 37.1546L25.6973 31.9559L23.5627 33.8492C23.4147 33.9808 23.2311 34.0655 23.035 34.0926C22.8389 34.1196 22.6391 34.0879 22.4611 34.0014C22.283 33.9148 22.1346 33.7774 22.0348 33.6065C21.9349 33.4356 21.888 33.2388 21.9 33.0412L22.6587 20.4146C22.6711 20.205 22.7491 20.0047 22.8816 19.842C23.0142 19.6793 23.1946 19.5624 23.3973 19.5079V19.5092Z" fill="#00A5E2"/>
</svg>
