<svg width="594" height="1114" viewBox="0 0 594 1114" fill="none" xmlns="http://www.w3.org/2000/svg">
<g opacity="0.5">
<path d="M-310 0V540.665C-310 728.11 -158.05 880.059 29.3788 880.059C202.566 880.059 345.457 750.362 366.194 582.786H172.241C154.086 644.519 97.0096 689.583 29.3788 689.583C-42.3549 689.583 -104.18 638.238 -117.08 567.64C-118.704 558.742 -119.497 549.707 -119.497 540.665L-119.432 198.21C-175.684 128.07 -239.227 62.0106 -310 0Z" fill="#E7EDED"/>
<path d="M593.562 1113.74V573.08C593.562 385.635 441.613 233.686 254.184 233.686C80.9965 233.686 -61.8939 363.382 -82.6311 530.958H111.321C129.476 469.226 186.553 424.162 254.184 424.162C325.917 424.162 387.742 475.507 400.643 546.104C402.267 555.003 403.06 564.037 403.06 573.08L402.995 915.534C459.248 985.675 522.79 1051.73 593.562 1113.74Z" fill="#E7EDED"/>
</g>
</svg>
