<svg width="48" height="48" viewBox="0 0 48 48" fill="none" xmlns="http://www.w3.org/2000/svg">
<path d="M0 24C0 10.7452 10.7452 0 24 0C37.2548 0 48 10.7452 48 24C48 37.2548 37.2548 48 24 48C10.7452 48 0 37.2548 0 24Z" fill="#E4F6FD"/>
<path fill-rule="evenodd" clip-rule="evenodd" d="M20 10H15.5C14.1187 10 13 11.12 13 12.5V35.5C13 36.88 14.12 38 15.5 38H32.5C33.88 38 35 36.88 35 35.5V25C35 23.6739 34.4732 22.4021 33.5355 21.4645C32.5979 20.5268 31.3261 20 30 20H27.5C26.837 20 26.2011 19.7366 25.7322 19.2678C25.2634 18.7989 25 18.163 25 17.5V15C25 13.6739 24.4732 12.4021 23.5355 11.4645C22.5979 10.5268 21.3261 10 20 10ZM28.8133 24.5813C28.8933 24.4747 28.9512 24.3532 28.9836 24.2239C29.0159 24.0946 29.0221 23.9602 29.0018 23.8285C28.9815 23.6968 28.935 23.5704 28.8651 23.4569C28.7953 23.3434 28.7034 23.245 28.595 23.1675C28.4866 23.09 28.3638 23.035 28.2337 23.0056C28.1037 22.9763 27.9692 22.9732 27.838 22.9966C27.7068 23.02 27.5816 23.0694 27.4697 23.1419C27.3579 23.2144 27.2616 23.3085 27.1867 23.4187L22.872 29.4587L20.7067 27.2933C20.5171 27.1167 20.2664 27.0205 20.0073 27.0251C19.7482 27.0297 19.5011 27.1346 19.3178 27.3178C19.1346 27.5011 19.0297 27.7482 19.0251 28.0073C19.0205 28.2664 19.1167 28.5171 19.2933 28.7067L22.2933 31.7067C22.396 31.8092 22.5197 31.8882 22.656 31.9382C22.7922 31.9881 22.9377 32.0078 23.0824 31.9959C23.227 31.984 23.3673 31.9407 23.4935 31.8691C23.6197 31.7975 23.7289 31.6993 23.8133 31.5813L28.8133 24.5813Z" fill="#00A5E2"/>
<path d="M25.2947 10.4219C26.3967 11.6925 27.0023 13.3186 27 15.0005V17.5005C27 17.7765 27.224 18.0005 27.5 18.0005H30C31.682 17.9982 33.3081 18.6039 34.5787 19.7059C33.9921 17.4748 32.8234 15.4396 31.1922 13.8084C29.5609 12.1772 27.5257 11.0085 25.2947 10.4219Z" fill="#00A5E2"/>
</svg>
