<svg width="48" height="48" viewBox="0 0 48 48" fill="none" xmlns="http://www.w3.org/2000/svg">
<path d="M0 24C0 10.7452 10.7452 0 24 0C37.2548 0 48 10.7452 48 24C48 37.2548 37.2548 48 24 48C10.7452 48 0 37.2548 0 24Z" fill="#E4F6FD"/>
<path fill-rule="evenodd" clip-rule="evenodd" d="M26.6773 33.338L26.6853 30.6673C26.6853 30.3128 26.8262 29.9728 27.0768 29.7222C27.3275 29.4715 27.6675 29.3307 28.022 29.3307C28.3765 29.3307 28.7165 29.4715 28.9672 29.7222C29.2179 29.9728 29.3587 30.3128 29.3587 30.6673V33.3033C29.3587 33.9446 29.3587 34.266 29.564 34.4633C29.7707 34.6593 30.084 34.646 30.7147 34.6193C33.1987 34.514 34.7253 34.1793 35.8 33.1046C36.88 32.03 37.2147 30.5033 37.32 28.0153C37.34 27.522 37.3507 27.274 37.2587 27.11C37.1653 26.946 36.7987 26.7407 36.0627 26.3287C35.6481 26.0975 35.3028 25.7599 35.0624 25.3506C34.822 24.9413 34.6952 24.4753 34.6952 24.0007C34.6952 23.526 34.822 23.06 35.0624 22.6507C35.3028 22.2414 35.6481 21.9038 36.0627 21.6727C36.7987 21.262 37.1667 21.0553 37.2587 20.8913C37.3507 20.7273 37.34 20.4807 37.3187 19.986C37.2147 17.498 36.8787 15.9727 35.8 14.8967C34.6307 13.7287 32.9267 13.434 30.0373 13.3593C29.9489 13.357 29.8608 13.3724 29.7784 13.4047C29.696 13.437 29.6209 13.4854 29.5575 13.5472C29.4941 13.6089 29.4438 13.6828 29.4094 13.7643C29.375 13.8459 29.3573 13.9335 29.3573 14.022V17.334C29.3573 17.6885 29.2165 18.0285 28.9658 18.2792C28.7152 18.5298 28.3752 18.6707 28.0207 18.6707C27.6662 18.6707 27.3262 18.5298 27.0755 18.2792C26.8248 18.0285 26.684 17.6885 26.684 17.334L26.6747 13.9993C26.6743 13.8227 26.6039 13.6535 26.4789 13.5288C26.354 13.404 26.1846 13.334 26.008 13.334H21.3253C16.2853 13.334 13.7653 13.334 12.1987 14.8967C11.1187 15.9713 10.784 17.498 10.6787 19.986C10.6587 20.4793 10.648 20.7273 10.74 20.8913C10.8333 21.0553 11.2 21.262 11.936 21.6727C12.3506 21.9038 12.6959 22.2414 12.9363 22.6507C13.1767 23.06 13.3035 23.526 13.3035 24.0007C13.3035 24.4753 13.1767 24.9413 12.9363 25.3506C12.6959 25.7599 12.3506 26.0975 11.936 26.3287C11.2 26.7407 10.832 26.946 10.74 27.11C10.648 27.274 10.6587 27.5207 10.68 28.014C10.784 30.5033 11.12 32.03 12.1987 33.1046C13.7653 34.6673 16.2853 34.6673 21.3267 34.6673H25.34C25.9693 34.6673 26.2827 34.6673 26.4787 34.4727C26.6747 34.278 26.676 33.966 26.6773 33.338ZM29.3573 25.334V22.6673C29.3573 22.3128 29.2165 21.9728 28.9658 21.7222C28.7152 21.4715 28.3752 21.3307 28.0207 21.3307C27.6662 21.3307 27.3262 21.4715 27.0755 21.7222C26.8248 21.9728 26.684 22.3128 26.684 22.6673V25.334C26.684 25.6887 26.8249 26.0288 27.0757 26.2796C27.3265 26.5304 27.6667 26.6713 28.0213 26.6713C28.376 26.6713 28.7162 26.5304 28.967 26.2796C29.2178 26.0288 29.3573 25.6887 29.3573 25.334Z" fill="#00A5E2"/>
</svg>
