<svg width="80" height="260" viewBox="0 0 80 260" fill="none" xmlns="http://www.w3.org/2000/svg">
<path d="M11.2722 162.209L40 191.569L68.727 162.209L80 173.313L40 214.194L0 173.313L11.2722 162.209Z" fill="#00AA9F"/>
<path d="M11.2722 207.608L40 236.969L68.727 207.608L80 218.712L40 259.593L0 218.712L11.2722 207.608Z" fill="#00A5E2"/>
<path d="M11.2722 117.559L40 146.919L68.727 117.559L80 128.662L40 169.543L0 128.662L11.2722 117.559Z" fill="#EE4A5B"/>
<path d="M11.2722 72.9082L40 102.268L68.727 72.9082L80 84.0118L40 124.893L0 84.0118L11.2722 72.9082Z" fill="#F2755E"/>
<path d="M11.2722 28.7074L40 57.8741L68.727 28.7074L80 39.7378L40 80.3496L0 39.7378L11.2722 28.7074Z" fill="#FFD34B"/>
<path d="M29.8645 10.1066C24.6644 15.6883 24.9886 24.4147 30.5887 29.5978C36.1888 34.7808 44.9442 34.4576 50.1444 28.876C55.3446 23.2943 55.0204 14.5679 49.4203 9.38486C43.8201 4.20184 35.0647 4.52498 29.8645 10.1066Z" fill="#FFD34B"/>
</svg>
