<svg width="212" height="66" viewBox="0 0 212 66" fill="none" xmlns="http://www.w3.org/2000/svg">
<path d="M79.634 56.199L55.6253 32.7073L79.634 9.21634L70.5543 -0.00195312L37.1246 32.7073L70.5543 65.4167L79.634 56.199Z" fill="#00AA9F"/>
<path d="M42.51 56.199L18.5013 32.7073L42.51 9.21634L33.4303 -0.00195312L0.000553131 32.7073L33.4303 65.4167L42.51 56.199Z" fill="#00A5E2"/>
<path d="M116.146 56.199L92.137 32.7073L116.146 9.21634L107.066 -0.00195312L73.6363 32.7073L107.066 65.4167L116.146 56.199Z" fill="#EE4A5B"/>
<path d="M152.658 56.199L128.65 32.7073L152.658 9.21634L143.579 -0.00195312L110.149 32.7073L143.579 65.4167L152.658 56.199Z" fill="#F2755E"/>
<path d="M188.063 56.199L164.146 32.7074L188.063 9.21633L179.018 -0.00195312L145.716 32.7074L179.018 65.4167L188.063 56.199Z" fill="#FFD34B"/>
<path d="M203.316 40.996C198.739 45.2483 191.583 44.9832 187.333 40.4038C183.083 35.8244 183.348 28.6648 187.925 24.4125C192.502 20.1601 199.657 20.4252 203.907 25.0046C208.158 29.584 207.893 36.7436 203.316 40.996Z" fill="#FFD34B"/>
</svg>
